<svg id="Layer_1" enable-background="new 0 0 512 512" height="512" viewBox="0 0 512 512" width="512" xmlns="http://www.w3.org/2000/svg"><g><path d="m256 22.005c-135.309 0-244.998 109.689-244.998 244.998 0 88.506 46.936 166.044 117.27 209.1h255.455c70.334-43.055 117.27-120.593 117.27-209.1.001-135.309-109.688-244.998-244.997-244.998z" fill="#73c3f9"/><g><path d="m331.634 267.381c5.498-2.688 11.676-4.201 18.208-4.201 2.014 0 3.993.144 5.929.422 5.289.76 10.384-2.319 12.146-7.363 15.85-45.386 22.78-100.853 4.567-148.65-29.78-78.155-98.254-95.029-135.475-90.308 5.224 4.063 10.275 8.938 14.729 14.789 2.619 3.44 6.034 6.175 9.979 7.944 19.531 8.756 78.877 44 78.877 148.984.001 29.821-3.87 56.354-8.96 78.383z" fill="#fff3e1"/></g><path d="m372.484 107.589c-29.78-78.155-98.254-95.029-135.475-90.308 5.224 4.063 10.275 8.938 14.73 14.789 2.619 3.44 6.034 6.175 9.979 7.944 15.275 6.848 54.904 29.901 71.449 89.846.581-.936.999-1.956 1.229-3.068 6.944-33.504 38.088-19.203 38.088-19.203z" fill="#ffe8c2"/><path d="m333.989 266.321c4.97-21.821 8.715-47.987 8.715-77.324 0-104.984-59.346-140.227-78.877-148.984-3.945-1.769-7.36-4.504-9.979-7.944-14.923-19.604-36.54-28.313-48.936-31.892-3.704-1.07-6.82 2.905-4.929 6.266l8.432 14.99c5.472 9.729.53 21.882-10.083 25.338-.059.02-.119.039-.178.058-9.726 3.19-17.51 10.533-21.519 19.951-6.126 14.394-16.054 37.205-20.683 44.983-3.356 5.638-7.812 7.261-11.527 7.431-2.642.121-5.266.638-7.683 1.711-8.599 3.816-13.919 12.517-13.309 21.476.952 13.998 5.558 24.016 9.877 30.5 3.625 5.442 11.339 6.16 15.987 1.561l3.573-4.144c.431 1.308 2.061 4.12 4.505 5.825 4.467 3.113 12.308 1.057 16.712-2.145l24.793-17.653c4.882-3.476 10.833-5.141 16.805-4.631 7.817.667 19.419.752 28.44-3.014.786-.328 1.462.636.865 1.243-22.768 23.165-115.471 91.012-72.947 150.52 6.44 9.012 2.413 21.779-8.045 25.428-.32.112-.5.164-.5.164h179.205c-39.093-28.69-8.714-59.714-8.714-59.714z" fill="#ffd185"/><path d="m164 325.872c-.32.112-.5.164-.5.164h179.205c-14.109-10.355-19.168-21.013-19.873-30.407h-51.748c-17.187 0-31.407-13.441-32.299-30.605-3.189-61.377 30.999-130.811 30.999-130.811-7.875 7.875-25.658 14.469-25.658 14.469.786-.328 1.462.636.865 1.243-22.768 23.165-115.471 91.012-72.947 150.52 6.44 9.01 2.413 21.777-8.044 25.427z" fill="#f4bc6a"/><path d="m160.231 417.923c.598-.032 1.2-.05 1.805-.05h187.927c.607 0 1.21.018 1.81.05 1.466-3.207 3.065-6.188 4.751-8.922 11.862-19.231 13.089-44.276-1.966-66.26h-197.112c-14.814 21.633-14.073 46.632-1.966 66.26 1.687 2.734 3.285 5.715 4.751 8.922z" fill="#ffd185"/><path d="m155.48 409.001c1.687 2.734 3.285 5.715 4.751 8.922.598-.032 1.2-.05 1.805-.05h83.438c.246-.306.474-.585.677-.826.656-.781.689-1.899.112-2.741-23.781-34.724-5.6-60.382-.308-66.627.702-.829.727-2.049.025-2.879-.586-.693-1.086-1.38-1.517-2.06h-87.018c-14.813 21.634-14.072 46.632-1.965 66.261z" fill="#f4bc6a"/><path d="m354.821 324.852c-10.978 0-186.664 0-197.642 0-5.898 0-10.68 4.782-10.68 10.68s4.782 10.68 10.68 10.68h197.642c5.898 0 10.68-4.782 10.68-10.68s-4.782-10.68-10.68-10.68z" fill="#ffe8c2"/><path d="m146.499 335.533c0 5.898 4.782 10.68 10.68 10.68h89.314c0-.503-.167-1.005-.512-1.412-6.734-7.965-2.689-15.155-.205-18.288.387-.489.543-1.087.481-1.66-43.228 0-83.972 0-89.079 0-5.897-.001-10.679 4.781-10.679 10.68z" fill="#ffd185"/><path d="m349.963 415.764h-187.927c-18.57 0-33.764 15.194-33.764 33.764v26.574c9.571 5.859 19.579 11.07 29.957 15.592h195.541c10.378-4.522 20.386-9.734 29.957-15.592v-26.574c.001-18.57-15.193-33.764-33.764-33.764z" fill="#ffe8c2"/><path d="m245.976 489.035c-27.727-34.894-5.306-65.462.176-71.988.313-.373.48-.823.511-1.283h-84.626c-18.57 0-33.764 15.194-33.764 33.764v26.574c9.571 5.859 19.579 11.07 29.957 15.592h87.916c.513-.813.446-1.883-.17-2.659z" fill="#ffd185"/><path d="m155.819 490.639c30.583 13.722 64.489 21.361 100.181 21.361s69.598-7.639 100.181-21.361c-49.282 0-151.08 0-200.362 0z" fill="#fff3e1"/><path d="m246.48 490.639c-34.509 0-68.092 0-90.661 0 27.741 12.446 58.22 19.866 90.281 21.142.05-.567-.103-1.154-.494-1.635-6.763-8.323-2.192-15.332.327-18.163.342-.385.518-.859.547-1.344z" fill="#ffe8c2"/><path d="m196.201 92.99 27.931-24.667c1.662-1.468 4.222.1 3.669 2.248l-5.179 20.125c-.944 3.668-4.251 6.232-8.039 6.232h-16.893c-2.072 0-3.042-2.566-1.489-3.938z" fill="#ffe8c2"/><path d="m40.925 149.591c-19.073 34.864-29.923 74.869-29.923 117.411 0 51.357 15.807 99.02 42.816 138.397 66.136-28.026 77.649-94.006 69.568-156.346-7.882-60.819-51.845-88.007-82.461-99.462z" fill="#9bd8f9"/><path d="m500.998 267.002c0-45.343-12.332-87.799-33.805-124.225-23.048 15.24-49.409 44.31-49.409 97.565 0 85.09-57.243 124.392 12.967 198.354 43.443-44.206 70.247-104.816 70.247-171.694z" fill="#9bd8f9"/><path d="m208.415 21.434c4.668 8.299 1.754 18.357-5.789 23.281 18.216-1.502 33.252.33 30.42-8.753-5.405-17.333-33.062-29.519-33.062-29.519z" fill="#f4bc6a"/></g></svg>