<svg id="Layer_1" enable-background="new 0 0 512 512" height="512" viewBox="0 0 512 512" width="512" xmlns="http://www.w3.org/2000/svg"><g><path d="m256 22.004c-135.308 0-244.998 109.69-244.998 244.998 0 101.012 61.136 187.734 148.419 225.214h193.157c87.283-37.48 148.419-124.202 148.419-225.213.001-135.309-109.689-244.999-244.997-244.999z" fill="#5c45bf"/><path d="m276.746 67.055c-5.932 3.978-13.067 6.3-20.746 6.3-7.678 0-14.813-2.322-20.745-6.3-13.946 44.81-56.316 63.191-56.316 63.191h154.124c-.001 0-42.372-18.381-56.317-63.191z" fill="#ffd185"/><path d="m252.99 124.351c-12.272-21.3-2.847-40.529 1.304-47.23.714-1.153 1.116-2.455 1.191-3.785-7.481-.102-14.433-2.393-20.231-6.281-13.946 44.81-56.317 63.191-56.317 63.191h74.863c.485-1.966.233-4.086-.81-5.895z" fill="#f4bc6a"/><path d="m371.316 151.025-22.341-16.59c-4.757-3.532-10.525-5.44-16.45-5.44h-153.049c-5.926 0-11.693 1.907-16.451 5.44l-22.341 16.589c-3.948 2.932-6.097 6.87-6.496 11.055l121.812 2.345 121.812-2.343c-.399-4.187-2.548-8.124-6.496-11.056z" fill="#ffe8c2"/><path d="m254.009 128.996h-74.534c-5.926 0-11.694 1.907-16.451 5.44l-22.341 16.589c-3.948 2.932-6.097 6.87-6.496 11.055l118.96 2.288c.775-2.334.432-4.938-1.02-7.051-7.088-10.316-3.043-19.431.467-24.383.836-1.18 1.3-2.546 1.415-3.938z" fill="#ffd185"/><path d="m377.793 161.923c-40.826 0-178.417 0-243.586 0-.412 3.869.62 8.74 5.068 14.373 15.207 17.911 38.797 50.578 44.7 86.559.455-.042.914-.07 1.379-.07h141.291c.466 0 .924.028 1.379.07 5.902-35.981 29.493-68.648 44.7-86.559 4.449-5.634 5.481-10.504 5.069-14.373z" fill="#ffd185"/><path d="m139.275 176.296c15.207 17.911 38.797 50.578 44.7 86.559.455-.042.914-.07 1.379-.07h68.193c.349-1.881.035-3.852-1.023-5.522-4.431-6.99-2.35-13.123.058-16.94 1.637-2.596 1.528-5.868-.143-8.442-4.555-7.016-2.61-12.972-.183-16.728 1.822-2.82 1.795-6.415-.125-9.17-12.251-17.582-5.24-32.332-.083-39.462.997-1.379 1.497-2.986 1.505-4.598-44.13 0-89.389 0-119.346 0-.412 3.869.62 8.739 5.068 14.373z" fill="#f4bc6a"/><path d="m169.999 478.404c-3.841 4.366-7.36 8.989-10.577 13.811 29.635 12.726 62.281 19.785 96.578 19.785s66.943-7.059 96.579-19.784c-3.217-4.823-6.737-9.445-10.577-13.811-15.533-17.655-24.654-38.565-29.987-56.304-6.6-21.956-3.357-45.696 8.6-65.257l6.031-9.866h-141.292l6.031 9.866c11.957 19.561 15.2 43.301 8.6 65.257-5.332 17.738-14.454 38.649-29.986 56.303z" fill="#ffd185"/><path d="m277.32 395.328h31.429c.649-13.474 4.682-26.734 11.865-38.485l6.031-9.866h-141.291l6.031 9.866c11.957 19.561 15.2 43.301 8.6 65.257-5.333 17.739-14.454 38.65-29.987 56.304-3.841 4.366-7.36 8.989-10.577 13.811 19.006 8.161 39.254 13.977 60.378 17.109 25.466-28.196 32.826-68.881 34.877-93.257.988-11.74 10.862-20.739 22.644-20.739z" fill="#f4bc6a"/><path d="m343.054 236.209h-174.108c-6.993 0-12.663-5.669-12.663-12.663 0-6.993 5.669-12.663 12.663-12.663h174.108c6.994 0 12.663 5.669 12.663 12.663 0 6.994-5.67 12.663-12.663 12.663z" fill="#ffe8c2"/><path d="m253.576 210.883h-84.63c-6.993 0-12.663 5.669-12.663 12.663s5.669 12.663 12.663 12.663h84.799c-.01-1.503-.449-3.007-1.306-4.328-4.555-7.016-2.61-12.972-.183-16.728.846-1.31 1.275-2.787 1.32-4.27z" fill="#ffd185"/><path d="m326.646 261.534h-141.292c-8.253 0-15.004 6.752-15.004 15.004v13.338h171.3v-13.338c0-8.252-6.752-15.004-15.004-15.004z" fill="#ffe8c2"/><path d="m252.418 283.006c-4.636-7.199-2.534-13.395-.043-17.255.828-1.283 1.273-2.748 1.312-4.216h-68.333c-8.253 0-15.004 6.752-15.004 15.004v13.338h82.778c.822-2.253.623-4.801-.71-6.871z" fill="#ffd185"/><path d="m326.646 348.227h-141.292c-8.253 0-15.004-6.752-15.004-15.004v-13.338h171.3v13.338c0 8.252-6.752 15.004-15.004 15.004z" fill="#ffe8c2"/><path d="m170.35 333.223c0 8.253 6.752 15.004 15.004 15.004h70.032c-.291-.7-.677-1.361-1.164-1.953-6.466-7.864-4.266-15.127-1.639-19.531 1.257-2.108 1.462-4.63.638-6.858h-82.871z" fill="#ffd185"/><path d="m338.212 322.386h-164.424c-9.668 0-17.505-7.837-17.505-17.505 0-9.668 7.837-17.505 17.505-17.505h164.423c9.668 0 17.505 7.837 17.505 17.505.001 9.668-7.837 17.505-17.504 17.505z" fill="#fff3e1"/><path d="m156.283 304.881c0 9.668 7.837 17.505 17.505 17.505h79.926c-.046-1.547-.539-3.077-1.486-4.385-8.053-11.123-3.88-20.863-.081-26.227.93-1.313 1.427-2.851 1.472-4.398h-79.831c-9.667 0-17.505 7.837-17.505 17.505z" fill="#ffe8c2"/><ellipse cx="256" cy="37.303" fill="#ffe8c2" rx="37.303" ry="37.302" transform="matrix(.122 -.993 .993 .122 187.748 286.84)"/><path d="m122.688 274.705c20.873-66.425-38.521-110.804-77.784-132.092-21.532 36.462-33.902 78.978-33.902 124.389 0 82.196 40.483 154.928 102.593 199.367 76.098-69.27-18.194-104.827 9.093-191.664z" fill="#7255ce"/><path d="m467.096 142.613c-39.263 21.288-98.657 65.667-77.784 132.092 27.287 86.836-67.005 122.394 9.092 191.664 62.111-44.439 102.594-117.171 102.594-199.367 0-45.411-12.37-87.927-33.902-124.389z" fill="#7255ce"/><ellipse cx="263.445" cy="29.328" fill="#fff3e1" rx="13.667" ry="13.667" transform="matrix(.999 -.056 .056 .999 -1.221 14.653)"/></g></svg>