<svg id="Layer_1" enable-background="new 0 0 512 512" height="512" viewBox="0 0 512 512" width="512" xmlns="http://www.w3.org/2000/svg"><g><path d="m256 22.005c-135.309 0-244.998 109.689-244.998 244.998 0 90.891 49.495 170.222 123.002 212.511l243.997-.003c73.504-42.29 122.996-121.619 122.996-212.508.001-135.309-109.688-244.998-244.997-244.998z" fill="#965b27"/><path d="m330.004 301.216c-116.115 0-42.331 0-148.007 0 0 0 66.887 30.971-29.377 146.855h206.76c-96.264-115.885-29.376-146.855-29.376-146.855z" fill="#ffd185"/><path d="m330.004 301.216c-116.115 0-42.331 0-148.007 0 0 0 66.887 30.971-29.376 146.855h71.258c.241-.233.465-.438.658-.606.542-.473 1.004-1.024 1.357-1.65 15.709-27.829 23.75-61.311 27.433-81.146 1.849-9.956 10.551-17.163 20.677-17.163h33.517c-2.155-34.879 22.483-46.29 22.483-46.29z" fill="#f4bc6a"/><path d="m134.004 479.513c35.922 20.666 77.579 32.487 121.996 32.487 44.42 0 86.078-11.822 122.002-32.49-1.803-3.967-3.999-7.891-6.63-11.734h-230.738c-2.625 3.834-4.823 7.759-6.63 11.737z" fill="#ffd185"/><path d="m134.004 479.513c24.989 14.376 52.756 24.466 82.294 29.28-5.229-16.253 1.158-27.761 5.546-33.27 1.714-2.152 1.863-5.18.271-7.423-.077-.109-.143-.215-.217-.323h-81.264c-2.626 3.833-4.823 7.758-6.63 11.736z" fill="#f4bc6a"/><path d="m371.679 446.836c-12.851 0-218.507 0-231.358 0-6.905 0-12.502 5.597-12.502 12.502s5.597 12.502 12.502 12.502h231.358c6.905 0 12.502-5.597 12.502-12.502 0-6.904-5.597-12.502-12.502-12.502z" fill="#ffe8c2"/><path d="m140.321 446.836c-6.904 0-12.502 5.597-12.502 12.502s5.597 12.502 12.502 12.502h82.899c.052-1.305-.309-2.621-1.104-3.741-7.527-10.605-.107-18.43 2.421-20.634.222-.193.42-.409.613-.629-42.819 0-79.626 0-84.829 0z" fill="#ffd185"/><path d="m271.88 127.926c-4.882 4.882-12.798 4.882-17.681 0-4.882-4.882-4.882-12.798 0-17.681 2.658-2.658 16.986-16.986 36.149-36.149 4.917-4.917 5.14-12.826.5-18.006l-13.384-14.94h-42.93l-33.532 37.43c-28.129 31.399-30.87 76.97-9.057 111.12h128.107c17.355-27.171 19.16-61.569 5.005-90.309-3.986-8.093-14.69-9.954-21.069-3.575-17.116 17.117-29.64 29.642-32.108 32.11z" fill="#ffd185"/><path d="m325.117 180.662c-55.939 3.993-53.238-52.736-53.238-52.736-4.882 4.882-12.798 4.882-17.68 0-4.883-4.882-4.883-12.798 0-17.681-39.69 4.329-42.88-43.18-42.88-43.18l-10.315 11.515c-28.129 31.399-30.87 76.97-9.058 111.12h128.108c1.873-2.932 3.553-5.953 5.063-9.038z" fill="#f4bc6a"/><path d="m273.358 0h-34.72c-12.377 0-22.504 10.127-22.504 22.503 0 12.377 10.127 22.504 22.504 22.504h34.72c12.377 0 22.503-10.127 22.503-22.504 0-12.376-10.126-22.503-22.503-22.503z" fill="#fff3e1"/><path d="m255.998 22.503c0-11.507 8.755-21.064 19.932-22.351-.845-.097-1.702-.152-2.572-.152h-34.72c-12.377 0-22.504 10.127-22.504 22.503 0 12.377 10.127 22.504 22.504 22.504h34.72c.87 0 1.727-.055 2.572-.153-11.177-1.287-19.932-10.843-19.932-22.351z" fill="#ffe8c2"/><path d="m142.155 380.978c21.806-58.137-78.028-92.519-24.028-191.278 26.831-49.07 5.218-95.336-9.745-118.232-59.151 44.726-97.38 115.661-97.38 195.534 0 58.566 20.554 112.328 54.837 154.478 28.681 2.429 62.486-3.633 76.316-40.502z" fill="#af713b"/><path d="m403.622 71.471c-14.962 22.897-36.572 69.161-9.742 118.229 54 98.759-45.835 133.141-24.028 191.278 13.828 36.867 47.629 42.93 76.309 40.503 34.283-42.15 54.837-95.912 54.837-154.478 0-79.871-38.227-150.806-97.376-195.532z" fill="#af713b"/><path d="m338.365 205.748c0-9.545-7.738-17.283-17.283-17.283h-130.165c-9.545 0-17.283 7.738-17.283 17.283s7.738 17.283 17.283 17.283h130.165c9.546 0 17.283-7.738 17.283-17.283z" fill="#fff3e1"/><path d="m253.495 188.465h-62.577c-9.545 0-17.283 7.738-17.283 17.283s7.738 17.283 17.283 17.283h59.666c.651-1.135 1.395-2.143 2.12-2.997 1.573-1.854 1.479-4.553-.198-6.314-8.712-9.142-4.136-17.403-.197-21.837.87-.981 1.255-2.216 1.186-3.418z" fill="#ffe8c2"/><path d="m345.793 216.858h-179.586c-8.147 0-14.814 6.666-14.814 14.814v13.168h209.213v-13.168c0-8.148-6.666-14.814-14.813-14.814z" fill="#ffe8c2"/><path d="m252.791 239.362c-7.272-8.067-3.462-15.35-.087-19.329.783-.923 1.151-2.054 1.119-3.175h-87.615c-8.148 0-14.814 6.666-14.814 14.814v13.168h101.874c1.039-1.718.904-3.945-.477-5.478z" fill="#ffd185"/><path d="m331.23 302.45h-150.46c-8.148 0-14.814-6.666-14.814-14.814v-13.168h180.087v13.168c0 8.148-6.666 14.814-14.813 14.814z" fill="#ffe8c2"/><path d="m165.956 287.636c0 8.148 6.666 14.814 14.814 14.814h74.362c-.144-.716-.447-1.402-.916-1.995-6.577-8.293-3.027-16.547-.336-20.72 1.048-1.626.914-3.715-.207-5.267h-87.717z" fill="#ffd185"/><path d="m357.212 276.937h-202.424c-9.545 0-17.283-7.738-17.283-17.283 0-9.545 7.738-17.283 17.283-17.283h202.424c9.545 0 17.283 7.738 17.283 17.283-.001 9.545-7.738 17.283-17.283 17.283z" fill="#fff3e1"/><path d="m137.505 259.654c0 9.545 7.738 17.283 17.283 17.283h99.798c-.07-.988-.45-1.959-1.117-2.755-10.952-13.066-4.981-23.685-.665-28.695.771-.895 1.155-2.009 1.147-3.116h-99.163c-9.545 0-17.283 7.738-17.283 17.283z" fill="#ffe8c2"/></g></svg>