<svg id="Layer_1" enable-background="new 0 0 512 512" height="512" viewBox="0 0 512 512" width="512" xmlns="http://www.w3.org/2000/svg"><g><path d="m411.741 55.865c-42.335-34.901-96.59-55.865-155.741-55.865-135.309 0-244.998 109.689-244.998 244.998s109.689 244.998 244.998 244.998 244.998-109.689 244.998-244.998c0-21.243-2.707-41.852-7.789-61.507z" fill="#73c3f9"/><path d="m190.399 179.163-38.068 55.432s9.563 20.413 29.678 65.376 74.068 38.354 74.068 38.354c34.055-.928 58.736-4.667 61.36-20.158 2.458-14.516-11.601-20.29-11.601-20.29-7.752-3.124-17.572-5.557-27.924-7.452l-39.623-42.758s35.889-28.94 49.146-53.53c13.258-24.591-9.442-31.533-9.442-31.533-46.708-30.902-87.594 16.559-87.594 16.559z" fill="#fd995b"/><g><path d="m265.889 168.488c-13.257 24.591-49.146 53.53-49.146 53.53l22.809 24.613c6.469-5.37 36.106-30.647 47.884-52.493 13.258-24.591-9.442-31.533-9.442-31.533-2.775-1.837-5.53-3.388-8.257-4.697-.513 3.099-1.705 6.605-3.848 10.58z" fill="#f48a4e"/></g><path d="m411.741 55.865-74.757 22.182c-3.156.945-6.462 1.263-9.743.973-39.618-3.493-86.76-5.708-127.274 1.438-8.037 1.418-15.61 4.729-22.164 9.594-12.744 9.459-34.67 26.938-39.706 38.674-14.275 33.266-46.971 70.839-38.434 99.351 12.445 41.559 66.143 131.152 89.185 124.252 4.262-1.277 7.64-4.455 8.593-10.805l-.724-16.684c-4.016-26.124-24.507-66.497-32.693-81.869-2.141-4.021-1.944-8.88.535-12.702 6.26-9.652 16.843-23.398 23.034-33.191 15.878-25.118 42.876-39.261 72.215-33.213 6.745 1.39 12.779 2.547 16.615 4.626 0 0 15.568 6.965 9.33 18.539l-26.763 36.613c-3.579 2.9-63.676 42.459-62.315 80.031l55.415-.258c.779-.405 1.553-.809 2.364-1.229 16.29-8.495 33.344-16.948 43.369-19.95 16.708-5.004 59.492-35.857 76.857-55.986 5.729-6.641 13.229-11.509 21.632-14.025l96.896-28.736c-13.135-50.808-42.163-95.223-81.467-127.625z" fill="#f9ba8f"/><path d="m423.093 204.285c-103.08-32.502-50.842-136.698-50.839-136.703l-35.268 10.465c-3.156.945-6.462 1.263-9.743.973-39.618-3.493-86.76-5.708-127.274 1.438-8.037 1.418-15.61 4.729-22.163 9.594-12.744 9.459-34.67 26.938-39.706 38.674-14.275 33.266-46.971 70.839-38.434 99.351 12.445 41.559 66.143 131.152 89.186 124.252 4.262-1.276 7.64-4.455 8.593-10.805l-.724-16.684c-4.016-26.124-24.507-66.497-32.693-81.869-2.141-4.021-1.944-8.88.535-12.702 6.26-9.652 16.843-23.398 23.034-33.191 15.879-25.118 42.876-39.26 72.215-33.213 6.745 1.39 12.779 2.547 16.615 4.626 0 0 15.568 6.965 9.33 18.539l-26.763 36.613c-3.579 2.899-63.676 42.459-62.315 80.031l55.415-.258c.779-.405 1.553-.809 2.364-1.229 16.29-8.495 33.344-16.948 43.369-19.95 16.708-5.003 59.492-35.857 76.857-55.986 5.729-6.641 13.229-11.509 21.632-14.025z" fill="#fcad6d"/><path d="m205.734 339.627c-52.696-10.384-19.211-3.786-67.17-13.236 0 0 27.586 20.037-26.465 64.02 22.499 4.434 79.608 15.687 93.834 18.491-33.324-61.201-.199-69.275-.199-69.275z" fill="#af713b"/><path d="m145.202 396.532c.174-.094.342-.203.494-.33 10.367-8.659 16.265-20.367 19.425-28.862 2.33-6.262 8.923-9.843 15.459-8.457l10.571 2.24c1.138-18.212 14.583-21.495 14.583-21.495-52.696-10.384-19.211-3.785-67.17-13.236 0 0 27.586 20.037-26.465 64.02 7.788 1.535 19.724 3.887 32.592 6.422.202-.127.381-.232.511-.302z" fill="#965b27"/><path d="m98.506 438.514c.321.046.642.099.964.163l99.836 19.673c.323.064.641.136.956.216 1.115-1.55 2.276-2.966 3.458-4.243 8.315-8.975 11.588-22.151 5.892-35.407l-104.716-20.635c-10.135 9.942-12.358 23.3-7.981 34.995.611 1.63 1.148 3.381 1.591 5.238z" fill="#af713b"/><path d="m96.916 433.277c.61 1.629 1.147 3.38 1.59 5.237.321.046.643.099.964.162l40.236 7.929c.516-.841.551-1.917.049-2.804-9.808-17.329-1.563-30.545 1.726-34.745.662-.845.746-2.002.262-2.96-.105-.207-.177-.404-.261-.605l-36.584-7.209c-10.136 9.942-12.359 23.3-7.982 34.995z" fill="#965b27"/><path d="m211.625 409.441c-5.832-1.149-99.165-19.541-104.998-20.69-3.133-.617-6.174 1.422-6.792 4.556s1.422 6.174 4.556 6.792c5.832 1.149 99.165 19.541 104.998 20.69 3.133.617 6.174-1.422 6.792-4.556.617-3.133-1.422-6.174-4.556-6.792z" fill="#c7874e"/><path d="m106.628 388.751c-3.134-.617-6.174 1.422-6.792 4.556s1.422 6.175 4.556 6.792c2.327.458 18.58 3.661 37.645 7.418.023-.482-.067-.973-.293-1.421-2.883-5.703 2.239-8.902 3.459-9.565.073-.04.137-.094.207-.139-19.555-3.852-36.41-7.173-38.782-7.641z" fill="#af713b"/><path d="m194.853 255.785c-2.652 1.779-6.245 1.071-8.024-1.581s-1.071-6.245 1.581-8.024c1.444-.969 9.228-6.19 19.639-13.173 2.671-1.792 3.48-5.361 1.837-8.127l-4.738-7.977-19.483-3.839-18.565 13.988c-15.574 11.734-20.893 32.171-14.048 49.62l58.139 11.457c10.306-10.779 14.202-26.228 10.348-40.537-1.085-4.029-5.777-5.831-9.242-3.507-9.299 6.236-16.103 10.8-17.444 11.7z" fill="#af713b"/><path d="m199.527 457.23-99.836-19.673c-9.865-1.944-19.528 4.537-21.472 14.402l-4.414 22.401 135.711 26.742 4.414-22.401c1.944-9.865-4.537-19.527-14.403-21.471z" fill="#c7874e"/><path d="m134.028 483.808c-9.473-19.202 1.12-32.497 5.3-36.709.435-.439.693-.998.766-1.581l-40.404-7.962c-9.865-1.944-19.528 4.537-21.472 14.402l-4.414 22.401 60.232 11.869c.357-.754.379-1.637-.008-2.42z" fill="#af713b"/><path d="m209.626 500.542c-5.832-1.149-129.878-25.593-135.711-26.743-3.134-.618-6.174 1.422-6.792 4.556s1.422 6.174 4.556 6.792c5.832 1.149 129.878 25.593 135.711 26.742 3.133.617 6.174-1.422 6.792-4.556.617-3.133-1.422-6.174-4.556-6.791z" fill="#e29b61"/><path d="m134.23 485.685c-29.787-5.87-57.624-11.355-60.314-11.885-3.133-.618-6.174 1.422-6.792 4.556s1.422 6.174 4.556 6.792c2.695.531 30.624 6.035 60.47 11.916.116-.54.078-1.115-.143-1.651-1.727-4.215-.056-6.908 1.422-8.326.408-.393.675-.882.801-1.402z" fill="#c7874e"/><path d="m206.964 197.86-15.757-3.105c-5.617-1.107-11.118 2.583-12.225 8.2-1.107 5.617 2.583 11.118 8.2 12.225l15.757 3.105c5.617 1.107 11.118-2.583 12.225-8.2 1.107-5.617-2.583-11.118-8.2-12.225z" fill="#e29b61"/><path d="m403.414 273.207c-18.282 49.514-57.786 76.579-91.07 91.106-45.637 19.919-73.119 67.232-68.287 116.791.279 2.863.633 5.745 1.056 8.638 3.611.158 7.238.254 10.887.254 135.309 0 244.998-109.689 244.998-244.998 0-6.53-.258-12.999-.76-19.399-31.82-11.919-74.347-13.265-96.824 47.608z" fill="#9bd8f9"/><path d="m11.002 244.998c0 47.255 13.392 91.375 36.568 128.8 40.518-9.938 43.966-55.527 26.235-97.931-20.037-47.921-8.963-88.079 20.979-140.079 18.629-32.353 10.035-58.703-.202-75.082-51.227 44.905-83.58 110.817-83.58 184.292z" fill="#9bd8f9"/><path d="m201.659 196.814-10.451-2.059c-5.617-1.107-11.118 2.583-12.225 8.2s2.583 11.118 8.201 12.225l12.035 2.372c-.099-.165-.201-.332-.313-.505-7.39-11.374.64-18.608 2.753-20.233z" fill="#c7874e"/><path d="m218.67 277.351c-24.651-2.054-23.817-21.566-23.817-21.566-2.652 1.779-6.245 1.071-8.024-1.581-1.779-2.653-1.071-6.245 1.581-8.024-18.766-4.275-14.522-24.242-14.522-24.242l-6.788 5.114c-15.574 11.734-20.893 32.171-14.048 49.62l58.139 11.456c3.083-3.224 5.579-6.872 7.479-10.777z" fill="#965b27"/><path d="m218.067 297.049c.854-4.332-1.966-8.535-6.298-9.389l-59.073-11.641c-4.332-.854-8.535 1.966-9.389 6.298s1.966 8.535 6.298 9.389l59.073 11.641c4.331.853 8.535-1.967 9.389-6.298z" fill="#e29b61"/><path d="m152.696 276.019c-4.332-.854-8.536 1.966-9.389 6.298-.854 4.332 1.966 8.536 6.298 9.389l27.904 5.499c.44-.696.914-1.269 1.305-1.686.462-.493.558-1.225.238-1.82-3.128-5.808.263-9.717 2.009-11.221.242-.208.396-.482.475-.776z" fill="#c7874e"/><path d="m220.444 302.755-81.502-16.06c-3.698-.729-7.319 1.701-8.048 5.398l-1.178 5.976 94.947 18.71 1.178-5.976c.73-3.698-1.699-7.32-5.397-8.048z" fill="#c7874e"/><g fill="#af713b"><path d="m176.5 307.143c.646-.44.886-1.304.531-2-2.267-4.446.333-8.079 1.782-9.624.235-.25.373-.562.412-.886l-40.283-7.938c-3.698-.729-7.319 1.701-8.048 5.398l-1.177 5.976 46.623 9.188c.053-.037.11-.08.16-.114z"/><path d="m206.18 340.297-68.283-13.456c-3.698-.729-6.127-4.35-5.398-8.048l1.178-5.976 81.729 16.105-1.178 5.976c-.728 3.698-4.35 6.128-8.048 5.399z"/><path d="m132.499 318.793c-.729 3.698 1.7 7.319 5.398 8.048l33.593 6.62c-3.698-4.758-.367-8.975 1.427-10.713.528-.511.63-1.315.254-1.947-.046-.077-.075-.149-.119-.225l-39.376-7.759z"/></g><path d="m220.253 331.042-91.866-18.103c-4.332-.854-7.152-5.057-6.298-9.389.854-4.332 5.057-7.151 9.389-6.298l91.866 18.103c4.332.854 7.151 5.057 6.298 9.389-.853 4.332-5.057 7.151-9.389 6.298z" fill="#e29b61"/><path d="m131.479 297.252c-4.332-.854-8.536 1.966-9.389 6.298s1.966 8.535 6.298 9.389l44.995 8.867c.041-.34-.026-.693-.211-1.004-4.333-7.281.782-11.924 3.329-13.658.32-.218.538-.54.636-.894z" fill="#c7874e"/><path d="m252.092 303.416c.779-.405 1.553-.809 2.364-1.229 44.846-23.386 40.185-17.34 49.26-22.708l-24.858-83.014-19.866 27.177c-3.578 2.899-63.675 42.459-62.315 80.031z" fill="#fcad6d"/><path d="m198.156 312.185c.031.103-.576-1.733-.894-3.325-.336-1.722-.523-3.452-.586-5.186 0 0 35.227-39.459 55.415-.258-35.122 18.279-38.419 21.371-43.173 20.172-5.152-1.207-9.006-6.287-10.762-11.403z" fill="#fff3e1"/></g></svg>