<svg id="Layer_1" enable-background="new 0 0 512 512" height="512" viewBox="0 0 512 512" width="512" xmlns="http://www.w3.org/2000/svg"><g><path d="m412.128 56.188-108.428-51.532c-15.43-3.045-31.376-4.656-47.7-4.656s-32.27 1.611-47.701 4.656l-108.427 51.532c-54.284 44.938-88.87 112.834-88.87 188.81 0 135.309 109.689 244.998 244.998 244.998s244.998-109.689 244.998-244.998c0-75.977-34.587-143.872-88.87-188.81z" fill="#73c3f9"/><path d="m206.032 177.205 34.564-53.754-63.73-110.383c-18.195 6.207-35.421 14.5-51.405 24.584z" fill="#e0f5fc"/><path d="m215.109 79.307c-1.537 1.909-2.503 4.248-2.663 6.796-.676 10.717-4.872 29.023-24.308 40.086-3.385 1.926-5.717 5.21-6.395 8.947l24.288 42.069 34.564-53.753z" fill="#c5ebfc"/><path d="m186.91 206.942 20.078-31.224-80.193-138.898c-9.418 5.857-18.416 12.325-26.923 19.367z" fill="#ff4155"/><path d="m163.467 166.338 23.443 40.605 20.078-31.224-24.659-42.71c-.54 1.461-.822 3.029-.789 4.643.166 8.269-2.42 21.134-18.073 28.686z" fill="#e80054"/><path d="m175.358 13.6 64.282 111.339 20.078-31.224-51.418-89.059c-11.279 2.226-22.277 5.227-32.942 8.944z" fill="#ff4155"/><path d="m239.64 124.939 20.078-31.224-25.401-43.996c-.438 1.167-.713 2.401-.811 3.666-.502 6.487-2.959 17.54-13.515 22.195-2.492 1.099-4.537 2.912-5.872 5.154z" fill="#e80054"/><path d="m285.259 268.359c-2.567-.556-4.778-2.279-5.736-4.725-3.359-8.578-11.261-14.604-20.48-14.604-9.218 0-17.12 6.025-20.479 14.603-.958 2.447-3.171 4.169-5.74 4.726-55.398 12.005-96.913 61.264-97 120.236-.098 67.107 54.294 122.419 121.393 123.39 68.888.997 125.044-54.546 125.044-123.205.001-59.054-41.545-108.404-97.002-120.421z" fill="#ffdd40"/><path d="m230.195 337.785c-.54-.878-1.416-1.469-2.409-1.747-4.434-1.241-5.411-4.958-5.525-7.55-.07-1.593-1.131-2.943-2.629-3.486-9.28-3.366-10.188-11.279-9.876-15.803.124-1.804-1.032-3.481-2.776-3.959-11.403-3.123-12.375-14.275-12.214-19.27.023-.725-.159-1.42-.497-2.027-35.029 21.688-58.381 60.44-58.445 104.653-.098 67.106 54.294 122.419 121.393 123.39.498.007.992.001 1.488.003-.16-.367-.367-.714-.639-1.016-8.779-9.743-4.009-19.311-.952-23.612.984-1.383.971-3.271-.065-4.616-7.01-9.097-1.308-17.351 1.072-20.122.599-.698.923-1.583.927-2.503l.35-73.719c.004-.727-.196-1.44-.577-2.059z" fill="#ffc839"/><ellipse cx="259.043" cy="388.781" fill="#ffc839" rx="96.219" ry="96.219" transform="matrix(.707 -.707 .707 .707 -199.038 297.043)"/><path d="m230.195 337.785c-.54-.878-1.416-1.469-2.409-1.747-4.434-1.241-5.411-4.958-5.525-7.55-.07-1.593-1.131-2.943-2.629-3.486-9.28-3.366-10.188-11.279-9.876-15.803.065-.943-.226-1.846-.762-2.566-27.667 16.918-46.17 47.412-46.17 82.148 0 52.652 42.511 95.554 95.012 96.204-.021-.795-.279-1.582-.785-2.239-7.01-9.097-1.308-17.351 1.072-20.122.599-.698.923-1.583.927-2.503l.35-73.719c.004-.727-.196-1.44-.577-2.059z" fill="#ffb332"/><path d="m259.043 315.924c-40.174 0-72.857 32.684-72.857 72.857 0 25.457 13.133 47.892 32.97 60.924h79.774c19.837-13.032 32.971-35.467 32.971-60.924 0-40.173-32.684-72.857-72.858-72.857z" fill="#fce99a"/><path d="m230.195 337.785c-.54-.878-1.416-1.469-2.409-1.747-4.434-1.241-5.411-4.958-5.525-7.55-.034-.789-.313-1.517-.767-2.118-21.141 12.767-35.309 35.964-35.309 62.411 0 25.457 13.133 47.892 32.97 60.924h39.945l.301-63.303c.004-.727-.196-1.44-.577-2.059z" fill="#ffdd40"/><path d="m229.056 441.095c.187-.01.376-.016.565-.016h58.845c.19 0 .379.006.567.016.459-1.004.96-1.938 1.488-2.794 3.714-6.022 4.098-13.864-.616-20.748h-61.722c-4.639 6.774-4.407 14.602-.616 20.748.529.856 1.029 1.79 1.489 2.794z" fill="#ffa219"/><path d="m227.568 438.301c.528.856 1.029 1.79 1.488 2.794.187-.01.376-.016.565-.016h23.433c-.042-1.029-.381-2.035-1.034-2.871-8.195-10.497.414-19.568.414-19.568l-.824-1.087h-23.425c-4.64 6.774-4.408 14.602-.617 20.748z" fill="#ff9100"/><path d="m288.466 440.419h-58.845c-5.379 0-9.845 4.073-10.485 9.286 11.471 7.54 25.185 11.934 39.908 11.934s28.437-4.394 39.908-11.934c-.642-5.213-5.107-9.286-10.486-9.286z" fill="#ffb332"/><path d="m252.721 443.165c.335-.889.417-1.839.262-2.746h-23.363c-5.379 0-9.845 4.074-10.485 9.286 11.471 7.54 25.185 11.933 39.908 11.933-9.737-5.159-8.003-14.009-6.322-18.473z" fill="#ffa219"/><g><path d="m248.543 204.942v48.891c0 5.775 4.725 10.5 10.5 10.5s10.5-4.725 10.5-10.5v-48.891c-6.972 0-14.028 0-21 0z" fill="#fce99a"/></g><path d="m348.949 194.316c-6.489 0-173.323 0-179.812 0-3.487 0-6.313 2.827-6.313 6.313 0 3.487 2.826 6.313 6.313 6.313h17.773s9.393-6.313 22.726-6.313 104 0 104 0 5.755.615 11.453 6.313h23.86c3.486 0 6.313-2.826 6.313-6.313 0-3.486-2.826-6.313-6.313-6.313z" fill="#ffdd40"/><path d="m223.201 206.942h65.599l97.739-169.289c-15.984-10.084-33.21-18.378-51.405-24.585z" fill="#e0f5fc"/><path d="m303.477 177.205c-13.618 0-22.059-14.822-15.111-26.535l74.768-126.034c-9.039-4.405-18.379-8.287-28-11.568l-111.933 193.874h65.599l17.169-29.737z" fill="#c5ebfc"/><path d="m385.204 36.82-98.22 170.122h38.105l87.038-150.755c-8.507-7.042-17.505-13.509-26.923-19.367z" fill="#ff7186"/><path d="m304.153 177.205-17.169 29.737h38.105l17.169-29.737z" fill="#ff4155"/><path d="m303.7 4.656-116.79 202.286h38.105l111.627-193.342c-10.665-3.717-21.663-6.718-32.942-8.944z" fill="#ff4155"/><path d="m500.998 244.998c0-52.428-16.475-101.004-44.521-140.848-33.677 37.742-116.219 138.576-75.889 178.906 41.724 41.725 48.23 99.58 29.003 152.807 55.736-44.909 91.407-113.716 91.407-190.865z" fill="#a4d9f7"/><path d="m58.232 100.393c-29.687 40.53-47.229 90.516-47.229 144.605 0 81.063 39.378 152.917 100.039 197.512-22.255-55.01-17.012-115.986 26.457-159.454 41.755-41.755-48.199-148.365-79.267-182.663z" fill="#a4d9f7"/><g><path d="m276.579 369.751h-35.071c3.833 3.67 9.42 19.01-10.119 42.531h55.308c-19.538-23.52-13.951-38.86-10.118-42.531z" fill="#ffa219"/><path d="m252.579 411.771c4.367-9.15 6.134-20.15 6.827-26.48.323-2.95 2.818-5.181 5.786-5.181h7.631c.272-5.297 2.164-8.834 3.756-10.358h-35.071c3.833 3.67 9.42 19.01-10.119 42.531h20.796c.071-.084.133-.153.183-.206.087-.091.157-.193.211-.306z" fill="#ff9100"/><path d="m279.167 370.082h-40.247c-2.179 0-3.963-1.783-3.963-3.963v-3.523h48.173v3.523c0 2.18-1.784 3.963-3.963 3.963z" fill="#ffb332"/><path d="m261.492 362.927c-.334-.095-.637-.207-.914-.33h-25.621v3.523c0 2.18 1.783 3.963 3.963 3.963h22.572c-3.528-3.53 0-7.156 0-7.156z" fill="#ffa219"/><path d="m281.058 337.43v2.121c0 .6-.486 1.086-1.086 1.086h-6.633c-.6 0-1.086-.486-1.086-1.086v-2.121c0-.6-.486-1.086-1.086-1.086h-6.633c-.6 0-1.086.486-1.086 1.086v2.121c0 .6-.486 1.086-1.086 1.086h-6.634c-.6 0-1.086-.486-1.086-1.086v-2.121c0-.6-.486-1.086-1.086-1.086h-6.633c-.6 0-1.086.486-1.086 1.086v2.121c0 .6-.486 1.086-1.086 1.086h-6.633c-.6 0-1.086-.486-1.086-1.086v-2.121c0-.6-.486-1.086-1.086-1.086h-6.633c-.6 0-1.086.486-1.086 1.086 0 .577 0 21.827 0 21.792 0 2.046 1.659 3.704 3.704 3.704h54.232c2.046 0 3.705-1.658 3.705-3.704 0-.85 0-22.435 0-21.792 0-.6-.486-1.086-1.086-1.086h-6.634c-.604 0-1.09.486-1.09 1.086z" fill="#ffc839"/><path d="m257.743 358.877s0-9.174 0-13.623c0-4.448 4.617-4.617 4.617-4.617h-6.634c-.6 0-1.086-.486-1.086-1.086v-2.121c0-.6-.486-1.086-1.086-1.086h-6.633c-.6 0-1.086.486-1.086 1.086v2.121c0 .6-.486 1.086-1.086 1.086h-6.633c-.6 0-1.086-.486-1.086-1.086v-2.121c0-.6-.486-1.086-1.086-1.086h-6.633c-.6 0-1.086.486-1.086 1.086 0 .577 0 21.827 0 21.792 0 2.046 1.659 3.704 3.704 3.704h29.565c-3.715-1.061-3.751-4.049-3.751-4.049z" fill="#ffb332"/></g><path d="m289.987 411.952c-3.438 0-58.45 0-61.887 0-1.847 0-3.344 1.497-3.344 3.344s1.497 3.344 3.344 3.344h61.887c1.847 0 3.344-1.497 3.344-3.344s-1.497-3.344-3.344-3.344z" fill="#ffb332"/><path d="m249.089 415.296c0-1.847 1.497-3.344 3.344-3.344-12.141 0-22.875 0-24.333 0-1.847 0-3.344 1.497-3.344 3.344s1.497 3.345 3.344 3.345h24.333c-1.847 0-3.344-1.498-3.344-3.345z" fill="#ffa219"/></g></svg>