<svg id="Layer_1" enable-background="new 0 0 512 512" height="512" viewBox="0 0 512 512" width="512" xmlns="http://www.w3.org/2000/svg"><g><path d="m92.203 449.183h327.593c49.848-44.847 81.201-109.849 81.201-182.181 0-135.309-109.689-244.998-244.998-244.998s-244.997 109.689-244.997 244.998c0 72.332 31.353 137.334 81.201 182.181z" fill="#ff9100"/><g><path d="m307.341 209.308c-1.018.202-2.067.313-3.142.313h-96.399c-1.075 0-2.124-.111-3.142-.313-1.043 32.558-11.53 52.753-20.326 64.048h143.335c-8.796-11.296-19.282-31.491-20.326-64.048z" fill="#ffd185"/></g><path d="m242.271 272.25c.19-.183.353-.383.495-.605 12.073-18.99 13.149-51.345 13.231-59.009.011-1.004-.442-1.959-1.231-2.58-.183-.144-.35-.29-.524-.435h-46.44c-1.075 0-2.125-.111-3.142-.313-1.043 32.558-11.529 52.753-20.326 64.048h56.887c.446-.507.817-.882 1.05-1.106z" fill="#f4bc6a"/><path d="m149.84 391.356c.767-.041 1.538-.064 2.315-.064h207.761c.779 0 1.552.023 2.321.064 1.88-4.113 3.93-7.935 6.093-11.442 15.212-24.662 3.261-56.779-16.045-84.972h-192.493c-18.997 27.743-31.571 59.8-16.045 84.972 2.163 3.507 4.213 7.329 6.093 11.442z" fill="#ffd185"/><path d="m240.684 386.459c-32.609-38.694-7.188-75.839.069-84.946.958-1.202.952-2.917-.032-4.097-.695-.833-1.294-1.657-1.816-2.473h-79.112c-18.998 27.743-31.571 59.8-16.045 84.972 2.163 3.506 4.213 7.328 6.093 11.442.767-.041 1.538-.064 2.315-.064h87.999c.178-.215.352-.422.513-.613 1.032-1.217 1.044-3.001.016-4.221z" fill="#f4bc6a"/><path d="m351.553 272.003c-14.079 0-177.027 0-191.106 0-7.564 0-13.696 6.132-13.696 13.696s6.132 13.696 13.696 13.696h191.106c7.564 0 13.696-6.132 13.696-13.696s-6.132-13.696-13.696-13.696z" fill="#ffe8c2"/><path d="m160.447 272.003c-7.564 0-13.696 6.132-13.696 13.696s6.132 13.696 13.696 13.696h81.012c-.018-.706-.26-1.407-.739-1.98-10.503-12.581-.266-23.415 1.55-25.166.077-.075.133-.166.202-.247-39.384.001-75.705.001-82.025.001z" fill="#ffd185"/><path d="m376.498 388.587h-240.996c-23.814 0-43.299 19.484-43.299 43.299v17.297c16.138 14.519 34.215 26.92 53.795 36.777h220.003c19.581-9.856 37.657-22.258 53.795-36.777v-17.297c.001-23.814-19.484-43.299-43.298-43.299z" fill="#ffe8c2"/><path d="m241.447 388.587h-105.945c-23.814 0-43.299 19.484-43.299 43.299v17.297c16.138 14.519 34.215 26.92 53.795 36.777h94.933c.539-1.185.356-2.609-.576-3.604-38.296-40.874-7.851-82.066.312-91.676.513-.604.773-1.348.78-2.093z" fill="#ffd185"/><path d="m143.346 484.607c33.728 17.497 72.033 27.393 112.654 27.393s78.926-9.896 112.654-27.392c-61.549-.001-163.76-.001-225.308-.001z" fill="#fff3e1"/><path d="m241.236 484.607c-35.883 0-70.82 0-97.89 0 29.012 15.05 61.412 24.469 95.758 26.811-9.077-10.21-2.442-20.332 1.318-24.644.543-.623.812-1.395.814-2.167z" fill="#ffe8c2"/><path d="m325.712 146.509c12.582-15.46 20.134-35.177 20.134-56.663-.001-49.621-40.226-89.846-89.846-89.846s-89.846 40.225-89.846 89.845c0 21.486 7.552 41.203 20.134 56.663h139.424z" fill="#ffe8c2"/><path d="m246.342 144.298c-59.104-22.107-62.14-92.904-62.076-108.552-11.368 15.049-18.113 33.786-18.113 54.099 0 21.486 7.552 41.203 20.134 56.663h62.046c-.252-.969-.942-1.818-1.991-2.21z" fill="#ffd185"/><path d="m304.199 210.973h-96.399c-8.926 0-16.229-7.303-16.229-16.229v-14.426h128.856v14.426c.001 8.926-7.302 16.229-16.228 16.229z" fill="#ffe8c2"/><path d="m191.572 194.744c0 8.926 7.303 16.229 16.229 16.229h47.737c-.201-.345-.451-.664-.772-.917-11.364-8.946-7.17-20.527-4.853-25.076.615-1.207.401-2.663-.504-3.671-.298-.331-.575-.661-.852-.99h-56.984v14.425z" fill="#ffd185"/><path d="m332.663 183.023h-153.326c-10.457 0-18.934-8.477-18.934-18.934 0-10.457 8.477-18.933 18.934-18.933h153.326c10.457 0 18.934 8.477 18.934 18.933-.001 10.457-8.477 18.934-18.934 18.934z" fill="#fff3e1"/><path d="m160.404 164.09c0 10.457 8.477 18.934 18.934 18.934h70.883c-.097-.624-.371-1.223-.813-1.715-12.607-14.029-6.273-26.16-1.696-31.886 1.054-1.319.922-3.125-.108-4.266h-68.267c-10.457-.001-18.933 8.476-18.933 18.933z" fill="#ffe8c2"/><path d="m54.711 406.686c-5.234-67.533 35.237-93.238 76.367-150.259 40.621-56.315-18.643-134.666-45.579-165.339-45.936 44.532-74.497 106.883-74.497 175.914 0 51.92 16.156 100.061 43.709 139.684z" fill="#ffa219"/><path d="m457.289 406.686c27.553-39.623 43.709-87.765 43.709-139.684 0-69.031-28.561-131.382-74.497-175.914-26.936 30.673-86.2 109.024-45.579 165.339 41.13 57.021 81.6 82.727 76.367 150.259z" fill="#ffa219"/><ellipse cx="277.045" cy="59.579" fill="#fff3e1" rx="31.509" ry="31.509" transform="matrix(.162 -.987 .987 .162 173.433 323.337)"/></g></svg>