<svg id="Layer_1" enable-background="new 0 0 512 512" height="512" viewBox="0 0 512 512" width="512" xmlns="http://www.w3.org/2000/svg"><g><path d="m103.421 458.682h305.158c56.317-44.888 92.419-114.064 92.419-191.679 0-135.309-109.689-244.998-244.998-244.998s-244.998 109.689-244.998 244.997c0 77.616 36.102 146.791 92.419 191.68z" fill="#5cc563"/><path d="m322.896 127.448h-133.792c14.622 14.001 35.935 72.522-38.602 162.251h210.995c-74.536-89.729-53.223-148.251-38.601-162.251z" fill="#ffd185"/><path d="m231.34 287.749c16.66-34.907 23.401-76.869 26.045-101.022 1.232-11.255 10.75-19.765 22.071-19.765h29.112c1.039-20.208 8.257-33.702 14.328-39.515h-133.792c14.622 14.001 35.935 72.522-38.602 162.251h79.337c.27-.319.509-.583.699-.784.327-.346.597-.735.802-1.165z" fill="#f4bc6a"/><path d="m141.598 399.619c.714-.038 1.433-.06 2.156-.06h224.492c.725 0 1.446.022 2.162.06 1.752-3.831 3.661-7.391 5.676-10.658 14.17-22.973 15.635-52.89-2.349-79.152h-235.464c-17.697 25.843-16.811 55.705-2.349 79.152 2.015 3.266 3.924 6.826 5.676 10.658z" fill="#ffd185"/><path d="m135.922 388.96c2.015 3.266 3.924 6.827 5.676 10.658.714-.038 1.433-.06 2.156-.06h91.899c1.022-1.577.939-3.632-.206-5.132-28.306-37.078-12.287-68.525-6.355-77.74 1.04-1.615.906-3.681-.268-5.202-.434-.563-.814-1.121-1.163-1.677h-89.391c-17.696 25.844-16.81 55.706-2.348 79.153z" fill="#f4bc6a"/><path d="m374.048 288.439c-13.115 0-222.982 0-236.097 0-7.046 0-12.758 5.712-12.758 12.758s5.712 12.758 12.758 12.758h236.097c7.046 0 12.758-5.712 12.758-12.758.001-7.046-5.712-12.758-12.758-12.758z" fill="#ffe8c2"/><path d="m230.923 288.439c-46.378 0-87.404 0-92.971 0-7.046 0-12.758 5.712-12.758 12.758s5.712 12.758 12.758 12.758h91.825c-.067-.876-.385-1.737-.951-2.471-8.296-10.753-.371-20.361 1.713-22.57.14-.149.265-.31.384-.475z" fill="#ffd185"/><path d="m368.246 397.039h-224.492c-22.183 0-40.333 18.15-40.333 40.333v21.309c14.192 11.312 29.66 21.09 46.167 29.061h212.825c16.507-7.972 31.975-17.75 46.167-29.061v-21.309c-.001-22.182-18.151-40.333-40.334-40.333z" fill="#ffe8c2"/><path d="m236.367 397.039h-92.613c-22.183 0-40.333 18.15-40.333 40.333v21.309c14.192 11.312 29.66 21.09 46.167 29.061h93.793c.505-1.518.185-3.235-.958-4.485-34.065-37.248-13.556-73.727-6.82-83.611.536-.785.787-1.699.764-2.607z" fill="#ffd185"/><path d="m147.052 486.483c32.819 16.323 69.807 25.517 108.948 25.517s76.129-9.194 108.948-25.517c-58.124 0-159.772 0-217.896 0z" fill="#fff3e1"/><path d="m243.598 486.483c-35.7 0-70.495 0-96.546 0 29.097 14.471 61.475 23.324 95.722 25.149-.095-.238-.193-.475-.333-.702-6.594-10.681-3.005-18.004.101-21.688.68-.804 1.021-1.778 1.056-2.759z" fill="#ffe8c2"/><path d="m332.771 128.707h-153.542c-8.314 0-15.117-6.803-15.117-15.117v-13.438h183.776v13.438c0 8.315-6.803 15.117-15.117 15.117z" fill="#ffe8c2"/><path d="m265.342 101.412c-1.275-.364-2.431-.79-3.489-1.26h-97.741v13.438c0 8.315 6.803 15.117 15.117 15.117h86.113c-13.461-13.46 0-27.295 0-27.295z" fill="#ffd185"/><path d="m339.985 4.144v8.09c0 2.288-1.855 4.144-4.144 4.144h-25.306c-2.289 0-4.144-1.855-4.144-4.144v-8.09c0-2.289-1.855-4.144-4.144-4.144h-25.306c-2.289 0-4.144 1.855-4.144 4.144v8.09c0 2.288-1.855 4.144-4.144 4.144h-25.307c-2.288 0-4.144-1.855-4.144-4.144v-8.09c0-2.289-1.855-4.144-4.144-4.144h-25.306c-2.289 0-4.144 1.855-4.144 4.144v8.09c0 2.288-1.855 4.144-4.144 4.144h-25.306c-2.288 0-4.144-1.855-4.144-4.144v-8.09c0-2.289-1.855-4.144-4.144-4.144h-25.307c-2.288 0-4.144 1.855-4.144 4.144 0 2.201 0 83.271 0 83.136 0 7.805 6.327 14.132 14.133 14.132h206.893c7.805 0 14.133-6.327 14.133-14.132 0-3.243 0-85.589 0-83.136 0-2.289-1.855-4.144-4.144-4.144h-25.307c-2.287 0-4.142 1.855-4.142 4.144z" fill="#fff3e1"/><path d="m251.038 85.962s0-35 0-51.97 17.615-17.615 17.615-17.615h-25.307c-2.288 0-4.144-1.855-4.144-4.144v-8.09c0-2.289-1.855-4.144-4.144-4.144h-25.306c-2.289 0-4.144 1.855-4.144 4.144v8.09c0 2.288-1.855 4.144-4.144 4.144h-25.306c-2.288 0-4.144-1.855-4.144-4.144v-8.09c0-2.289-1.855-4.144-4.144-4.144h-25.307c-2.288 0-4.144 1.855-4.144 4.144 0 2.201 0 83.271 0 83.136 0 7.805 6.327 14.132 14.133 14.132h112.789c-14.166-4.049-14.303-15.449-14.303-15.449z" fill="#ffe8c2"/><g fill="#88ce65"><path d="m61.829 416.385c53.064-57.958-1.527-116.714 66.182-184.423 51.775-51.775-12.278-113.287-44.546-138.887-44.746 44.39-72.463 105.919-72.463 173.927 0 56.238 18.964 108.036 50.827 149.383z"/><path d="m500.998 267.002c0-68.008-27.717-129.538-72.462-173.927-32.268 25.6-96.321 87.112-44.546 138.887 67.708 67.708 13.118 126.465 66.181 184.423 31.863-41.348 50.827-93.145 50.827-149.383z"/></g></g></svg>