<svg id="Layer_1" enable-background="new 0 0 512 512" height="512" viewBox="0 0 512 512" width="512" xmlns="http://www.w3.org/2000/svg"><g><path d="m244.998 22.004c-135.309 0-244.998 109.69-244.998 244.998 0 88.065 46.473 165.264 116.223 208.446l128.05 36.543c.242.001.482.009.724.009 135.309 0 244.998-109.689 244.998-244.998.001-135.308-109.689-244.998-244.997-244.998z" fill="#5cc563"/><path d="m500.828 287.352h-265.009c-6.145 0-11.172-5.027-11.172-11.172v-265.008c.001-6.145 5.028-11.172 11.172-11.172h265.009c6.145 0 11.172 5.027 11.172 11.172v265.009c0 6.144-5.027 11.171-11.172 11.171z" fill="#e29b61"/><path d="m305.291 0h-69.472c-6.145 0-11.172 5.027-11.172 11.172v265.009c0 6.144 5.027 11.172 11.172 11.172h69.472c-9.76-9.76 0-17.611 0-17.611v-252.131c-10.402-8.235 0-17.611 0-17.611z" fill="#c7874e"/><path d="m428.184 204.161h66.206v65.581h-66.206z" fill="#fff3e1"/><path d="m428.184 77.793h66.206v68.57h-66.206z" fill="#fff3e1"/><path d="m428.184 17.611h66.206v63.033h-66.206z" fill="#543e5b"/><path d="m428.184 143.676h66.206v63.033h-66.206z" fill="#543e5b"/><path d="m301.47 204.161h69.537v65.581h-69.537z" fill="#fce99a"/><path d="m301.47 77.793h69.537v68.57h-69.537z" fill="#fce99a"/><path d="m301.47 17.611h69.537v63.033h-69.537z" fill="#543e5b"/><path d="m301.47 143.676h69.537v63.033h-69.537z" fill="#ff4155"/><g fill="#ffb332"><path d="m242.259 204.161h63.033v65.581h-63.033z"/><path d="m368.324 204.161h63.033v65.581h-63.033z"/><path d="m242.259 77.793h63.033v68.57h-63.033z"/><path d="m368.324 77.793h63.033v68.57h-63.033z"/></g><path d="m242.259 17.611h63.033v63.033h-63.033z" fill="#fff3e1"/><path d="m242.259 143.676h63.033v63.033h-63.033z" fill="#fce99a"/><path d="m368.324 17.611h63.033v63.033h-63.033z" fill="#fff3e1"/><path d="m368.324 143.676h63.033v63.033h-63.033z" fill="#fce99a"/><path d="m116.223 475.448c37.227 23.047 81.081 36.406 128.05 36.543-17.579-15.463-27.13-36.204-32.265-53.284-5.279-17.56-2.685-36.546 6.878-52.19l4.823-7.891c-30.416 0-95.282 0-113 0l4.823 7.891c9.563 15.645 12.157 34.631 6.878 52.19-1.596 5.314-3.629 10.986-6.187 16.741z" fill="#af713b"/><path d="m116.223 475.448c13.476 8.343 27.825 15.409 42.872 21.045 5.395-17.468 7.308-35.211 7.942-47.394.455-8.736 7.654-15.587 16.402-15.587h26.271c1.017-9.463 4.107-18.701 9.177-26.996l4.824-7.891c-30.416 0-95.282 0-113 0l4.823 7.891c9.563 15.645 12.157 34.631 6.878 52.19-1.598 5.315-3.631 10.987-6.189 16.742z" fill="#965b27"/><path d="m66.863 247.891c-8.988-28.086-33.573-45.258-55.339-55.314-7.476 23.473-11.524 48.475-11.524 74.425 0 43.527 11.359 84.396 31.265 119.818 55.904-26.662 52.033-87.571 35.598-138.929z" fill="#88ce65"/><path d="m477.235 345.234c-13.738-10.99-31.492-19.765-53.168-19.765-47.029 0-234.71 64.397-133.664 182.313 87.667-16.43 158.88-79.537 186.832-162.548z" fill="#88ce65"/><path d="m198.378 100.885-16.412 9.869c-2.09 1.257-4.468-1.122-3.212-3.212l11.048-18.372c3.009-5.004-.595-11.377-6.434-11.377h-32.228c-5.839 0-9.443 6.373-6.434 11.377l11.049 18.373c1.257 2.09-1.122 4.469-3.212 3.212l-16.412-9.869c-5.004-3.01-11.377.595-11.377 6.434v25.947c0 5.839 6.373 9.443 11.377 6.434l16.412-9.869c2.09-1.257 4.469 1.122 3.212 3.212l-11.049 18.373c-3.009 5.004.595 11.377 6.434 11.377h32.228c5.839 0 9.443-6.373 6.434-11.377l-11.049-18.372c-1.257-2.09 1.122-4.469 3.212-3.212l16.411 9.869c5.004 3.009 11.377-.595 11.377-6.434v-25.948c.002-5.841-6.371-9.445-11.375-6.435z" fill="#e29b61"/><path d="m178.755 133.043c-.665-1.106-.308-2.288.482-2.974-23.943 3.549-23.743-19.767-23.743-19.769-.69.77-1.857 1.111-2.95.454l-16.412-9.869c-5.004-3.01-11.377.595-11.377 6.434v25.947c0 5.839 6.373 9.443 11.377 6.434l16.412-9.869c2.09-1.257 4.469 1.122 3.212 3.212l-11.049 18.373c-3.009 5.004.595 11.377 6.434 11.377h32.228c5.839 0 9.443-6.373 6.434-11.377z" fill="#c7874e"/><path d="m193.005 161.792h-51.5c-6.6 0-12 5.4-12 12v10.667h75.5v-10.667c0-6.6-5.4-12-12-12z" fill="#af713b"/><path d="m165.32 181.721c-6.19-6.454-2.754-13.65-.143-17.378.55-.786.619-1.738.309-2.551h-23.98c-6.6 0-12 5.4-12 12v10.667h36.479c.296-.932.054-1.989-.665-2.738z" fill="#965b27"/><path d="m251.889 203.793c-.685-1.832-2.043-3.325-3.719-4.333-9.928-5.97-29.151-16.001-46.248-16.001-16.392 0-52.944 0-69.333 0-17.097 0-36.32 10.031-46.248 16.001-1.676 1.008-3.035 2.501-3.72 4.333l-.025.069 84.66 1.931 84.659-1.931z" fill="#c7874e"/><path d="m86.34 199.46c-1.676 1.008-3.035 2.501-3.72 4.333l-.026.069 83.279 1.9c.024-.037.05-.076.073-.112.695-1.053.571-2.446-.304-3.356-6.653-6.922-2.718-13.788-.12-16.982.441-.541.624-1.203.576-1.853-12.847 0-25.555 0-33.511 0-17.096 0-36.319 10.032-46.247 16.001z" fill="#af713b"/><path d="m251.886 203.793c-5.021 0-164.223 0-169.263 0-.701 1.872-.962 4.456.403 7.693h-.003c22.689 52.331 32.912 107.816 35.104 120.806h98.255c2.192-12.989 12.415-68.475 35.104-120.806h-.003c1.365-3.237 1.104-5.821.403-7.693z" fill="#af713b"/><path d="m83.027 211.486h-.003c22.689 52.331 32.912 107.816 35.104 120.806h47.392c.077-.104.153-.204.227-.301.775-1.004.776-2.412-.037-3.385-8.881-10.627-2.691-21.931.241-26.142.693-.996.657-2.332-.118-3.266-6.497-7.826-2.288-14.565.1-17.343.753-.876.827-2.135.232-3.125-21.593-35.938-5.192-65.547-.218-73.081.372-.564.502-1.224.415-1.857-40.756 0-81.237 0-83.739 0-.701 1.873-.962 4.457.404 7.694z" fill="#965b27"/><path d="m225.752 300.753h-116.995c-5.593 0-10.127-4.534-10.127-10.127 0-5.593 4.534-10.127 10.127-10.127h116.996c5.593 0 10.127 4.534 10.127 10.127 0 5.593-4.534 10.127-10.128 10.127z" fill="#c7874e"/><path d="m166.529 280.499h-57.773c-5.593 0-10.127 4.534-10.127 10.127s4.534 10.127 10.127 10.127h57.679c-.03-.557-.228-1.103-.603-1.555-6.497-7.826-2.288-14.565.1-17.343.339-.394.533-.867.597-1.356z" fill="#af713b"/><path d="m223.755 330.292h-113c-6.6 0-12 5.4-12 12v10.667h137v-10.667c0-6.6-5.4-12-12-12z" fill="#c7874e"/><path d="m165.698 349.23c-5.975-7.439-2.3-14.197.048-17.239.386-.501.58-1.102.577-1.699h-55.569c-6.6 0-12 5.4-12 12v10.667h66.681c.085-.105.169-.21.25-.307.823-.991.82-2.418.013-3.422z" fill="#af713b"/><path d="m223.755 399.626h-113c-6.6 0-12-5.4-12-12v-10.667h137v10.667c0 6.6-5.4 12-12 12z" fill="#c7874e"/><path d="m98.755 387.626c0 6.6 5.4 12 12 12h55.373c.05-.668-.146-1.358-.593-1.924-5.938-7.512-2.225-14.1.165-17.069.805-.999.77-2.445-.062-3.421-.072-.084-.135-.168-.205-.253h-66.678z" fill="#af713b"/><path d="m233.005 378.959h-131.5c-7.732 0-14-6.268-14-14 0-7.732 6.268-14 14-14h131.5c7.732 0 14 6.268 14 14 0 7.732-6.268 14-14 14z" fill="#e29b61"/><path d="m166.302 350.959h-64.797c-7.732 0-14 6.268-14 14s6.268 14 14 14h64.774c-.002-.624-.215-1.247-.642-1.747-9.28-10.88-3.132-20.73.048-24.56.408-.492.612-1.091.617-1.693z" fill="#c7874e"/></g></svg>