<svg id="Layer_1" enable-background="new 0 0 512 512" height="512" viewBox="0 0 512 512" width="512" xmlns="http://www.w3.org/2000/svg"><g><path d="m429.186 417.546c37.856-43.127 60.818-99.652 60.818-161.546 0-135.311-109.691-245.002-245.002-245.002-68.856 0-131.066 28.417-175.575 74.148l76.869 332.4z" fill="#7255ce"/><path d="m161.352 482.654.929 4.017c25.843 9.269 53.689 14.332 82.721 14.332 32.981 0 64.432-6.533 93.151-18.349z" fill="#7255ce"/><path d="m461.378 83.49h-390.334c-7.565 7.628-14.618 15.761-21.133 24.325l-26.972 44.592c-14.708 31.466-22.939 66.565-22.939 103.593 0 37.025 8.234 72.119 22.938 103.584l40.387 60.754c8.128 8.979 16.895 17.368 26.26 25.062h366.948c13.727 0 24.854-11.128 24.854-24.854v-317.047c.001-11.051-8.958-20.009-20.009-20.009z" fill="#543e5b"/><path d="m71.044 83.49c-7.565 7.628-14.618 15.761-21.133 24.325l-26.972 44.592c-14.708 31.466-22.939 66.565-22.939 103.593 0 37.025 8.234 72.119 22.938 103.584l40.387 60.754c8.128 8.979 16.895 17.368 26.26 25.062h28.604l.794-.794c-13.212-13.212 0-24.162 0-24.162-6.019-6.019 0-12.685 0-12.685l.498-94.857c-7.687-7.687-.147-14.643-.147-14.643l-.13-94.857c-7.596-7.596 0-14.643 0-14.643s6.379-85.544 0-94.857c-3.173-4.632-2.758-8.098-1.541-10.413h-46.619z" fill="#422953"/><path d="m22.938 152.408v207.175c10.413 22.283 24.077 42.736 40.388 60.755l393.207.736c.262 0 .528-.268.528-.529 0-15.91 0-295.415 0-311.275 0-.804-.652-1.457-1.457-1.457h-405.693c-10.494 13.795-19.558 28.731-26.973 44.595z" fill="#9589e8"/><path d="m118.983 407.759.498-94.857c-7.687-7.687-.147-14.643-.147-14.643l-.13-94.857c-7.596-7.596 0-14.643 0-14.643s4.035-54.11 2.477-80.945h-71.77c-10.494 13.793-19.558 28.73-26.973 44.594v207.175c10.413 22.283 24.077 42.736 40.388 60.756l55.656.104c-6.017-6.018.001-12.684.001-12.684z" fill="#7255ce"/><path d="m504.454 444.606h-155.697v8.724c0 6.123-4.981 11.105-11.105 11.105h-195.304c-6.124 0-11.105-4.982-11.105-11.105v-8.724h-42.617c22.289 18.501 47.912 33.116 75.832 42.832h291.132c3.877 0 7.744-.511 11.46-1.616.02-.006.04-.012.06-.018l25.465-7.591c11.522-3.435 19.421-14.028 19.425-26.051.002-4.17-3.377-7.556-7.546-7.556z" fill="#e0f5fc"/><path d="m88.626 444.606c22.289 18.501 47.912 33.116 75.832 42.832h76.042c-11.097-11.097 0-21.416 0-21.416l-.511-1.587h-97.642c-6.123 0-11.105-4.982-11.105-11.105v-8.724z" fill="#c5ebfc"/><path d="m129.656 444.606v8.725c0 6.98 5.711 12.691 12.691 12.691h195.304c6.98 0 12.691-5.711 12.691-12.691v-8.725z" fill="#c5ebfc"/><path d="m227.81 453.331v-8.725h-98.153v8.725c0 6.98 5.711 12.691 12.691 12.691h98.153c-6.98 0-12.691-5.712-12.691-12.691z" fill="#9bd8f9"/><path d="m408.272 10.998h-336.545c-7.992 0-14.471 6.479-14.471 14.471v30.744h365.487v-30.744c0-7.992-6.478-14.471-14.471-14.471z" fill="#543e5b"/><path d="m71.727 10.998c-7.992 0-14.471 6.479-14.471 14.471v30.743h62.231c.838-.972 1.456-1.511 1.456-1.511-6.494-6.493 0-12.178 0-12.178s6.688-11.147 0-17.835 0-13.69 0-13.69z" fill="#422953"/><path d="m57.256 78.987v334.387c1.981 2.36 4.003 4.683 6.07 6.965l359.418.673v-342.025z" fill="#e0f5fc"/><path d="m57.256 413.374c1.98 2.36 4.004 4.683 6.07 6.965l55.656.104c-4.631-4.633-4.345-21.274-4.345-21.274s0-39 0-55.667 13.267-22.265 13.267-22.265v-84.447c-4.082-4.082-.576-7.288-.576-7.288-10.526-13.001 0-23.813 0-23.813l.576-84.449c-3.503-3.503-.576-7.288-.576-7.288-16.131-13.938-6.384-33.964-6.384-33.964l-.738-1h-62.95z" fill="#c5ebfc"/><ellipse cx="94.752" cy="33.605" fill="#ff4155" rx="8.917" ry="8.917" transform="matrix(.23 -.973 .973 .23 40.276 118.101)"/><ellipse cx="120.944" cy="33.605" fill="#ffdd40" rx="8.917" ry="8.917" transform="matrix(.925 -.381 .381 .925 -3.688 48.562)"/><ellipse cx="147.136" cy="33.605" fill="#5cc563" rx="8.917" ry="8.917" transform="matrix(.747 -.665 .665 .747 14.922 106.39)"/><g><path d="m342.567 40.605h-160.597c-3.866 0-7-3.134-7-7s3.134-7 7-7h160.597c3.866 0 7 3.134 7 7s-3.134 7-7 7z" fill="#72597c"/></g><g><path d="m388.458 40.605h-16.233c-3.866 0-7-3.134-7-7s3.134-7 7-7h16.233c3.866 0 7 3.134 7 7s-3.133 7-7 7z" fill="#72597c"/></g><path d="m154.355 54.701c0 13.965-11.321 25.286-25.286 25.286h293.675v-25.286z" fill="#c5ebfc"/><path d="m57.256 54.701v25.286h73.511c13.965 0 25.286-11.321 25.286-25.286z" fill="#73c3f9"/><path d="m120.944 54.701h-63.688v25.286h63.688c-13.538-13.538 0-25.286 0-25.286z" fill="#4fabf7"/><path d="m396.267 323.807h-195.908c-4.542 0-8.259-3.716-8.259-8.259v-195.908c0-4.542 3.716-8.259 8.259-8.259h195.908c4.542 0 8.259 3.716 8.259 8.259v195.908c0 4.543-3.716 8.259-8.259 8.259z" fill="#e29b61"/><path d="m283.417 111.382h-83.058c-4.542 0-8.259 3.716-8.259 8.259v195.908c0 4.542 3.717 8.259 8.259 8.259h83.058c-7.483-7.483 0-13.019 0-13.019v-186.389c-7.52-7.519 0-13.018 0-13.018z" fill="#c7874e"/><path d="m342.564 262.308h48.942v48.481h-48.942z" fill="#fff3e1"/><path d="m342.564 168.89h48.942v50.69h-48.942z" fill="#fff3e1"/><path d="m342.564 124.401h48.942v46.597h-48.942z" fill="#543e5b"/><path d="m342.564 217.594h48.942v46.597h-48.942z" fill="#543e5b"/><path d="m248.892 262.308h51.405v48.481h-51.405z" fill="#fff3e1"/><path d="m248.892 262.308v48.481h34.525c-5.174-2.219-8.822-7.368-8.822-13.329v-35.151h-25.703z" fill="#ffe8c2"/><path d="m248.892 168.89h51.405v50.69h-51.405z" fill="#fff3e1"/><path d="m248.892 168.89h25.703v50.69h-25.703z" fill="#ffe8c2"/><path d="m248.892 124.401h51.405v46.597h-51.405z" fill="#543e5b"/><path d="m248.892 124.4v46.597h25.703v-33.267c0-5.962 3.649-11.111 8.822-13.33z" fill="#422953"/><path d="m248.892 217.594h51.405v46.597h-51.405z" fill="#543e5b"/><path d="m248.892 217.595h25.703v46.597h-25.703z" fill="#422953"/><path d="m205.119 262.308h46.597v48.481h-46.597z" fill="#422953"/><path d="m298.313 262.308h46.597v48.481h-46.597z" fill="#543e5b"/><path d="m205.119 168.89h46.597v50.69h-46.597z" fill="#422953"/><path d="m298.313 168.89h46.597v50.69h-46.597z" fill="#543e5b"/><path d="m205.119 124.401h46.597v46.597h-46.597z" fill="#ffe8c2"/><path d="m205.119 217.594h46.597v46.597h-46.597z" fill="#ffe8c2"/><path d="m298.313 124.401h46.597v46.597h-46.597z" fill="#fff3e1"/><path d="m298.313 217.594h46.597v46.597h-46.597z" fill="#fff3e1"/><path d="m162.906 188.762c6.43-7.895 10.291-17.967 10.291-28.943 0-25.333-20.536-45.868-45.869-45.868-25.332 0-45.868 20.536-45.868 45.868 0 10.976 3.86 21.048 10.29 28.943z" fill="#b4d667"/><path d="m81.46 159.819c0 10.976 3.86 21.048 10.29 28.943h35.694l.461-67.523c-3.503-3.503-.576-7.288-.576-7.288-25.333 0-45.869 20.536-45.869 45.868z" fill="#5cc563"/><path d="m127.328 190.091c6.144 0 11.394-3.892 13.419-9.339-.015-.004-.03-.007-.045-.011-2.068-2.068-2.593-5.99-2.687-8.733-1.079 1.257-2.212 2.309-3.295 3.149-2.109 1.638-4.711 2.527-7.392 2.527-2.68 0-5.283-.889-7.392-2.527-1.082-.841-2.215-1.892-3.295-3.149-.094 2.743-.619 6.665-2.687 8.733-.015.004-.03.007-.045.011 2.025 5.448 7.276 9.339 13.419 9.339z" fill="#fcad6d"/><path d="m127.328 177.685c-2.68 0-5.283-.889-7.392-2.527-1.082-.841-2.215-1.892-3.295-3.149-.095 2.743-.619 6.665-2.687 8.733-.015.004-.03.007-.045.011 1.265 3.402 3.787 6.198 7.001 7.817.085-.011.164-.02.237-.027.394-.038.77-.186 1.08-.433 3.854-3.076 5.045-7.686 5.411-10.431-.103.002-.206.006-.31.006z" fill="#fd995b"/><path d="m157.165 187.336c-1.379-.113-2.113-.648-3.738-1.564-2.241-1.264-4.503-2.346-6.844-3.238-2.794 7.943-10.368 13.655-19.254 13.655-8.887 0-16.46-5.712-19.255-13.654-2.341.892-4.603 1.973-6.844 3.238-1.625.916-2.359 1.451-3.738 1.564-2.198.179-4.093.686-5.741 1.426 8.734 10.723 21.79 16.926 35.578 16.926 13.889 0 26.908-6.283 35.578-16.926-1.649-.742-3.545-1.248-5.742-1.427z" fill="#ffdd40"/><path d="m108.074 182.534c-2.341.892-4.603 1.974-6.844 3.238-1.625.916-2.359 1.451-3.738 1.564-2.198.18-4.093.686-5.741 1.427 2.547 3.128 5.501 5.907 8.777 8.27 4.566-2.858 11.157-3.971 13.629-4.303.414-.055.792-.238 1.096-.512-3.273-2.413-5.805-5.778-7.179-9.684z" fill="#ffc839"/><g><path d="m123.754 121.447c-10.733 1.462-11.753 7.547-11.757 9.78-.001.468-.26.902-.681 1.107-5.583 2.716-2.573 15.805-2.573 15.805.561.037 1.402.519 1.839.73.107-.667.282-1.324.529-1.958.188-.484.424-.972.718-1.434.511-.801.743-1.746.674-2.69-.201-2.731-.358-7.857 3.246-9.479 3.053-1.374 6.799-.578 9.188.216 1.551.516 3.232.516 4.783 0 2.389-.794 6.134-1.59 9.188-.216 3.594 1.617 3.446 6.718 3.248 9.456-.069.952.157 1.906.672 2.714.304.477.545.982.736 1.481.238.62.407 1.261.511 1.912.552-.267 1.594-.813 2.269-.717.083-2.862.347-5.947.347-5.947 3.18-15.579-11.381-22.334-22.937-20.76z" fill="#543e5b"/></g><path d="m127.904 121.239c-1.402-.045-2.797.024-4.15.208-10.733 1.462-11.753 7.547-11.757 9.78-.001.468-.26.902-.681 1.107-5.583 2.716-2.573 15.805-2.573 15.805.561.038 1.402.519 1.839.73.107-.667.282-1.324.529-1.958.188-.484.424-.972.718-1.434.511-.801.743-1.746.674-2.69-.201-2.731-.358-7.857 3.246-9.479 3.053-1.374 6.799-.578 9.188.216.37.123.748.215 1.129.279-.099-.194-.204-.386-.32-.573-4.201-6.784.392-10.783 2.158-11.991z" fill="#422953"/><path d="m127.328 196.57c9.048 0 16.76-5.812 19.61-13.898-2.01-.785-4.076-1.432-6.237-1.931-.089-.089-.171-.186-.255-.282-1.927 5.386-7.079 9.251-13.119 9.251s-11.192-3.865-13.119-9.25c-.083.096-.166.193-.255.281-2.16.499-4.226 1.145-6.236 1.931 2.851 8.085 10.563 13.898 19.611 13.898z" fill="#fce99a"/><path d="m114.21 180.46c-.083.096-.166.193-.255.281-2.16.499-4.226 1.145-6.237 1.931 1.388 3.937 3.93 7.331 7.216 9.782.266-.16.498-.378.674-.643 1.736-2.617 4.403-3.158 5.54-3.268.14-.014.276-.046.409-.086-3.405-1.558-6.077-4.447-7.347-7.997z" fill="#ffdd40"/><path d="m147.296 148.524c-.836-.766-2.501-.378-3.221.091.158.982.167 1.987.031 2.979l-.85 6.188c0 .499-.016.988-.045 1.469 2.072.625 3.101-1.235 3.274-2.511.075-.549.197-1.091.366-1.619.551-1.721 2.539-4.678.445-6.597z" fill="#fcad6d"/><path d="m145.479 154.211c-.609 0-1.179-.163-1.672-.444l-.551 4.016c0 .499-.016.988-.045 1.469 2.072.625 3.101-1.235 3.274-2.511.075-.549.197-1.091.366-1.619.145-.452.388-.989.631-1.57-.561.412-1.252.659-2.003.659z" fill="#fd995b"/><path d="m107.361 148.524c.836-.766 2.501-.378 3.221.091-.158.982-.167 1.987-.031 2.979l.85 6.188c0 .499.016.988.045 1.469-2.072.625-3.101-1.235-3.274-2.511-.075-.549-.197-1.091-.366-1.619-.552-1.721-2.54-4.678-.445-6.597z" fill="#fcad6d"/><path d="m110.85 153.77c-.493.28-1.061.442-1.668.442-.754 0-1.448-.249-2.01-.666.244.583.488 1.122.634 1.576.169.528.291 1.07.366 1.619.173 1.276 1.202 3.136 3.274 2.511-.029-.481-.045-.97-.045-1.469z" fill="#fd995b"/><path d="m143.818 146.704c-.191-.499-.432-1.004-.736-1.481-.514-.807-.741-1.762-.672-2.714.198-2.738.092-8.092-3.502-9.71-3.053-1.374-6.799-.579-9.188.216-1.551.516-3.232.516-4.784 0-2.389-.794-6.134-1.59-9.188-.216-3.604 1.622-3.701 7.002-3.5 9.733.069.945-.163 1.889-.674 2.69-.294.462-.53.95-.718 1.434-.611 1.569-.789 3.27-.56 4.936l.85 6.189c0 8.898 4.75 14.946 8.79 18.083 2.109 1.638 4.711 2.527 7.392 2.527s5.283-.889 7.392-2.527c4.04-3.137 8.79-9.185 8.79-18.083l.85-6.188c.226-1.648.054-3.333-.542-4.889z" fill="#f9ba8f"/><g><path d="m130.688 175.865c-4.04-3.137-8.79-9.185-8.79-18.083l-.85-6.189c-.229-1.666-.051-3.367.56-4.936.188-.484.424-.972.718-1.434.51-.801.743-1.746.674-2.691-.186-2.525-.115-7.313 2.746-9.303-.273-.058-.544-.126-.81-.214-2.389-.794-6.134-1.59-9.188-.216-3.604 1.622-3.701 7.002-3.5 9.733.069.945-.163 1.889-.674 2.691-.294.462-.53.95-.718 1.434-.611 1.569-.789 3.27-.56 4.936l.85 6.189c0 8.898 4.75 14.946 8.79 18.083 2.109 1.638 4.711 2.527 7.392 2.527 1.878 0 3.717-.438 5.376-1.263-.709-.352-1.385-.774-2.016-1.264z" fill="#fcad6d"/></g><path d="m162.906 304.313c6.43-7.895 10.291-17.967 10.291-28.943 0-25.332-20.536-45.869-45.869-45.869-25.332 0-45.868 20.536-45.868 45.869 0 10.976 3.86 21.048 10.29 28.943z" fill="#ff4155"/><path d="m127.904 236.79c-4.082-4.082-.576-7.288-.576-7.288-25.332 0-45.868 20.536-45.868 45.869 0 10.976 3.86 21.048 10.291 28.943h36.154v-67.524z" fill="#e80054"/><path d="m127.328 305.642c6.144 0 11.394-3.892 13.419-9.339-.015-.004-.03-.007-.045-.011-2.068-2.068-2.593-5.99-2.687-8.733-1.079 1.257-2.212 2.309-3.295 3.149-2.109 1.638-4.711 2.527-7.392 2.527-2.68 0-5.283-.889-7.392-2.527-1.082-.841-2.215-1.892-3.295-3.149-.094 2.743-.619 6.665-2.687 8.733-.015.004-.03.007-.045.011 2.025 5.447 7.276 9.339 13.419 9.339z" fill="#fcad6d"/><path d="m127.328 293.236c-2.68 0-5.283-.889-7.392-2.527-1.082-.841-2.215-1.892-3.295-3.149-.095 2.743-.619 6.665-2.687 8.733-.015.004-.03.007-.045.011 1.265 3.402 3.787 6.198 7.001 7.817.085-.011.164-.02.237-.027.394-.038.77-.186 1.08-.433 3.854-3.076 5.045-7.686 5.411-10.431-.103.002-.206.006-.31.006z" fill="#fd995b"/><path d="m157.165 302.886c-1.379-.113-2.113-.648-3.738-1.564-2.241-1.264-4.503-2.346-6.844-3.238-2.794 7.943-10.368 13.655-19.254 13.655-8.887 0-16.46-5.712-19.255-13.654-2.341.892-4.603 1.973-6.844 3.238-1.625.916-2.359 1.451-3.738 1.564-2.198.179-4.093.686-5.741 1.427 8.734 10.722 21.79 16.926 35.578 16.926 13.889 0 26.908-6.283 35.578-16.926-1.649-.742-3.545-1.249-5.742-1.428z" fill="#ffdd40"/><path d="m108.074 298.085c-2.341.892-4.603 1.974-6.844 3.238-1.625.916-2.359 1.451-3.738 1.564-2.198.18-4.093.686-5.741 1.427 2.547 3.128 5.501 5.907 8.777 8.27 4.566-2.858 11.157-3.971 13.629-4.303.414-.055.792-.238 1.096-.512-3.273-2.414-5.805-5.778-7.179-9.684z" fill="#ffc839"/><g><path d="m123.754 236.998c-10.733 1.462-11.753 7.547-11.757 9.78-.001.468-.26.902-.681 1.107-5.583 2.716-2.573 15.805-2.573 15.805.561.037 1.402.519 1.839.731.107-.667.282-1.324.529-1.958.188-.484.424-.972.718-1.434.511-.801.743-1.746.674-2.69-.201-2.731-.358-7.857 3.246-9.479 3.053-1.374 6.799-.578 9.188.216 1.551.516 3.232.516 4.783 0 2.389-.794 6.134-1.59 9.188-.216 3.594 1.617 3.446 6.718 3.248 9.456-.069.952.157 1.906.672 2.714.304.477.545.982.736 1.481.238.62.407 1.261.511 1.912.552-.267 1.594-.813 2.269-.717.083-2.862.347-5.947.347-5.947 3.18-15.581-11.381-22.336-22.937-20.761z" fill="#543e5b"/></g><path d="m127.904 236.79c-1.402-.045-2.797.024-4.15.208-10.733 1.462-11.753 7.547-11.757 9.78-.001.468-.26.902-.681 1.107-5.583 2.716-2.573 15.805-2.573 15.805.561.038 1.402.519 1.839.731.107-.667.282-1.324.529-1.958.188-.484.424-.972.718-1.434.511-.801.743-1.746.674-2.69-.201-2.731-.358-7.857 3.246-9.479 3.053-1.374 6.799-.578 9.188.216.37.123.748.215 1.129.279-.099-.194-.204-.386-.32-.573-4.201-6.785.392-10.784 2.158-11.992z" fill="#422953"/><path d="m127.328 312.12c9.048 0 16.76-5.812 19.61-13.898-2.01-.785-4.076-1.432-6.237-1.931-.089-.089-.171-.186-.255-.282-1.927 5.386-7.079 9.251-13.119 9.251s-11.192-3.865-13.119-9.25c-.083.096-.166.193-.255.281-2.16.499-4.226 1.145-6.236 1.931 2.851 8.086 10.563 13.898 19.611 13.898z" fill="#fce99a"/><path d="m114.21 296.01c-.083.096-.166.193-.255.281-2.16.499-4.226 1.145-6.237 1.931 1.388 3.937 3.93 7.332 7.216 9.782.266-.16.498-.378.674-.643 1.736-2.617 4.403-3.158 5.54-3.268.14-.014.276-.046.409-.086-3.405-1.558-6.077-4.446-7.347-7.997z" fill="#ffdd40"/><path d="m147.296 264.074c-.836-.766-2.501-.378-3.221.091.158.982.167 1.987.031 2.979l-.85 6.188c0 .499-.016.988-.045 1.469 2.072.625 3.101-1.235 3.274-2.511.075-.549.197-1.091.366-1.619.551-1.721 2.539-4.677.445-6.597z" fill="#fcad6d"/><path d="m145.479 269.762c-.609 0-1.179-.163-1.672-.444l-.551 4.015c0 .499-.016.988-.045 1.469 2.072.625 3.101-1.235 3.274-2.511.075-.549.197-1.091.366-1.619.145-.452.388-.989.631-1.57-.561.412-1.252.66-2.003.66z" fill="#fd995b"/><path d="m107.361 264.074c.836-.766 2.501-.378 3.221.091-.158.982-.167 1.987-.031 2.979l.85 6.188c0 .499.016.988.045 1.469-2.072.625-3.101-1.235-3.274-2.511-.075-.549-.197-1.091-.366-1.619-.552-1.721-2.54-4.677-.445-6.597z" fill="#fcad6d"/><path d="m110.85 269.32c-.493.28-1.061.441-1.668.441-.754 0-1.448-.249-2.01-.666.244.583.488 1.122.634 1.576.169.528.291 1.07.366 1.619.173 1.276 1.202 3.136 3.274 2.511-.029-.481-.045-.97-.045-1.469z" fill="#fd995b"/><path d="m143.818 262.254c-.191-.499-.432-1.004-.736-1.481-.514-.807-.741-1.762-.672-2.714.198-2.738.092-8.092-3.502-9.71-3.053-1.374-6.799-.579-9.188.216-1.551.516-3.232.516-4.784 0-2.389-.794-6.134-1.59-9.188-.216-3.604 1.622-3.701 7.002-3.5 9.733.069.944-.163 1.889-.674 2.69-.294.462-.53.95-.718 1.434-.611 1.569-.789 3.27-.56 4.936l.85 6.189c0 8.898 4.75 14.946 8.79 18.083 2.109 1.638 4.711 2.527 7.392 2.527s5.283-.889 7.392-2.527c4.04-3.137 8.79-9.185 8.79-18.083l.85-6.188c.226-1.647.054-3.332-.542-4.889z" fill="#f9ba8f"/><g><path d="m130.688 291.416c-4.04-3.137-8.79-9.185-8.79-18.083l-.85-6.189c-.229-1.666-.051-3.367.56-4.936.188-.484.424-.972.718-1.434.51-.801.743-1.746.674-2.691-.186-2.525-.115-7.313 2.746-9.303-.273-.058-.544-.126-.81-.214-2.389-.794-6.134-1.59-9.188-.216-3.604 1.622-3.701 7.002-3.5 9.733.069.945-.163 1.889-.674 2.691-.294.462-.53.95-.718 1.434-.611 1.569-.789 3.27-.56 4.936l.85 6.189c0 8.898 4.75 14.946 8.79 18.083 2.109 1.638 4.711 2.527 7.392 2.527 1.878 0 3.717-.438 5.376-1.263-.709-.353-1.385-.774-2.016-1.264z" fill="#fcad6d"/></g><path d="m273.196 393.229h-66.391c-10.852 0-19.648-8.797-19.648-19.648 0-10.852 8.797-19.648 19.648-19.648h66.391c10.852 0 19.648 8.797 19.648 19.648 0 10.851-8.797 19.648-19.648 19.648z" fill="#b4d667"/><path d="m240 373.581c0-10.852 8.797-19.648 19.648-19.648h-52.844c-10.852 0-19.648 8.797-19.648 19.648 0 10.852 8.797 19.648 19.648 19.648h52.844c-10.851 0-19.648-8.797-19.648-19.648z" fill="#88ce65"/></g></svg>