<svg id="Layer_1" enable-background="new 0 0 512 512" height="512" viewBox="0 0 512 512" width="512" xmlns="http://www.w3.org/2000/svg"><g><path d="m95.948 452.495h320.105c52.023-44.927 84.949-111.366 84.949-185.497 0-135.311-109.691-245.003-245.002-245.003s-245.002 109.692-245.002 245.003c0 74.131 32.927 140.57 84.95 185.497z" fill="#5cc563"/><path d="m368.808 0h-225.616c-26.679 0-48.385 21.705-48.385 48.385v403.109c12.372 10.818 25.846 20.405 40.223 28.586h241.94c14.377-8.181 27.852-17.768 40.223-28.586v-403.109c0-26.68-21.705-48.385-48.385-48.385z" fill="#543e5b"/><path d="m206.102 480.081c-.426-3.062-.365-4.96-.365-4.96v-51.768c0-1.165-.602-2.248-1.586-2.872-16.6-10.523-9.923-25.41-8.099-28.805.267-.496.405-1.045.405-1.609v-17.001c0-.422-.086-.843-.239-1.236-6.141-15.791 4.501-26.283 8.271-29.376.791-.649 1.248-1.61 1.248-2.633v-67.187c0-1.118-.551-2.169-1.476-2.798-15.053-10.232-9.83-26.001-8.562-29.213.16-.404.244-.831.244-1.266v-17.206c0-.464-.105-.926-.288-1.353-6.411-14.899 3.303-24.666 8.034-28.327 1.263-.978 1.689-2.688 1.022-4.14-5.322-11.577 2.104-18.44 5.379-20.77.897-.638 1.415-1.684 1.415-2.785v-13.896c0-.617-.181-1.218-.491-1.752-6.356-10.965-.056-20.74 2.165-23.633.459-.598.71-1.325.71-2.079v-59.125c0-.654-.202-1.285-.543-1.843-4.369-7.156-.997-11.772 1.819-14.092 1.289-1.062 1.557-2.958.657-4.364-2.746-4.294-.529-7.187.991-8.504.729-.632 1.126-1.563 1.126-2.528v-13.433c0-.971-.429-1.884-1.144-2.542-6.175-5.68-3.149-11.727-.774-14.847.482-.633.692-1.39.663-2.138h-73.493c-26.679 0-48.385 21.705-48.385 48.385v403.109c12.372 10.818 25.846 20.405 40.223 28.586h71.073z" fill="#422953"/><g><path d="m220.356 34.673h-4.831c-4.618 0-8.362-3.743-8.362-8.362s3.744-8.362 8.362-8.362h4.831c4.618 0 8.362 3.743 8.362 8.362s-3.744 8.362-8.362 8.362z" fill="#72597c"/></g><g><path d="m295.319 34.673h-46.424c-4.618 0-8.362-3.743-8.362-8.362s3.744-8.362 8.362-8.362h46.424c4.618 0 8.362 3.743 8.362 8.362s-3.743 8.362-8.362 8.362z" fill="#72597c"/></g><path d="m368.808 30.103h-33.909c-6.321 0-11.445 5.124-11.445 11.446 0 7.358-6.02 13.379-13.379 13.379h-108.149c-7.359 0-13.379-6.021-13.379-13.379 0-6.321-5.124-11.446-11.445-11.446h-33.91c-10.097 0-18.282 8.185-18.282 18.281v425.619c37.909 24.057 82.869 37.997 131.09 37.997s93.182-13.94 131.09-37.996v-425.619c0-10.097-8.185-18.282-18.282-18.282z" fill="#73c3f9"/><path d="m227.798 101.223c-7.322-3.041-3.267-11.777-3.267-11.777-19.528-6-10.802-26.155-10.802-26.155l-1.428-8.362h-10.375c-7.359 0-13.379-6.021-13.379-13.379 0-6.321-5.124-11.446-11.445-11.446h-33.91c-10.097 0-18.282 8.185-18.282 18.281v425.619c32.374 20.544 69.892 33.701 110.19 37.108-18.127-31.546 6.003-56.682 6.003-56.682v-212.425c-5.706-15.65 10.093-22.118 10.093-22.118l7.126-86.665z" fill="#4fabf7"/><path d="m395.452 468.446v-420.062c0-14.691-11.952-26.643-26.644-26.643h-33.909c-10.922 0-19.807 8.886-19.807 19.807 0 2.72-2.297 5.017-5.017 5.017h-108.149c-2.72 0-5.017-2.297-5.017-5.017 0-10.922-8.885-19.807-19.807-19.807h-33.91c-14.691 0-26.643 11.952-26.643 26.643v420.062c5.422 3.76 10.997 7.313 16.724 10.635v-430.697c0-5.469 4.45-9.919 9.919-9.919h33.91c1.7 0 3.083 1.383 3.083 3.083 0 11.988 9.753 21.741 21.741 21.741h108.148c11.988 0 21.741-9.754 21.741-21.741 0-1.701 1.383-3.083 3.084-3.083h33.909c5.47 0 9.92 4.45 9.92 9.919v430.697c5.727-3.322 11.302-6.875 16.724-10.635z" fill="#72597c"/><path d="m201.926 46.566c-2.72 0-5.018-2.298-5.018-5.017 0-10.922-8.885-19.807-19.807-19.807h-33.91c-14.691 0-26.644 11.952-26.644 26.643v420.062c5.422 3.76 10.997 7.313 16.724 10.635v-430.698c0-5.469 4.45-9.919 9.919-9.919h33.91c1.7 0 3.083 1.383 3.083 3.083 0 11.988 9.753 21.741 21.741 21.741h11.804c-.093-.293-.221-.576-.383-.842-4.369-7.156-.997-11.772 1.819-14.092.571-.47.929-1.107 1.086-1.79h-14.324z" fill="#543e5b"/><path d="m256 81.856c-38.103 0-69.101 30.999-69.101 69.101 0 24.145 12.456 45.423 31.271 57.783h75.661c18.814-12.36 31.271-33.639 31.271-57.783-.001-38.103-30.999-69.101-69.102-69.101z" fill="#ffdd40"/><path d="m224.518 89.475c-22.311 11.471-37.619 34.715-37.619 61.481 0 24.145 12.456 45.423 31.271 57.783h33.944l6.209-75.519-30.524-31.998c-7.079-2.94-3.525-11.202-3.281-11.747z" fill="#ffb332"/><path d="m227.558 200.574c.178-.009.356-.015.536-.015h55.812c.18 0 .359.005.537.015.435-.952.91-1.838 1.411-2.65 3.523-5.711 3.887-13.149-.584-19.678h-58.54c-4.4 6.425-4.18 13.849-.584 19.678.502.812.977 1.697 1.412 2.65z" fill="#af713b"/><path d="m226.147 197.924c.501.812.976 1.697 1.411 2.65.178-.009.356-.015.536-.015h20.882c.097-1.018-.1-2.053-.605-2.974-6.229-11.376 1.447-18.308 1.447-18.308l-1.121-1.031h-21.966c-4.4 6.424-4.18 13.848-.584 19.678z" fill="#965b27"/><path d="m283.906 199.932h-55.812c-5.101 0-9.337 3.863-9.945 8.807 10.88 7.151 23.886 11.318 37.85 11.318s26.971-4.168 37.851-11.318c-.607-4.943-4.843-8.807-9.944-8.807z" fill="#c7874e"/><path d="m248.999 199.932h-20.905c-5.101 0-9.337 3.863-9.945 8.807 9.621 6.324 20.908 10.308 33.047 11.147-6.479-6.485-4.407-13.885-2.692-17.586.349-.751.515-1.563.495-2.368z" fill="#af713b"/><path d="m447.5 228.716v99.212c0 21.446 9.812 40.706 25.162 53.53 18.087-34.164 28.34-73.112 28.34-114.46 0-34.712-7.234-67.728-20.252-97.648-19.91 12.321-33.25 34.358-33.25 59.366z" fill="#88ce65"/><path d="m39.338 381.458c15.35-12.824 25.162-32.085 25.162-53.53v-99.212c0-25.008-13.34-47.044-33.251-59.366-13.018 29.92-20.252 62.937-20.252 97.648.001 41.348 10.254 80.296 28.341 114.46z" fill="#88ce65"/><g><path d="m272.631 132.908h-33.262c3.635 3.481 8.934 18.03-9.597 40.338h52.456c-18.531-22.308-13.232-36.857-9.597-40.338z" fill="#af713b"/><path d="m249.869 172.761c4.142-8.678 5.818-19.111 6.475-25.115.306-2.798 2.672-4.914 5.487-4.914h7.238c.258-5.024 2.053-8.379 3.562-9.824h-33.262c3.635 3.481 8.934 18.03-9.597 40.338h19.724c.067-.079.127-.145.174-.195.081-.086.148-.183.199-.29z" fill="#965b27"/><path d="m275.086 133.221h-38.173c-2.067 0-3.758-1.691-3.758-3.758v-3.341h45.689v3.341c.001 2.067-1.691 3.758-3.758 3.758z" fill="#c7874e"/><path d="m258.323 126.435c-.317-.091-.604-.197-.867-.313h-24.3v3.341c0 2.067 1.691 3.758 3.758 3.758h21.409c-3.347-3.346 0-6.786 0-6.786z" fill="#af713b"/><path d="m276.88 102.253v2.011c0 .569-.461 1.03-1.03 1.03h-6.292c-.569 0-1.03-.461-1.03-1.03v-2.011c0-.569-.461-1.03-1.03-1.03h-6.292c-.569 0-1.03.461-1.03 1.03v2.011c0 .569-.461 1.03-1.03 1.03h-6.292c-.569 0-1.03-.461-1.03-1.03v-2.011c0-.569-.461-1.03-1.03-1.03h-6.292c-.569 0-1.03.461-1.03 1.03v2.011c0 .569-.461 1.03-1.03 1.03h-6.292c-.569 0-1.03-.461-1.03-1.03v-2.011c0-.569-.461-1.03-1.03-1.03h-6.292c-.569 0-1.03.461-1.03 1.03 0 .547 0 20.702 0 20.669 0 1.94 1.573 3.514 3.514 3.514h51.436c1.94 0 3.514-1.573 3.514-3.514 0-.806 0-21.279 0-20.669 0-.569-.461-1.03-1.03-1.03h-6.292c-.569 0-1.03.461-1.03 1.03z" fill="#e29b61"/><path d="m254.767 122.594s0-8.701 0-12.921c0-4.219 4.379-4.379 4.379-4.379h-6.292c-.569 0-1.03-.461-1.03-1.03v-2.011c0-.569-.461-1.03-1.03-1.03h-6.292c-.569 0-1.03.461-1.03 1.03v2.011c0 .569-.461 1.03-1.03 1.03h-6.292c-.569 0-1.03-.461-1.03-1.03v-2.011c0-.569-.461-1.03-1.03-1.03h-6.292c-.569 0-1.03.461-1.03 1.03 0 .547 0 20.702 0 20.669 0 1.94 1.573 3.514 3.514 3.514h28.041c-3.522-1.008-3.556-3.842-3.556-3.842z" fill="#c7874e"/></g><path d="m285.349 172.933c-3.26 0-55.437 0-58.697 0-1.752 0-3.172 1.42-3.172 3.172s1.42 3.172 3.172 3.172h58.697c1.752 0 3.172-1.42 3.172-3.172-.001-1.752-1.421-3.172-3.172-3.172z" fill="#c7874e"/><path d="m246.646 176.105c0-1.752 1.42-3.172 3.172-3.172-11.552 0-21.781 0-23.167 0-1.752 0-3.172 1.42-3.172 3.172s1.42 3.172 3.172 3.172h23.167c-1.752 0-3.172-1.42-3.172-3.172z" fill="#af713b"/><g><path d="m353.954 454.43h-195.908c-4.542 0-8.259-3.716-8.259-8.259v-195.908c0-4.542 3.716-8.259 8.259-8.259h195.908c4.542 0 8.259 3.716 8.259 8.259v195.908c0 4.543-3.717 8.259-8.259 8.259z" fill="#e29b61"/><path d="m241.104 242.004h-83.058c-4.542 0-8.259 3.716-8.259 8.259v195.908c0 4.542 3.717 8.259 8.259 8.259h83.058c-7.483-7.483 0-13.019 0-13.019v-186.388c-7.521-7.52 0-13.019 0-13.019z" fill="#c7874e"/><path d="m300.251 392.93h48.943v48.481h-48.943z" fill="#fff3e1"/><path d="m300.251 299.513h48.943v50.69h-48.943z" fill="#fff3e1"/><path d="m300.251 255.023h48.943v46.597h-48.943z" fill="#543e5b"/><path d="m300.251 348.217h48.943v46.597h-48.943z" fill="#543e5b"/><path d="m206.579 392.93h51.405v48.481h-51.405z" fill="#fff3e1"/><path d="m206.579 392.93v48.481h34.525c-5.174-2.219-8.822-7.368-8.822-13.33v-35.151z" fill="#ffe8c2"/><path d="m206.579 299.513h51.405v50.69h-51.405z" fill="#fff3e1"/><path d="m206.579 299.513h25.703v50.69h-25.703z" fill="#ffe8c2"/><path d="m206.579 255.023h51.405v46.597h-51.405z" fill="#543e5b"/><path d="m206.579 255.023v46.597h25.703v-33.267c0-5.962 3.649-11.111 8.822-13.33z" fill="#422953"/><path d="m206.579 348.217h51.405v46.597h-51.405z" fill="#543e5b"/><path d="m206.579 348.217h25.703v46.597h-25.703z" fill="#422953"/><path d="m162.806 392.93h46.597v48.481h-46.597z" fill="#422953"/><path d="m256 392.93h46.597v48.481h-46.597z" fill="#543e5b"/><path d="m162.806 299.513h46.597v50.69h-46.597z" fill="#422953"/><path d="m256 299.513h46.597v50.69h-46.597z" fill="#543e5b"/><path d="m162.806 255.023h46.597v46.597h-46.597z" fill="#ffe8c2"/><path d="m162.806 348.217h46.597v46.597h-46.597z" fill="#ffe8c2"/><g fill="#fff3e1"><path d="m256 255.023h46.597v46.597h-46.597z"/><path d="m256 348.217h46.597v46.597h-46.597z"/></g></g></g></svg>