<svg id="Layer_1" enable-background="new 0 0 512 512" height="512" viewBox="0 0 512 512" width="512" xmlns="http://www.w3.org/2000/svg"><g><path d="m244.998 11.002c-48.568 0-93.833 14.134-131.912 38.51v412.975c38.078 24.376 83.344 38.51 131.911 38.51 135.308 0 244.998-109.689 244.998-244.998s-109.689-244.997-244.997-244.997z" fill="#73c3f9"/><path d="m502.448 49.512h-389.362c-7.284 4.663-14.303 9.704-21.034 15.09l.007.008 405.288 397.878h7.063c4.191 0 7.589-3.398 7.589-7.589v-395.835c.001-5.253-4.297-9.552-9.551-9.552z" fill="#c7874e"/><path d="m502.448 49.512h-104.57s-7.277 7.063 0 15.098l99.469 99.469s7.629 7.023 14.652 0v-105.015c.001-5.253-4.297-9.552-9.551-9.552z" fill="#e29b61"/><path d="m92.052 64.602.007.008 57.145 56.101v-56.101c-8.125-8.125 0-15.098 0-15.098h-36.118c-7.284 4.663-14.303 9.704-21.034 15.09z" fill="#af713b"/><path d="m293.401 358.997h111.747v103.491h-111.747z" fill="#543e5b"/><path d="m293.401 159.58h111.747v108.208h-111.747z" fill="#543e5b"/><path d="m293.589 64.61h111.747v99.469h-111.747z" fill="#fff3e1"/><path d="m293.401 263.549h111.747v99.469h-111.747z" fill="#fff3e1"/><path d="m93.44 448.502c6.306 4.972 12.861 9.642 19.646 13.986h90.087v-103.491h-109.733z" fill="#543e5b"/><path d="m93.44 448.502c6.306 4.972 12.861 9.642 19.646 13.986h36.118c-26.753-38.352-11.188-78.259-3.509-93.272 1.645-3.216 1.74-6.923.448-10.219h-52.703z" fill="#422953"/><path d="m93.44 159.58h109.734v108.208h-109.734z" fill="#543e5b"/><path d="m93.44 159.58v108.208h52.373c2.002-2.761 3.391-4.24 3.391-4.24v-103.968z" fill="#422953"/><path d="m93.44 64.61h109.734v99.469h-109.734z" fill="#fff3e1"/><path d="m93.44 64.61h55.764v99.469h-55.764z" fill="#ffe8c2"/><path d="m93.44 263.549h109.734v99.469h-109.734z" fill="#fff3e1"/><path d="m93.44 263.549v99.469h53.587c-.101-2.139-.748-4.257-1.92-6.14-33.338-53.552 4.092-93.324 4.097-93.329z" fill="#ffe8c2"/><path d="m99.469 453.097v-94.1h-76.813c17.383 37.462 43.947 69.792 76.813 94.1z" fill="#ffe8c2"/><path d="m198.939 358.997h99.47v103.491h-99.47z" fill="#fff3e1"/><path d="m19.715 159.58c-3.161 7.376-5.97 14.938-8.408 22.665l-9.564 44.555c-1.139 9.577-1.743 19.317-1.743 29.2 0 3.953.102 7.881.287 11.788h99.182v-108.208z" fill="#ffe8c2"/><path d="m198.939 159.58h99.47v108.208h-99.47z" fill="#fff3e1"/><path d="m92.059 64.61c-4.145 3.317-8.179 6.767-12.097 10.341l-58.322 80.289c-1.318 2.918-2.588 5.862-3.794 8.839h81.623v-99.469z" fill="#422953"/><path d="m24.557 363.018h74.912v-99.469h-99.343c1.078 35.586 9.74 69.263 24.431 99.469z" fill="#422953"/><path d="m198.939 64.61h99.47v99.469h-99.47z" fill="#543e5b"/><path d="m198.939 263.549h99.47v99.469h-99.47z" fill="#543e5b"/><path d="m397.878 358.997h99.469v103.491h-99.469z" fill="#fff3e1"/><path d="m397.878 159.58h99.469v108.208h-99.469z" fill="#fff3e1"/><path d="m397.878 64.61h99.469v99.469h-99.469z" fill="#543e5b"/><path d="m397.878 263.549h99.469v99.469h-99.469z" fill="#543e5b"/><path d="m447.612 64.61c-27.468 0-49.735 22.267-49.735 49.735 0 19.313 11.016 36.042 27.1 44.281h45.27c16.084-8.239 27.1-24.968 27.1-44.281 0-27.468-22.267-49.735-49.735-49.735z" fill="#b4d667"/><path d="m488.216 143.048c-19.625-1.742-17.969-20.818-17.969-20.818l-34.812-33.055c-13.538-4.302-7.022-20.657-6.992-20.732-17.951 7.505-30.566 25.228-30.566 45.901 0 19.313 11.016 36.042 27.1 44.281h45.27c7.177-3.675 13.339-9.045 17.969-15.577z" fill="#5cc563"/><path d="m430 122.731c3.465 3.318 8.348 16.138-5.022 35.894 6.791 3.479 14.48 5.454 22.635 5.454s15.844-1.975 22.635-5.454c-13.37-19.757-8.487-32.576-5.022-35.894z" fill="#ffc839"/><path d="m440.276 163.516c12.707-14.953 8.815-40.453 8.815-40.453-.112-.112-.195-.221-.294-.332h-18.797c3.466 3.318 8.348 16.137-5.022 35.894 4.712 2.414 9.865 4.083 15.298 4.891z" fill="#ffa219"/><path d="m467.825 123.063h-40.425c-2.189 0-3.98-1.791-3.98-3.98v-3.538h48.386v3.538c0 2.189-1.792 3.98-3.981 3.98z" fill="#ffdd40"/><path d="m423.419 119.083c0 2.189 1.791 3.98 3.98 3.98h21.691c-3.844-3.843 0-7.187 0-7.187l-.071-.331h-25.6z" fill="#ffc839"/><path d="m469.725 90.267v2.13c0 .603-.488 1.091-1.091 1.091h-6.663c-.602 0-1.091-.488-1.091-1.091v-2.13c0-.603-.489-1.091-1.091-1.091h-6.663c-.603 0-1.091.489-1.091 1.091v2.13c0 .603-.488 1.091-1.091 1.091h-6.663c-.603 0-1.091-.488-1.091-1.091v-2.13c0-.603-.488-1.091-1.091-1.091h-6.663c-.603 0-1.091.489-1.091 1.091v2.13c0 .603-.488 1.091-1.091 1.091h-6.663c-.603 0-1.091-.488-1.091-1.091v-2.13c0-.603-.488-1.091-1.091-1.091h-6.663c-.602 0-1.091.489-1.091 1.091 0 .579 0 21.924 0 21.889 0 2.055 1.666 3.721 3.721 3.721h54.473c2.055 0 3.721-1.666 3.721-3.721 0-.854 0-22.535 0-21.889 0-.603-.488-1.091-1.091-1.091h-6.663c-.603 0-1.091.488-1.091 1.091z" fill="#fce99a"/><path d="m388.209 143.804c6.074-8.247 9.669-18.432 9.669-29.459 0-27.468-22.267-49.735-49.735-49.735s-49.735 22.267-49.735 49.735c0 17.242 8.777 32.432 22.104 41.354z" fill="#b4d667"/><path d="m379.184 141.61-47.052-62.893c-6.889-1.01-6.729-6.68-6.432-8.752-16.188 8.204-27.291 24.989-27.291 44.379 0 17.242 8.777 32.432 22.104 41.354l60.234-10.584c-1.334-1.701-1.563-3.504-1.563-3.504z" fill="#5cc563"/><path d="m388.209 143.804c1.65-10.433 1.321-21.423-2.465-31.36-9.366-24.581-30.902-29.888-42.609-28.404 1.643 1.278 3.232 2.811 4.633 4.651.824 1.082 1.898 1.942 3.138 2.499 6.143 2.754 24.808 13.839 24.808 46.858 0 6.847-.653 13.135-1.626 18.731 5.507-3.374 10.303-7.791 14.121-12.975z" fill="#fce99a"/><path d="m343.134 84.04c1.643 1.278 3.232 2.811 4.633 4.651.824 1.082 1.898 1.942 3.139 2.499 4.534 2.033 15.884 8.617 21.521 25.197 3.495-8.058 13.317-3.944 13.317-3.944-9.367-24.581-30.903-29.888-42.61-28.403z" fill="#ffdd40"/><path d="m351.569 91.19c-1.241-.557-2.315-1.416-3.139-2.499-4.693-6.166-11.492-8.905-15.391-10.03-1.165-.336-2.145.914-1.55 1.97 0 0 9.159 8.626.14 12.42-.212.099-.43.189-.659.263-.019.006-.037.012-.056.019-3.059 1.003-5.507 3.313-6.768 6.275-1.927 4.528-5.049 11.702-6.505 14.148-1.055 1.773-2.457 2.284-3.625 2.337-.831.038-1.656.201-2.417.538-2.705 1.2-4.378 3.937-4.186 6.754.299 4.403 1.748 7.554 3.106 9.593 1.14 1.712 3.566 1.938 5.028.491l1.124-1.303c.135.411.648 1.296 1.417 1.832 1.405.979 3.871.333 5.256-.675l7.798-5.552c1.535-1.093 3.407-1.617 5.285-1.457 2.458.21 6.108.237 8.945-.948.247-.103.46.2.272.391-4.975 5.061-20.56 16.905-25.132 29.94 7.903 5.291 17.405 8.38 27.63 8.38 9.824 0 18.975-2.86 26.689-7.777.928-5.478 1.545-11.602 1.545-18.254.001-33.017-18.665-44.102-24.807-46.856z" fill="#ffc839"/><path d="m330.299 107.852 8.785-7.758c.523-.462 1.328.031 1.154.707l-1.629 6.33c-.297 1.154-1.337 1.96-2.529 1.96h-5.313c-.651-.001-.957-.807-.468-1.239z" fill="#ffdd40"/><path d="m248.674 64.61c-27.468 0-49.735 22.267-49.735 49.735 0 22.666 15.168 41.777 35.903 47.771h27.662c20.735-5.994 35.904-25.105 35.904-47.771 0-27.468-22.267-49.735-49.734-49.735z" fill="#b4d667"/><path d="m268.938 114.779-26.742-1.947-5.614-23.916c-14.619 0-14.309-16.541-14.305-16.716-14.014 8.797-23.338 24.378-23.338 42.145 0 22.666 15.168 41.777 35.904 47.771h27.662c14.679-4.243 26.56-15.064 32.253-29.063-23.512 2.316-25.82-18.274-25.82-18.274z" fill="#5cc563"/><path d="m234.842 162.115c4.393 1.27 9.03 1.964 13.831 1.964 4.802 0 9.439-.694 13.831-1.964.413-7.772 6.052-10.385 6.052-10.385-31.198 0-11.374 0-39.767 0 .001.001 5.64 2.614 6.053 10.385z" fill="#ffc839"/><path d="m234.842 162.115c4.321 1.249 8.878 1.937 13.596 1.959 1.951-3.755.362-10.106-.077-11.661-.065-.231-.191-.436-.354-.612-.022-.024-.039-.047-.06-.071-2.656 0-4.349 0-19.158 0 .001.001 5.64 2.614 6.053 10.385z" fill="#ffa219"/><path d="m252.941 105.171c-1.312 1.312-3.439 1.312-4.75 0-1.312-1.312-1.312-3.439 0-4.75.714-.714 4.564-4.564 9.713-9.713 1.321-1.321 1.381-3.446.134-4.838l-3.596-4.014h-11.534l-9.009 10.057c-7.558 8.436-8.294 20.68-2.434 29.856h34.42c4.663-7.3 5.148-16.543 1.345-24.264-1.071-2.174-3.947-2.674-5.661-.96-4.6 4.598-7.965 7.963-8.628 8.626z" fill="#ffc839"/><path d="m253.338 70.799h-9.329c-3.325 0-6.046 2.721-6.046 6.046 0 3.326 2.721 6.046 6.046 6.046h9.329c3.325 0 6.046-2.721 6.046-6.046 0-3.325-2.721-6.046-6.046-6.046z" fill="#fce99a"/><path d="m248.193 76.846c0-3.173 2.479-5.79 5.596-6.023-.149-.011-.299-.023-.451-.023h-9.329c-3.326 0-6.046 2.721-6.046 6.046s2.721 6.046 6.046 6.046h9.329c.152 0 .301-.012.451-.023-3.117-.233-5.596-2.85-5.596-6.023z" fill="#ffdd40"/><path d="m80.004 74.893c-7.207 6.57-14.008 13.575-20.389 20.954l-29.261 41.969-.004-.001c-.226.409-.451.819-.674 1.23l-6.213 12.238c-.637 1.346-1.278 2.691-1.891 4.051 1.737 1.195 3.558 2.277 5.444 3.248h45.438c16.037-8.254 27.014-24.959 27.014-44.237.001-16.076-7.632-30.361-19.464-39.452z" fill="#b4d667"/><path d="m95.255 134.392c-17.058 2.485-19.068-13.682-19.068-13.682l-28.043-8.409-17.789 25.515-.004-.001c-.226.409-.451.819-.674 1.23l-6.212 12.238c-.638 1.346-1.278 2.691-1.891 4.051 1.737 1.195 3.558 2.277 5.444 3.248h45.438c10.101-5.2 18.191-13.753 22.799-24.19z" fill="#5cc563"/><path d="m70.177 104.044s-5.811-2.521-10.451-8.356c-2.365 2.731-4.665 5.521-6.909 8.356z" fill="#ffc839"/><path d="m49.734 113.11 32.313-.622c-.106-1.11-.676-2.155-1.723-2.933l-5.926-4.401c-1.262-.937-2.792-1.443-4.364-1.443h-16.951c-2.424 3.051-4.776 6.16-7.055 9.327z" fill="#ffdd40"/><path d="m46.46 112.447c-5.866 8.098-11.249 16.567-16.106 25.369.099.467.197.934.274 1.405.121-.011.243-.019.366-.019h37.48c.123 0 .245.007.366.019 1.566-9.545 7.824-18.21 11.857-22.962 1.18-1.494 1.454-2.786 1.345-3.813-8.838.001-22.697.001-35.582.001z" fill="#ffc839"/><path d="m30.354 137.816c.099.467.197.934.274 1.405.121-.011.243-.019.366-.019h17.614c.053-.425-.046-.862-.323-1.215-1.487-1.888-.744-3.725.001-4.818.411-.602.368-1.39-.085-1.96-1.479-1.859-.731-3.657.034-4.74.442-.626.349-1.457-.194-1.998-4.97-4.969-1.582-12.025-1.582-12.025-5.865 8.099-11.248 16.568-16.105 25.37z" fill="#ffa219"/><path d="m72.827 125.435h-35.158c-1.398 2.215-2.76 4.455-4.088 6.718h39.246c1.855 0 3.359-1.504 3.359-3.359s-1.504-3.359-3.359-3.359z" fill="#ffdd40"/><path d="m33.581 132.153h14.982c-.021-.335-.14-.665-.362-.943-1.479-1.859-.731-3.657.034-4.74.222-.314.308-.68.271-1.035h-10.837c-1.398 2.215-2.759 4.455-4.088 6.718z" fill="#ffc839"/><path d="m68.475 138.871h-38.71c-1.351 2.479-2.651 4.989-3.918 7.518h46.609v-3.538c-.001-2.189-1.792-3.98-3.981-3.98z" fill="#ffdd40"/><path d="m48.37 144.785c-1.328-1.986-.642-3.847.028-4.933.186-.302.259-.645.231-.981h-18.865c-1.352 2.479-2.651 4.989-3.918 7.518h22.577c.267-.505.272-1.117-.053-1.604z" fill="#ffc839"/><path d="m72.455 158.581c-6.812 3.506-14.531 5.498-22.72 5.498s-15.908-1.992-22.72-5.498v-4.232h45.441v4.232z" fill="#ffdd40"/><path d="m27.014 158.581c6.675 3.436 14.224 5.404 22.23 5.483-.024-.33-.137-.657-.353-.933-2.35-3.011-1.39-5.675-.531-7.076.326-.531.337-1.19.023-1.706h-21.37v4.232z" fill="#ffc839"/><path d="m71.543 145.726h-43.617c-.711 0-1.376.172-1.978.457-.867 1.727-1.715 3.464-2.542 5.214.469 2.068 2.311 3.616 4.521 3.616h43.617c2.565 0 4.644-2.079 4.644-4.644s-2.081-4.643-4.645-4.643z" fill="#fce99a"/><path d="m25.948 146.184c-.867 1.727-1.715 3.464-2.542 5.214.469 2.068 2.311 3.616 4.521 3.616h20.685c-.025-.32-.137-.63-.361-.882-2.748-3.097-1.15-6.025.015-7.468.22-.273.341-.603.359-.937h-20.699c-.71-.001-1.376.171-1.978.457z" fill="#ffdd40"/><path d="m149.204 64.61c-27.468 0-49.735 22.267-49.735 49.735 0 20.036 11.855 37.294 28.927 45.171h41.615c17.072-7.877 28.927-25.135 28.927-45.171.001-27.468-22.266-49.735-49.734-49.735z" fill="#b4d667"/><path d="m193.982 135.99c-13.318.483-13.223-11.887-13.223-11.887l-31.554 1.332v-40.324h-16.535c-12.763-.383-11.352-11.916-11.347-11.954-13.187 8.944-21.853 24.053-21.853 41.188 0 20.036 11.855 37.294 28.928 45.171h41.615c10.458-4.826 18.952-13.177 23.969-23.526z" fill="#5cc563"/><path d="m137.096 78.186 6.385 3.84c.813.489 1.739-.436 1.25-1.25l-4.299-7.148c-1.171-1.947.231-4.426 2.503-4.426h12.538c2.272 0 3.674 2.479 2.503 4.426l-4.299 7.148c-.489.813.436 1.739 1.249 1.25l6.385-3.84c1.947-1.171 4.426.231 4.426 2.503v10.095c0 2.272-2.479 3.674-4.426 2.503l-6.385-3.84c-.813-.489-1.738.436-1.249 1.249l4.298 7.148c1.171 1.947-.231 4.426-2.503 4.426h-12.539c-2.272 0-3.674-2.479-2.503-4.426l4.298-7.148c.489-.813-.436-1.738-1.25-1.25l-6.385 3.84c-1.947 1.171-4.426-.231-4.426-2.503v-10.094c.002-2.272 2.482-3.674 4.429-2.503z" fill="#fce99a"/><path d="m153.865 89.547-.003-.004c-9.23.836-9.315-7.614-9.315-7.614l-.003-.003c-.273.24-.678.331-1.063.1l-6.385-3.84c-1.947-1.171-4.426.231-4.426 2.503v10.095c0 2.272 2.48 3.674 4.426 2.503l6.385-3.84c.813-.489 1.739.436 1.25 1.249l-4.298 7.148c-1.171 1.947.231 4.426 2.503 4.426h12.538c2.272 0 3.674-2.479 2.503-4.426l-4.298-7.148c-.259-.428-.119-.882.186-1.149z" fill="#ffdd40"/><path d="m139.186 101.882h20.036c2.568 0 4.669 2.101 4.669 4.669v4.15h-29.373v-4.15c-.001-2.568 2.1-4.669 4.668-4.669z" fill="#ffc839"/><path d="m148.213 109.102c-1.716-2.646-.533-5.137.324-6.385.174-.253.271-.541.311-.834h-9.662c-2.568 0-4.669 2.101-4.669 4.668v4.15h13.951c.137-.534.061-1.113-.255-1.599z" fill="#ffa219"/><path d="m116.277 118.222c.267-.713.795-1.293 1.447-1.686 3.863-2.322 11.341-6.225 17.993-6.225h26.974c6.652 0 14.13 3.903 17.993 6.225.652.392 1.181.973 1.447 1.686l.01.027-32.937.751-32.937-.751z" fill="#ffdd40"/><path d="m148.04 117.099c-1.894-2.293-.873-4.442.099-5.685.255-.326.383-.711.402-1.102-4.924 0-9.772 0-12.824 0-6.651 0-14.13 3.903-17.993 6.225-.652.392-1.18.973-1.447 1.686l-.01.027 32.149.733c.201-.634.068-1.346-.376-1.884z" fill="#ffc839"/><path d="m116.278 118.223h65.852c.273.728.374 1.734-.157 2.993h.001c-6.144 14.17-9.936 28.929-11.963 38.3-6.332 2.922-13.376 4.563-20.807 4.563s-14.475-1.642-20.807-4.563c-2.027-9.371-5.819-24.13-11.963-38.3h.001c-.531-1.26-.43-2.265-.157-2.993z" fill="#ffc839"/><path d="m116.435 121.215h-.001c6.144 14.17 9.936 28.929 11.963 38.3 6.332 2.922 13.376 4.563 20.807 4.563-4.599-4.599-2.472-8.929-.996-10.924.504-.681.506-1.606.019-2.3-1.728-2.458-.873-4.504-.015-5.673.51-.696.521-1.633.018-2.334-7.709-10.727-2.509-19.999-.082-23.321.284-.389.388-.851.346-1.305-15.735 0-31.254 0-32.216 0-.272.73-.374 1.735.157 2.994z" fill="#ffa219"/><path d="m126.445 152.005h45.517c2.176 0 3.94-1.764 3.94-3.94 0-2.176-1.764-3.94-3.94-3.94h-45.517c-2.176 0-3.94 1.764-3.94 3.94 0 2.176 1.764 3.94 3.94 3.94z" fill="#ffdd40"/><path d="m148.583 144.125h-22.138c-2.176 0-3.94 1.764-3.94 3.94s1.764 3.94 3.94 3.94h22.143c.002-.401-.119-.804-.361-1.149-1.728-2.458-.873-4.504-.015-5.673.232-.317.348-.686.371-1.058z" fill="#ffc839"/><path d="m22.906 255.686.002-.003 53.655-.001c13.773-8.844 22.907-24.285 22.907-41.869 0-27.467-22.267-49.735-49.735-49.735-15.479 0-29.305 7.073-38.426 18.161-4.522 14.341-7.753 29.253-9.573 44.599 3.259 12.044 10.931 22.271 21.17 28.848z" fill="#b4d667"/><path d="m95.039 234.298c-26.949 5.633-28.027-16.217-28.027-16.217l-30.532-36.285c-11.405-1.721-8.301-12.781-8.291-12.818-6.553 3.155-12.308 7.703-16.881 13.262-4.522 14.341-7.753 29.253-9.573 44.599 3.261 12.044 10.932 22.27 21.171 28.848l.002-.003 53.655-.001c8.048-5.169 14.493-12.6 18.476-21.385z" fill="#5cc563"/><g><g><path d="m61.305 224.005c-.229.046-.466.07-.708.07h-21.726c-.242 0-.479-.025-.708-.07-.235 7.338-2.598 11.889-4.581 14.435h32.304c-1.982-2.546-4.346-7.097-4.581-14.435z" fill="#ffc839"/></g><path d="m47.435 238.44c.174-.194.3-.305.3-.305 1.623-2.983 1.929-10.18 1.987-12.79.01-.448-.11-.881-.325-1.27h-10.526c-.242 0-.479-.025-.708-.07-.235 7.338-2.598 11.889-4.581 14.435z" fill="#ffa219"/><path d="m22.907 255.683c7.742 4.971 16.943 7.865 26.827 7.865s19.086-2.895 26.828-7.866c-.32-4.051-2.396-8.389-5.128-12.378h-43.382c-2.706 3.951-4.827 8.289-5.145 12.379z" fill="#ffc839"/><path d="m46.868 245.655c.413-.734.365-1.596.007-2.35h-18.823c-2.705 3.95-4.827 8.288-5.144 12.378 7.742 4.971 16.943 7.865 26.827 7.865-7.44-7.439-4.541-14.914-2.867-17.893z" fill="#ffa219"/><path d="m71.269 238.135c-3.173 0-39.897 0-43.07 0-1.705 0-3.087 1.382-3.087 3.087s1.382 3.087 3.087 3.087h43.07c1.705 0 3.087-1.382 3.087-3.087s-1.382-3.087-3.087-3.087z" fill="#ffdd40"/><path d="m28.199 244.309h18.956c-.03-.419-.155-.837-.373-1.217-1.585-2.767.95-4.956.95-4.956-9.27-.001-18.053-.001-19.533-.001-1.705 0-3.087 1.382-3.087 3.087.001 1.704 1.383 3.087 3.087 3.087z" fill="#ffc839"/><path d="m65.446 209.852c2.836-3.484 4.538-7.928 4.538-12.77 0-11.183-9.066-20.249-20.249-20.249s-20.249 9.066-20.249 20.249c0 4.842 1.702 9.286 4.538 12.77z" fill="#ffdd40"/><path d="m48.57 209.852c-.145-.629-.521-1.201-1.106-1.562-12.257-7.587-11.471-21.277-10.898-25.495.046-.341.004-.677-.086-.998-4.278 3.712-6.995 9.176-6.995 15.285 0 4.842 1.702 9.286 4.538 12.77z" fill="#ffc839"/><path d="m60.597 224.38h-21.726c-2.012 0-3.657-1.646-3.657-3.658v-3.251h29.041v3.251c0 2.012-1.646 3.658-3.658 3.658z" fill="#ffdd40"/><path d="m38.871 224.38h10.665c-.086-.216-.194-.425-.335-.615-1.212-1.639-.847-3.279-.322-4.374.293-.611.332-1.294.132-1.92h-13.797v3.251c0 2.012 1.646 3.658 3.657 3.658z" fill="#ffc839"/><path d="m67.012 218.081h-34.555c-2.357 0-4.267-1.911-4.267-4.267 0-2.357 1.91-4.267 4.267-4.267h34.556c2.357 0 4.267 1.91 4.267 4.267-.001 2.357-1.911 4.267-4.268 4.267z" fill="#fce99a"/><path d="m32.457 218.081h16.674c-.03-.435-.169-.863-.417-1.244-1.337-2.053-.958-3.989-.313-5.349.299-.63.304-1.327.078-1.941h-16.022c-2.357 0-4.267 1.911-4.267 4.267 0 2.357 1.91 4.267 4.267 4.267z" fill="#ffdd40"/><circle cx="56.901" cy="191.145" fill="#fce99a" r="6.375"/></g><g><path d="m447.612 164.079c-27.468 0-49.735 22.267-49.735 49.735 0 17.585 9.134 33.025 22.908 41.869l53.655-.001c13.773-8.844 22.907-24.285 22.907-41.869 0-27.467-22.267-49.734-49.735-49.734z" fill="#b4d667"/><path d="m494.184 231.227c-25.63 6.058-26.323-14.354-26.323-14.354l-33.503-35.077c-11.778 0-10.941-11.4-10.939-11.435-15.234 8.5-25.542 24.769-25.542 43.452 0 17.585 9.134 33.025 22.908 41.869l53.655-.001c8.971-5.758 15.952-14.327 19.744-24.454z" fill="#5cc563"/><g><path d="m459.184 224.005c-.229.046-.466.07-.708.07h-21.726c-.242 0-.479-.025-.708-.07-.235 7.338-2.599 11.889-4.581 14.435h32.304c-1.983-2.546-4.346-7.097-4.581-14.435z" fill="#ffc839"/></g><path d="m445.313 238.44c.174-.194.3-.305.3-.305 1.623-2.983 1.929-10.18 1.987-12.79.01-.448-.11-.881-.325-1.27h-10.525c-.242 0-.479-.025-.708-.07-.235 7.338-2.599 11.889-4.581 14.435z" fill="#ffa219"/><path d="m420.786 255.683c7.742 4.971 16.943 7.865 26.827 7.865s19.086-2.895 26.828-7.866c-.32-4.051-2.396-8.389-5.128-12.378h-43.383c-2.706 3.951-4.827 8.289-5.144 12.379z" fill="#ffc839"/><path d="m444.747 245.655c.413-.734.365-1.596.007-2.35h-18.824c-2.705 3.95-4.827 8.288-5.144 12.378 7.742 4.971 16.943 7.865 26.827 7.865-7.44-7.439-4.541-14.914-2.866-17.893z" fill="#ffa219"/><path d="m469.148 238.135c-3.173 0-39.897 0-43.07 0-1.705 0-3.087 1.382-3.087 3.087s1.382 3.087 3.087 3.087h43.07c1.705 0 3.087-1.382 3.087-3.087s-1.383-3.087-3.087-3.087z" fill="#ffdd40"/><path d="m426.077 244.309h18.956c-.03-.419-.155-.837-.372-1.217-1.585-2.767.95-4.956.95-4.956-9.27-.001-18.053-.001-19.533-.001-1.705 0-3.087 1.382-3.087 3.087 0 1.704 1.382 3.087 3.086 3.087z" fill="#ffc839"/><path d="m463.324 209.852c2.836-3.484 4.538-7.928 4.538-12.77 0-11.183-9.066-20.249-20.249-20.249s-20.249 9.066-20.249 20.249c0 4.842 1.702 9.286 4.538 12.77z" fill="#ffdd40"/><path d="m446.448 209.852c-.145-.629-.521-1.201-1.106-1.562-12.258-7.587-11.471-21.277-10.898-25.495.046-.341.004-.677-.086-.998-4.278 3.712-6.995 9.176-6.995 15.285 0 4.842 1.702 9.286 4.538 12.77z" fill="#ffc839"/><path d="m458.475 224.38h-21.725c-2.012 0-3.658-1.646-3.658-3.658v-3.251h29.041v3.251c0 2.012-1.646 3.658-3.658 3.658z" fill="#ffdd40"/><path d="m436.75 224.38h10.665c-.086-.216-.194-.425-.335-.615-1.212-1.639-.847-3.279-.322-4.374.293-.611.332-1.294.132-1.92h-13.798v3.251c0 2.012 1.646 3.658 3.658 3.658z" fill="#ffc839"/><path d="m464.89 218.081h-34.556c-2.357 0-4.267-1.911-4.267-4.267 0-2.357 1.91-4.267 4.267-4.267h34.556c2.356 0 4.267 1.91 4.267 4.267 0 2.357-1.91 4.267-4.267 4.267z" fill="#fce99a"/><path d="m430.335 218.081h16.674c-.03-.435-.169-.863-.417-1.244-1.337-2.053-.958-3.989-.313-5.349.299-.63.304-1.327.078-1.941h-16.022c-2.357 0-4.267 1.911-4.267 4.267 0 2.357 1.91 4.267 4.267 4.267z" fill="#ffdd40"/><circle cx="454.779" cy="191.145" fill="#fce99a" r="6.375"/></g><g><path d="m248.674 164.079c-27.468 0-49.735 22.267-49.735 49.735 0 17.585 9.134 33.025 22.908 41.869l53.655-.001c13.773-8.844 22.907-24.285 22.907-41.869-.001-27.467-22.268-49.734-49.735-49.734z" fill="#b4d667"/><path d="m295.246 231.227c-25.63 6.058-26.323-14.354-26.323-14.354l-33.503-35.077c-11.778 0-10.941-11.4-10.939-11.435-15.234 8.5-25.542 24.769-25.542 43.452 0 17.585 9.134 33.025 22.908 41.869l53.655-.001c8.97-5.758 15.951-14.327 19.744-24.454z" fill="#5cc563"/><g><path d="m260.245 224.005c-.229.046-.466.07-.708.07h-21.726c-.242 0-.479-.025-.708-.07-.235 7.338-2.598 11.889-4.581 14.435h32.304c-1.983-2.546-4.346-7.097-4.581-14.435z" fill="#ffc839"/></g><path d="m246.374 238.44c.174-.194.3-.305.3-.305 1.623-2.983 1.929-10.18 1.987-12.79.01-.448-.11-.881-.325-1.27h-10.525c-.242 0-.479-.025-.708-.07-.235 7.338-2.598 11.889-4.581 14.435z" fill="#ffa219"/><path d="m221.847 255.683c7.742 4.971 16.943 7.865 26.827 7.865s19.086-2.895 26.828-7.866c-.32-4.051-2.396-8.389-5.128-12.378h-43.383c-2.705 3.951-4.827 8.289-5.144 12.379z" fill="#ffc839"/><path d="m245.808 245.655c.413-.734.365-1.596.007-2.35h-18.823c-2.705 3.95-4.827 8.288-5.144 12.378 7.742 4.971 16.943 7.865 26.827 7.865-7.441-7.439-4.542-14.914-2.867-17.893z" fill="#ffa219"/><path d="m270.209 238.135c-3.173 0-39.897 0-43.07 0-1.705 0-3.087 1.382-3.087 3.087s1.382 3.087 3.087 3.087h43.07c1.705 0 3.087-1.382 3.087-3.087s-1.382-3.087-3.087-3.087z" fill="#ffdd40"/><path d="m227.139 244.309h18.956c-.03-.419-.155-.837-.373-1.217-1.585-2.767.95-4.956.95-4.956-9.27-.001-18.053-.001-19.533-.001-1.705 0-3.087 1.382-3.087 3.087 0 1.704 1.382 3.087 3.087 3.087z" fill="#ffc839"/><path d="m264.385 209.852c2.836-3.484 4.538-7.928 4.538-12.77 0-11.183-9.066-20.249-20.249-20.249s-20.249 9.066-20.249 20.249c0 4.842 1.702 9.286 4.538 12.77z" fill="#ffdd40"/><path d="m247.509 209.852c-.145-.629-.521-1.201-1.106-1.562-12.258-7.587-11.471-21.277-10.898-25.495.046-.341.004-.677-.086-.998-4.278 3.712-6.995 9.176-6.995 15.285 0 4.842 1.702 9.286 4.538 12.77z" fill="#ffc839"/><path d="m259.537 224.38h-21.726c-2.012 0-3.658-1.646-3.658-3.658v-3.251h29.041v3.251c0 2.012-1.646 3.658-3.657 3.658z" fill="#ffdd40"/><path d="m237.811 224.38h10.665c-.086-.216-.194-.425-.335-.615-1.212-1.639-.847-3.279-.322-4.374.293-.611.332-1.294.132-1.92h-13.798v3.251c0 2.012 1.646 3.658 3.658 3.658z" fill="#ffc839"/><path d="m265.952 218.081h-34.556c-2.357 0-4.267-1.911-4.267-4.267 0-2.357 1.911-4.267 4.267-4.267h34.556c2.357 0 4.267 1.91 4.267 4.267 0 2.357-1.911 4.267-4.267 4.267z" fill="#fce99a"/><path d="m231.396 218.081h16.674c-.03-.435-.169-.863-.417-1.244-1.337-2.053-.958-3.989-.313-5.349.299-.63.304-1.327.078-1.941h-16.022c-2.357 0-4.267 1.911-4.267 4.267 0 2.357 1.91 4.267 4.267 4.267z" fill="#ffdd40"/><circle cx="255.84" cy="191.145" fill="#fce99a" r="6.375"/></g><g><path d="m348.143 164.079c-27.468 0-49.735 22.267-49.735 49.735 0 17.585 9.134 33.025 22.908 41.869l53.655-.001c13.773-8.844 22.907-24.285 22.907-41.869 0-27.467-22.267-49.734-49.735-49.734z" fill="#b4d667"/><path d="m394.715 231.227c-25.63 6.058-26.323-14.354-26.323-14.354l-33.503-35.077c-11.778 0-10.941-11.4-10.939-11.435-15.234 8.5-25.542 24.769-25.542 43.452 0 17.585 9.134 33.025 22.908 41.869l53.655-.001c8.97-5.758 15.951-14.327 19.744-24.454z" fill="#5cc563"/><g><path d="m359.714 224.005c-.229.046-.466.07-.708.07h-21.726c-.242 0-.479-.025-.708-.07-.235 7.338-2.598 11.889-4.581 14.435h32.304c-1.982-2.546-4.346-7.097-4.581-14.435z" fill="#ffc839"/></g><path d="m345.843 238.44c.174-.194.3-.305.3-.305 1.623-2.983 1.929-10.18 1.987-12.79.01-.448-.11-.881-.325-1.27h-10.525c-.242 0-.479-.025-.708-.07-.235 7.338-2.598 11.889-4.581 14.435z" fill="#ffa219"/><path d="m321.316 255.683c7.742 4.971 16.943 7.865 26.827 7.865s19.086-2.895 26.828-7.866c-.32-4.051-2.396-8.389-5.128-12.378h-43.383c-2.705 3.951-4.827 8.289-5.144 12.379z" fill="#ffc839"/><path d="m345.277 245.655c.413-.734.365-1.596.007-2.35h-18.824c-2.705 3.95-4.827 8.288-5.144 12.378 7.742 4.971 16.943 7.865 26.827 7.865-7.439-7.439-4.54-14.914-2.866-17.893z" fill="#ffa219"/><path d="m369.678 238.135c-3.173 0-39.897 0-43.07 0-1.705 0-3.087 1.382-3.087 3.087s1.382 3.087 3.087 3.087h43.07c1.705 0 3.087-1.382 3.087-3.087s-1.382-3.087-3.087-3.087z" fill="#ffdd40"/><path d="m326.608 244.309h18.956c-.03-.419-.155-.837-.373-1.217-1.585-2.767.95-4.956.95-4.956-9.27-.001-18.053-.001-19.533-.001-1.705 0-3.087 1.382-3.087 3.087 0 1.704 1.382 3.087 3.087 3.087z" fill="#ffc839"/><path d="m363.854 209.852c2.836-3.484 4.538-7.928 4.538-12.77 0-11.183-9.066-20.249-20.249-20.249s-20.249 9.066-20.249 20.249c0 4.842 1.702 9.286 4.538 12.77z" fill="#ffdd40"/><path d="m346.979 209.852c-.145-.629-.521-1.201-1.106-1.562-12.258-7.587-11.471-21.277-10.898-25.495.046-.341.004-.677-.086-.998-4.278 3.712-6.995 9.176-6.995 15.285 0 4.842 1.702 9.286 4.538 12.77z" fill="#ffc839"/><path d="m359.006 224.38h-21.726c-2.012 0-3.658-1.646-3.658-3.658v-3.251h29.041v3.251c.001 2.012-1.645 3.658-3.657 3.658z" fill="#ffdd40"/><path d="m337.28 224.38h10.665c-.086-.216-.194-.425-.335-.615-1.212-1.639-.847-3.279-.322-4.374.293-.611.332-1.294.132-1.92h-13.798v3.251c.001 2.012 1.646 3.658 3.658 3.658z" fill="#ffc839"/><path d="m365.421 218.081h-34.556c-2.357 0-4.267-1.911-4.267-4.267 0-2.357 1.91-4.267 4.267-4.267h34.556c2.357 0 4.267 1.91 4.267 4.267 0 2.357-1.911 4.267-4.267 4.267z" fill="#fce99a"/><path d="m330.865 218.081h16.674c-.03-.435-.169-.863-.417-1.244-1.337-2.053-.958-3.989-.313-5.349.299-.63.304-1.327.078-1.941h-16.022c-2.357 0-4.267 1.911-4.267 4.267 0 2.357 1.911 4.267 4.267 4.267z" fill="#ffdd40"/><circle cx="355.31" cy="191.145" fill="#fce99a" r="6.375"/></g><g><path d="m149.204 164.079c-27.468 0-49.735 22.267-49.735 49.735 0 17.585 9.134 33.025 22.908 41.869l53.655-.001c13.773-8.844 22.907-24.285 22.907-41.869 0-27.467-22.267-49.734-49.735-49.734z" fill="#b4d667"/><path d="m195.776 231.227c-25.63 6.058-26.323-14.354-26.323-14.354l-33.503-35.077c-11.778 0-10.941-11.4-10.939-11.435-15.234 8.5-25.542 24.769-25.542 43.452 0 17.585 9.134 33.025 22.908 41.869l53.655-.001c8.97-5.758 15.951-14.327 19.744-24.454z" fill="#5cc563"/><g><path d="m160.775 224.005c-.229.046-.466.07-.708.07h-21.726c-.242 0-.479-.025-.708-.07-.235 7.338-2.598 11.889-4.581 14.435h32.304c-1.982-2.546-4.346-7.097-4.581-14.435z" fill="#ffc839"/></g><path d="m146.904 238.44c.174-.194.3-.305.3-.305 1.623-2.983 1.929-10.18 1.987-12.79.01-.448-.11-.881-.325-1.27h-10.525c-.242 0-.479-.025-.708-.07-.235 7.338-2.598 11.889-4.581 14.435z" fill="#ffa219"/><path d="m122.377 255.683c7.742 4.971 16.943 7.865 26.827 7.865s19.086-2.895 26.828-7.866c-.32-4.051-2.396-8.389-5.128-12.378h-43.383c-2.705 3.951-4.827 8.289-5.144 12.379z" fill="#ffc839"/><path d="m146.338 245.655c.413-.734.365-1.596.007-2.35h-18.823c-2.705 3.95-4.827 8.288-5.144 12.378 7.742 4.971 16.943 7.865 26.827 7.865-7.44-7.439-4.541-14.914-2.867-17.893z" fill="#ffa219"/><path d="m170.739 238.135c-3.173 0-39.897 0-43.07 0-1.705 0-3.087 1.382-3.087 3.087s1.382 3.087 3.087 3.087h43.07c1.705 0 3.087-1.382 3.087-3.087s-1.382-3.087-3.087-3.087z" fill="#ffdd40"/><path d="m127.669 244.309h18.956c-.03-.419-.155-.837-.373-1.217-1.585-2.767.95-4.956.95-4.956-9.27-.001-18.053-.001-19.533-.001-1.705 0-3.087 1.382-3.087 3.087 0 1.704 1.382 3.087 3.087 3.087z" fill="#ffc839"/><path d="m164.915 209.852c2.836-3.484 4.538-7.928 4.538-12.77 0-11.183-9.066-20.249-20.249-20.249s-20.249 9.066-20.249 20.249c0 4.842 1.702 9.286 4.538 12.77z" fill="#ffdd40"/><path d="m148.04 209.852c-.145-.629-.521-1.201-1.106-1.562-12.257-7.587-11.471-21.277-10.898-25.495.046-.341.004-.677-.086-.998-4.278 3.712-6.995 9.176-6.995 15.285 0 4.842 1.702 9.286 4.538 12.77z" fill="#ffc839"/><path d="m160.067 224.38h-21.726c-2.012 0-3.658-1.646-3.658-3.658v-3.251h29.041v3.251c.001 2.012-1.645 3.658-3.657 3.658z" fill="#ffdd40"/><path d="m138.341 224.38h10.665c-.086-.216-.194-.425-.335-.615-1.212-1.639-.847-3.279-.322-4.374.293-.611.332-1.294.132-1.92h-13.798v3.251c.001 2.012 1.646 3.658 3.658 3.658z" fill="#ffc839"/><path d="m166.482 218.081h-34.556c-2.357 0-4.267-1.911-4.267-4.267 0-2.357 1.91-4.267 4.267-4.267h34.556c2.357 0 4.267 1.91 4.267 4.267 0 2.357-1.91 4.267-4.267 4.267z" fill="#fce99a"/><path d="m131.926 218.081h16.674c-.03-.435-.169-.863-.417-1.244-1.337-2.053-.958-3.989-.313-5.349.299-.63.304-1.327.078-1.941h-16.022c-2.357 0-4.267 1.911-4.267 4.267 0 2.357 1.911 4.267 4.267 4.267z" fill="#ffdd40"/><circle cx="156.371" cy="191.145" fill="#fce99a" r="6.375"/></g><g><path d="m448.05 113.524v-17.755c0-.89.367-1.698.956-2.282h-4.724c-.603 0-1.091-.488-1.091-1.091v-2.13c0-.603-.488-1.091-1.091-1.091h-6.663c-.602 0-1.091.488-1.091 1.091v2.13c0 .603-.489 1.091-1.091 1.091h-6.663c-.603 0-1.091-.488-1.091-1.091v-2.13c0-.603-.488-1.091-1.091-1.091h-6.663c-.603 0-1.091.488-1.091 1.091 0 .58 0 21.924 0 21.889 0 2.055 1.666 3.721 3.721 3.721h28.715c-.637-.589-1.042-1.423-1.042-2.352z" fill="#ffdd40"/></g><g fill="#ffa219"><path d="m353.611 163.78c-11.794-13.35-1.888-34.137 2.011-41.112.288-.516-.282-1.076-.797-.786-3.747 2.11-9.453 3.486-9.453 3.486.247-.103.46.2.272.391-4.975 5.061-20.56 16.905-25.132 29.94 7.903 5.291 17.405 8.38 27.63 8.38 1.849 0 3.674-.102 5.469-.299z"/><path d="m334.141 85.346c1.721 3.06.167 6.882-3.171 7.969 23.44-3.329.519-12.684.519-12.684z"/><path d="m265.884 121.768c1.397-2.186 2.41-4.548 3.054-6.99-15.284 3.11-15.997-9.608-15.997-9.608-1.312 1.312-3.439 1.312-4.75 0-1.312-1.312-1.312-3.438 0-4.75-12.589 0-11.608-11.504-11.608-11.504l-2.684 2.996c-7.558 8.437-8.294 20.68-2.434 29.856z"/></g><path d="m270.804 126.08c0-2.565-2.079-4.644-4.643-4.644h-34.973c-2.565 0-4.644 2.079-4.644 4.644s2.079 4.644 4.644 4.644h34.973c2.564 0 4.643-2.079 4.643-4.644z" fill="#fce99a"/><path d="m248.041 121.437h-16.854c-2.565 0-4.644 2.079-4.644 4.644s2.079 4.644 4.644 4.644h16.02c.132-.303.278-.58.42-.809.33-.533.255-1.207-.109-1.718-1.855-2.605-.508-5.108.279-6.195.124-.172.202-.366.244-.566z" fill="#ffdd40"/><path d="m272.799 129.065h-48.251c-2.189 0-3.98 1.791-3.98 3.98v3.538h56.212v-3.538c-.001-2.189-1.792-3.98-3.981-3.98z" fill="#ffdd40"/><path d="m247.482 134.972c-1.313-2.023-.523-3.982.145-5.057.162-.261.224-.556.204-.849h-23.284c-2.189 0-3.98 1.791-3.98 3.98v3.538h26.87c.331-.481.37-1.112.045-1.612z" fill="#ffc839"/><path d="m268.886 152.062h-40.426c-2.189 0-3.98-1.791-3.98-3.98v-3.538h48.386v3.538c.001 2.189-1.79 3.98-3.98 3.98z" fill="#ffdd40"/><path d="m224.48 148.082c0 2.189 1.791 3.98 3.98 3.98h19.742c-.057-.092-.121-.181-.195-.261-2.199-2.39-1.466-4.433-.663-5.586.353-.507.386-1.158.089-1.671h-22.953z" fill="#ffc839"/><path d="m275.867 145.207h-54.387c-2.565 0-4.644-2.079-4.644-4.644 0-2.565 2.079-4.644 4.644-4.644h54.388c2.565 0 4.644 2.079 4.644 4.644-.001 2.565-2.08 4.644-4.645 4.644z" fill="#fce99a"/><path d="m247.703 135.92h-26.223c-2.565 0-4.644 2.079-4.644 4.644 0 2.564 2.079 4.644 4.644 4.644h26.164c-.012-.338-.133-.667-.378-.928-3.073-3.281-1.246-6.142.046-7.507.226-.24.357-.542.391-.853z" fill="#ffdd40"/></g></svg>