<svg id="Layer_1" enable-background="new 0 0 512 512" height="512" viewBox="0 0 512 512" width="512" xmlns="http://www.w3.org/2000/svg"><g><path d="m50.623 400.608 410.753.001c25.051-38.429 39.622-84.314 39.622-133.607 0-135.309-109.689-244.998-244.998-244.998s-244.998 109.69-244.998 244.998c0 49.294 14.57 95.178 39.621 133.606z" fill="#73c3f9"/><g><path d="m202.073 76.362c-.224.044-.455.069-.692.069h-21.238c-.237 0-.468-.024-.692-.069-.23 7.173-2.54 11.622-4.478 14.11h31.578c-1.938-2.489-4.248-6.938-4.478-14.11z" fill="#ffc839"/></g><path d="m188.581 90.259c.063-.059.12-.122.166-.195 2.32-3.614 2.129-11.034 2.04-12.902-.013-.28-.15-.529-.358-.716-.006-.005-.011-.011-.016-.016h-10.268c-.237 0-.468-.024-.692-.069-.23 7.173-2.54 11.622-4.478 14.11h13.397c.082-.088.156-.162.209-.212z" fill="#ffa219"/><path d="m167.374 116.468c.169-.009.339-.014.51-.014h45.771c.172 0 .342.005.511.014.414-.906.866-1.748 1.342-2.521 3.351-5.433.718-12.509-3.535-18.72h-42.408c-4.185 6.112-6.955 13.174-3.535 18.72.478.773.93 1.615 1.344 2.521z" fill="#ffc839"/><path d="m188.1 96.874c.304-.379.273-.92-.042-1.291-.101-.119-.184-.237-.267-.355h-18.224c-4.185 6.112-6.955 13.174-3.535 18.72.477.772.928 1.614 1.342 2.521.169-.009.339-.014.51-.014h20.129c-6.819-9.511-1.729-17.316.087-19.581z" fill="#ffa219"/><path d="m211.813 90.174c-3.102 0-39.001 0-42.102 0-1.666 0-3.017 1.351-3.017 3.017 0 1.667 1.351 3.017 3.017 3.017h42.102c1.666 0 3.017-1.351 3.017-3.017.001-1.666-1.35-3.017-3.017-3.017z" fill="#ffdd40"/><path d="m169.711 90.174c-1.667 0-3.017 1.351-3.017 3.017s1.351 3.017 3.017 3.017h18.596c-.013-.223-.096-.445-.249-.626-2.165-2.549.028-4.858.523-5.324.028-.026.048-.058.073-.085-9.007.001-17.504.001-18.943.001z" fill="#ffc839"/><path d="m206.12 62.527c2.772-3.406 4.436-7.75 4.436-12.483 0-10.932-8.862-19.794-19.794-19.794s-19.794 8.862-19.794 19.794c0 4.734 1.664 9.077 4.436 12.483z" fill="#ffdd40"/><path d="m189.637 61.637c-15.394-8.623-9.744-27.933-9.674-28.17-5.411 3.533-8.995 9.632-8.995 16.576 0 4.734 1.664 9.077 4.436 12.483h14.715c.008-.353-.146-.701-.482-.889z" fill="#ffc839"/><path d="m201.381 76.729h-21.238c-1.966 0-3.575-1.609-3.575-3.575v-3.178h28.388v3.178c0 1.966-1.609 3.575-3.575 3.575z" fill="#ffdd40"/><path d="m176.568 73.153c0 1.966 1.609 3.575 3.575 3.575h10.505c-.059-.103-.129-.2-.22-.282-2.37-2.13-1.215-4.191-.34-5.212.313-.365.309-.882.028-1.26h-13.548z" fill="#ffc839"/><path d="m207.652 70.571h-33.779c-2.304 0-4.171-1.867-4.171-4.171 0-2.304 1.868-4.171 4.171-4.171h33.779c2.304 0 4.171 1.868 4.171 4.171 0 2.303-1.868 4.171-4.171 4.171z" fill="#fce99a"/><path d="m169.702 66.4c0 2.304 1.867 4.171 4.171 4.171h16.457c-.002-.244-.09-.488-.267-.682-2.533-2.779-1.182-5.417-.14-6.752.212-.271.251-.607.164-.908h-16.215c-2.303 0-4.17 1.867-4.17 4.171z" fill="#ffdd40"/><path d="m204.031 44.159c0 3.997-3.24 7.237-7.237 7.237s-7.237-3.24-7.237-7.237 3.24-7.237 7.237-7.237 7.237 3.24 7.237 7.237z" fill="#fce99a"/><g><path d="m332.721 76.362c-.224.044-.455.069-.692.069h-21.237c-.237 0-.468-.024-.692-.069-.23 7.173-2.54 11.622-4.478 14.11h31.578c-1.939-2.489-4.249-6.938-4.479-14.11z" fill="#ffc839"/></g><path d="m319.228 90.259c.063-.059.12-.122.166-.195 2.32-3.614 2.129-11.034 2.04-12.902-.013-.28-.15-.529-.358-.716-.006-.005-.01-.011-.016-.016h-10.268c-.237 0-.468-.024-.692-.069-.23 7.173-2.54 11.622-4.478 14.11h13.397c.083-.088.157-.162.209-.212z" fill="#ffa219"/><path d="m298.022 116.468c.169-.009.339-.014.51-.014h45.771c.172 0 .342.005.511.014.414-.906.866-1.748 1.342-2.521 3.351-5.433.718-12.509-3.535-18.72h-42.408c-4.185 6.112-6.955 13.174-3.535 18.72.478.773.93 1.615 1.344 2.521z" fill="#ffc839"/><path d="m318.747 96.874c.304-.379.273-.92-.042-1.291-.101-.119-.184-.237-.267-.355h-18.224c-4.185 6.112-6.955 13.174-3.535 18.72.477.772.928 1.614 1.342 2.521.169-.009.339-.014.51-.014h20.129c-6.818-9.511-1.728-17.316.087-19.581z" fill="#ffa219"/><path d="m342.461 90.174c-3.102 0-39.001 0-42.102 0-1.666 0-3.017 1.351-3.017 3.017 0 1.667 1.351 3.017 3.017 3.017h42.102c1.666 0 3.017-1.351 3.017-3.017s-1.35-3.017-3.017-3.017z" fill="#ffdd40"/><path d="m300.359 90.174c-1.667 0-3.017 1.351-3.017 3.017s1.351 3.017 3.017 3.017h18.596c-.013-.223-.096-.445-.249-.626-2.165-2.549.028-4.858.523-5.324.028-.026.048-.058.073-.085-9.007.001-17.504.001-18.943.001z" fill="#ffc839"/><path d="m336.768 62.527c2.772-3.406 4.436-7.75 4.436-12.483 0-10.932-8.862-19.794-19.794-19.794s-19.794 8.862-19.794 19.794c0 4.734 1.664 9.077 4.436 12.483z" fill="#ffdd40"/><path d="m320.285 61.637c-15.394-8.623-9.744-27.933-9.674-28.17-5.411 3.533-8.995 9.632-8.995 16.576 0 4.734 1.664 9.077 4.436 12.483h14.715c.008-.353-.146-.701-.482-.889z" fill="#ffc839"/><path d="m332.029 76.729h-21.237c-1.966 0-3.575-1.609-3.575-3.575v-3.178h28.388v3.178c-.001 1.966-1.61 3.575-3.576 3.575z" fill="#ffdd40"/><path d="m307.216 73.153c0 1.966 1.609 3.575 3.575 3.575h10.504c-.059-.103-.129-.2-.22-.282-2.37-2.13-1.215-4.191-.34-5.212.313-.365.309-.882.028-1.26h-13.548v3.179z" fill="#ffc839"/><path d="m338.3 70.571h-33.779c-2.304 0-4.171-1.867-4.171-4.171 0-2.304 1.867-4.171 4.171-4.171h33.779c2.304 0 4.171 1.868 4.171 4.171 0 2.303-1.868 4.171-4.171 4.171z" fill="#fce99a"/><path d="m300.35 66.4c0 2.304 1.867 4.171 4.171 4.171h16.457c-.002-.244-.09-.488-.267-.682-2.534-2.779-1.182-5.417-.14-6.752.212-.271.251-.607.165-.908h-16.215c-2.304 0-4.171 1.867-4.171 4.171z" fill="#ffdd40"/><path d="m273.014 32.414h-34.027c3.719 3.561 9.139 18.444-9.818 41.265h53.662c-18.957-22.821-13.536-37.704-9.817-41.265z" fill="#ffc839"/><path d="m251.187 73.443c.064-.06.122-.122.174-.192 8.954-12.081 8.085-36.181 7.886-40.001-.017-.326-.179-.616-.42-.836h-19.842c3.719 3.561 9.139 18.444-9.818 41.265h21.786c.095-.101.177-.182.234-.236z" fill="#ffa219"/><path d="m226.904 101.635c.182-.01.365-.015.548-.015h57.095c.185 0 .368.005.55.015.445-.974.931-1.88 1.444-2.711 3.604-5.843 3.977-13.451-.597-20.131h-59.886c-4.501 6.573-4.276 14.167-.597 20.131.512.831.998 1.737 1.443 2.711z" fill="#ffc839"/><path d="m225.461 98.924c.512.831.998 1.736 1.443 2.711.182-.01.365-.015.548-.015h23.531l4.285-4.284v-3.884c-7.649-4.145-5.368-10.747-4.354-12.9.197-.417.145-.912-.145-1.271-.133-.165-.247-.327-.352-.488h-24.359c-4.501 6.573-4.275 14.168-.597 20.131z" fill="#ffa219"/><path d="m286.023 73.359c-3.335 0-56.711 0-60.046 0-1.792 0-3.245 1.453-3.245 3.245s1.453 3.245 3.245 3.245h60.046c1.792 0 3.245-1.453 3.245-3.245s-1.453-3.245-3.245-3.245z" fill="#ffdd40"/><path d="m225.977 73.359c-1.792 0-3.245 1.453-3.245 3.245s1.453 3.245 3.245 3.245h25.035c-.031-.204-.109-.4-.243-.567-2.383-2.943-.088-5.364.419-5.838.028-.026.051-.057.077-.084-12.455-.001-23.807-.001-25.288-.001z" fill="#ffc839"/><path d="m275.525 32.734h-39.05c-2.115 0-3.845-1.73-3.845-3.845v-3.418h46.74v3.418c0 2.115-1.73 3.845-3.845 3.845z" fill="#ffdd40"/><path d="m232.63 28.89c0 2.114 1.73 3.844 3.845 3.844h22.604c-.07-.119-.152-.233-.257-.329-2.233-2.017-1.266-4.329-.405-5.615.269-.402.252-.93-.01-1.318h-25.777z" fill="#ffc839"/><path d="m277.36 1.054v2.057c0 .582-.472 1.054-1.054 1.054h-6.436c-.582 0-1.054-.472-1.054-1.054v-2.057c0-.582-.472-1.054-1.054-1.054h-6.436c-.582 0-1.054.472-1.054 1.054v2.057c0 .582-.472 1.054-1.054 1.054h-6.436c-.582 0-1.054-.472-1.054-1.054v-2.057c0-.582-.472-1.054-1.054-1.054h-6.436c-.582 0-1.054.472-1.054 1.054v2.057c0 .582-.472 1.054-1.054 1.054h-6.436c-.582 0-1.054-.472-1.054-1.054v-2.057c0-.582-.472-1.054-1.054-1.054h-6.436c-.582 0-1.054.472-1.054 1.054 0 .56 0 21.178 0 21.144 0 1.985 1.609 3.594 3.594 3.594h52.619c1.985 0 3.594-1.609 3.594-3.594 0-.825 0-21.768 0-21.144 0-.582-.472-1.054-1.054-1.054h-6.436c-.581 0-1.053.472-1.053 1.054z" fill="#fce99a"/><path d="m251.728 3.111v-2.057c0-.582-.472-1.054-1.054-1.054h-6.436c-.582 0-1.054.472-1.054 1.054v2.057c0 .582-.472 1.054-1.054 1.054h-6.436c-.582 0-1.054-.472-1.054-1.054v-2.057c0-.582-.472-1.054-1.054-1.054h-6.436c-.582 0-1.054.472-1.054 1.054 0 .56 0 21.178 0 21.144 0 1.985 1.609 3.594 3.594 3.594h28.865c-.058-.203-.152-.395-.318-.54-1.115-.972-1.039-2.604-1.039-2.604s0-12.021 0-14.688 2.02-3.796 2.02-3.796h-6.436c-.582.001-1.054-.47-1.054-1.053z" fill="#ffdd40"/><path d="m461.376 251.828h-410.753v148.78c9.942 15.252 21.538 29.325 34.532 41.971h341.691c12.994-12.646 24.589-26.718 34.531-41.97v-148.781z" fill="#ffc839"/><path d="m50.623 400.608c9.942 15.252 21.538 29.325 34.532 41.971h53.668c0-51.799 0-115.952 0-119.869 0-3.644 1.399-5.887 2.658-7.168.92-.936 1.036-2.365.271-3.432-3.652-5.091-1.583-9.599.135-11.98.782-1.084.571-2.584-.428-3.472-23.482-20.887-4.613-42.903-4.613-42.903l-3.025-1.927h-83.198z" fill="#ffa219"/><path d="m83.181 440.653c.401.399.813.786 1.217 1.183l144.804 68.7c8.803.957 17.741 1.464 26.798 1.464 67.443 0 128.516-27.256 172.819-71.347z" fill="#fce99a"/><path d="m401.323 298.342h-112.442c-14.496 0-26.29 11.793-26.29 26.29v105.48c0 14.497 11.794 26.29 26.29 26.29h112.442c14.496 0 26.29-11.793 26.29-26.29v-105.48c0-14.497-11.793-26.29-26.29-26.29z" fill="#af713b"/><path d="m401.323 298.342h-11.997s-7.871 7.878 0 15.749l22.538 63.281s6.251 9.498 15.749 0v-52.74c0-14.497-11.793-26.29-26.29-26.29z" fill="#c7874e"/><path d="m330.811 298.342h-41.93c-14.496 0-26.29 11.794-26.29 26.29v105.48c0 14.496 11.794 26.29 26.29 26.29h65.114c-.197-.358-.439-.694-.743-.98-4.247-4.002-3.069-9.49-1.922-12.523.506-1.338.085-2.824-.952-3.809-5.497-5.22-2.674-12.035-1.558-14.197.258-.501.385-1.06.385-1.624v-49.169c0-1.098-.519-2.134-1.392-2.8-11.522-8.796-7.498-19.112-5.748-22.436.402-.763.492-1.651.278-2.487l-2.727-10.615c-.252-.98-.92-1.799-1.821-2.26-8.869-4.535-7.716-13.94-6.818-17.752.232-.984.049-2.033-.561-2.838-3.582-4.73-1.488-10.18-.023-12.877.29-.53.424-1.113.418-1.693z" fill="#965b27"/><path d="m401.323 314.091h-112.442c-5.822 0-10.541 4.719-10.541 10.541v105.48c0 5.822 4.719 10.541 10.541 10.541h112.443c5.822 0 10.541-4.719 10.541-10.541v-105.48c-.001-5.822-4.72-10.541-10.542-10.541z" fill="#e0e0e0"/><path d="m205.191 298.342h-96.792c-13.24 0-24.012 10.772-24.012 24.013v119.475c5.068 4.975 10.357 9.725 15.84 14.247l113.198 52.219c5.205.912 10.466 1.661 15.779 2.24v-188.181c0-13.241-10.772-24.013-24.013-24.013z" fill="#af713b"/><path d="m205.191 298.342h-11.576s-8.917 8.212 0 15.749 19.84 83.712 19.84 83.712 6.706 9.042 15.749 0v-75.448c0-13.241-10.772-24.013-24.013-24.013z" fill="#c7874e"/><path d="m138.823 322.711c0-3.644 1.399-5.887 2.658-7.168.92-.936 1.036-2.365.271-3.432-3.652-5.091-1.583-9.599.135-11.98.387-.536.529-1.174.455-1.789h-33.943c-13.24 0-24.012 10.772-24.012 24.013v119.475c5.068 4.975 10.357 9.725 15.84 14.247l38.596 17.805c0-52.34 0-146.403 0-151.171z" fill="#965b27"/><path d="m205.191 314.091h-96.792c-4.564 0-8.264 3.7-8.264 8.264v133.681c31.973 26.393 70.757 44.822 113.319 52.275v-185.957c.001-4.564-3.699-8.263-8.263-8.263z" fill="#965b27"/><path d="m138.823 322.711c0-3.644 1.399-5.887 2.658-7.168.405-.412.645-.922.731-1.452h-33.813c-4.564 0-8.264 3.7-8.264 8.264v133.681c11.991 9.898 24.94 18.677 38.687 26.176.001-49.922.001-154.467.001-159.501z" fill="#7e471c"/><g><path d="m140.932 430.415c-3.534 0-6.398-2.864-6.398-6.398v-2.281c0-.825-.671-1.496-1.496-1.496h-10.844c-3.534 0-6.398-2.864-6.398-6.398s2.865-6.398 6.398-6.398h10.844c7.881 0 14.293 6.412 14.293 14.293v2.281c0 3.533-2.865 6.397-6.399 6.397z" fill="#af713b"/></g><path d="m401.323 314.091h-112.442c-5.822 0-10.541 4.719-10.541 10.541v105.48c0 5.822 4.719 10.541 10.541 10.541h112.443c5.822 0 10.541-4.719 10.541-10.541v-105.48c-.001-5.822-4.72-10.541-10.542-10.541z" fill="#73c3f9"/><path d="m278.34 324.632v105.48c0 5.822 4.719 10.541 10.541 10.541h62.482c-.19-.582-.521-1.124-.984-1.564-5.497-5.22-2.674-12.035-1.558-14.197.258-.501.385-1.06.385-1.624v-49.168c0-1.098-.519-2.134-1.392-2.8-11.522-8.796-7.498-19.112-5.748-22.436.402-.763.492-1.651.278-2.487l-2.727-10.615c-.252-.98-.92-1.799-1.821-2.26-8.869-4.535-7.716-13.94-6.818-17.752.13-.552.115-1.121-.018-1.66h-42.079c-5.822.001-10.541 4.72-10.541 10.542z" fill="#4fabf7"/><g><path d="m377.832 357.666c-8.013-6.693-18.179-10.378-28.626-10.378-10.448 0-20.614 3.686-28.627 10.378-2.969 2.479-7.385 2.083-9.865-.886s-2.083-7.385.886-9.865c10.527-8.792 23.883-13.635 37.606-13.635s27.079 4.843 37.606 13.635c2.969 2.48 3.366 6.896.886 9.865-2.48 2.97-6.898 3.365-9.866.886z" fill="#9bd8f9"/></g><g fill="#543e5b"><path d="m169.445 114.802h36.934v138.953h-36.934z"/><path d="m237.533 114.802h36.934v138.953h-36.934z"/><path d="m305.621 114.802h36.934v138.953h-36.934z"/></g><path d="m101.357 114.802h36.934v138.953h-36.934z" fill="#422953"/><path d="m467.521 114.802h-25.724v138.953h25.724c5.393 0 9.765-4.372 9.765-9.765v-119.423c0-5.393-4.372-9.765-9.765-9.765z" fill="#543e5b"/><path d="m70.203 114.802h-25.724c-5.393 0-9.765 4.372-9.765 9.765v119.423c0 5.393 4.372 9.765 9.765 9.765h25.724z" fill="#422953"/><path d="m373.709 114.802h36.934v138.953h-36.934z" fill="#543e5b"/><path d="m273.022 114.802h34.044v138.953h-34.044z" fill="#72597c"/><path d="m341.11 114.802h34.044v138.953h-34.044z" fill="#72597c"/><path d="m204.934 114.802h34.044v138.953h-34.044z" fill="#72597c"/><path d="m68.758 114.802h34.044v138.953h-34.044z" fill="#543e5b"/><path d="m409.198 114.802h34.044v138.953h-34.044z" fill="#72597c"/><path d="m136.846 152.461h34.044v101.294h-34.044z" fill="#72597c"/><path d="m136.846 114.802h34.044v39.159h-34.044z" fill="#543e5b"/><path d="m371.973 424.202h-23.772v-26.4h27.405v22.768c0 2.006-1.627 3.632-3.633 3.632z" fill="#e0f5fc"/><path d="m375.606 398.702h-27.405v-26.4h23.772c2.006 0 3.633 1.626 3.633 3.633z" fill="#72597c"/><path d="m349.206 424.202h-22.768c-2.006 0-3.633-1.626-3.633-3.633v-22.768h26.4v26.401z" fill="#543e5b"/><path d="m349.206 398.702h-26.4v-22.768c0-2.006 1.626-3.633 3.633-3.633h22.768v26.401z" fill="#c5ebfc"/><g><path d="m361.745 177.105c-5.092 0-10.212-1.717-14.426-5.236-25.766-21.521-58.457-33.373-92.051-33.373-33.596 0-66.286 11.852-92.052 33.373-9.546 7.973-23.749 6.699-31.723-2.848s-6.699-23.749 2.848-31.723c33.851-28.273 76.797-43.845 120.927-43.845 44.129 0 87.075 15.572 120.925 43.845 9.547 7.974 10.822 22.176 2.848 31.723-4.454 5.333-10.852 8.084-17.296 8.084z" fill="#ff4155"/><path d="m134.341 137.297c-9.547 7.974-10.822 22.176-2.848 31.723s22.177 10.821 31.723 2.848c25.766-21.521 58.456-33.372 92.052-33.372-7.072-7.072 0-14.451 0-14.451v-16.14c-6.898-6.898 0-14.452 0-14.452-44.13-.001-87.076 15.571-120.927 43.844z" fill="#e80054"/></g><path d="m194.497 124.586c0 5.52 5.412 9.386 10.646 7.635 16.054-5.369 32.982-8.176 50.125-8.176 17.641 0 35.053 2.975 51.52 8.655 5.247 1.81 10.714-2.066 10.714-7.616 0-3.434-2.167-6.508-5.413-7.629-18.161-6.268-37.366-9.55-56.821-9.55-18.913 0-37.587 3.105-55.297 9.035-3.278 1.097-5.474 4.189-5.474 7.646z" fill="#f995a9"/><path d="m334.679 44.159c0 3.997-3.24 7.237-7.237 7.237s-7.237-3.24-7.237-7.237 3.24-7.237 7.237-7.237 7.237 3.24 7.237 7.237z" fill="#fce99a"/></g></svg>