<svg id="Layer_1" enable-background="new 0 0 512 512" height="512" viewBox="0 0 512 512" width="512" xmlns="http://www.w3.org/2000/svg"><g><path d="m25.355 349.782h461.29c9.283-25.859 14.353-53.726 14.353-82.78 0-135.309-109.689-244.998-244.998-244.998s-244.998 109.69-244.998 244.998c0 29.054 5.071 56.921 14.353 82.78z" fill="#73c3f9"/><path d="m29.484 360.478c6.713 16.249 15.123 31.616 25.01 45.884h90.286c.37 0 .737.011 1.102.03.895-1.959 1.872-3.779 2.902-5.449 7.394-11.987 7.847-27.254-1.201-40.466h-118.099z" fill="#af713b"/><path d="m54.494 406.363h23.838c.41-.863.212-1.905-.521-2.555-18.136-16.095-8.004-34.794-4.685-39.877.486-.744.502-1.722-.029-2.435-.252-.337-.466-.677-.652-1.017h-42.96c6.712 16.249 15.122 31.615 25.009 45.884z" fill="#965b27"/><path d="m31.319 351.189c2.88-6.902 6.837-13.312 11.778-18.927 8.001-9.094 12.699-19.865 15.446-29.002 3.4-11.309 1.729-23.537-4.43-33.613l-3.107-5.082h72.778l-3.107 5.082c-6.159 10.076-7.829 22.304-4.43 33.613 2.747 9.137 7.445 19.908 15.446 29.002 4.94 5.615 8.897 12.025 11.778 18.927h-56.076z" fill="#af713b"/><path d="m103.906 287.645h10.795c.584-6.309 2.601-12.477 5.976-17.998l3.106-5.082h-72.777l3.107 5.082c6.159 10.076 7.829 22.304 4.43 33.613-2.747 9.137-7.445 19.908-15.446 29.002-4.94 5.615-8.897 12.025-11.778 18.927h41.856c.481-.806.88-1.294.88-1.294 9.773-13.475 12.538-32.826 13.168-46.365.414-8.901 7.774-15.885 16.683-15.885z" fill="#965b27"/><path d="m147.746 349.554c-6.705 0-113.998 0-120.703 0-.585 0-1.149.084-1.688.229 1.554 4.328 3.216 8.605 5.002 12.816h117.389c3.602 0 6.523-2.92 6.523-6.523 0-3.602-2.921-6.522-6.523-6.522z" fill="#c7874e"/><path d="m74.285 349.554c-23.591 0-44.407 0-47.242 0-.585 0-1.149.084-1.688.228 1.554 4.329 3.216 8.605 5.002 12.817h43.119c-.021-.391-.136-.776-.38-1.103-4.11-5.516.958-11.601.958-11.601.081-.111.152-.23.231-.341z" fill="#af713b"/><path d="m144.78 405.075h-91.179c11.722 17.15 25.564 32.732 41.153 46.372h70.646v-25.751c0-11.342-9.279-20.621-20.62-20.621z" fill="#c7874e"/><path d="m74.007 430.974c-3.132-11.422 1.84-20.781 4.184-24.347.312-.474.409-1.028.32-1.552h-24.91c6.218 9.098 13.05 17.739 20.406 25.899z" fill="#af713b"/><g><path d="m98.081 120.38c-3.056 2.049-6.731 3.245-10.686 3.245s-7.63-1.196-10.686-3.245c-7.183 23.081-29.008 32.549-29.008 32.549h79.387c.001 0-21.824-9.468-29.007-32.549z" fill="#af713b"/><path d="m85.845 149.892c-6.321-10.971-1.466-20.876.672-24.328.368-.594.575-1.264.613-1.95-3.854-.052-7.434-1.232-10.421-3.235-7.183 23.081-29.008 32.549-29.008 32.549h38.561c.249-1.012.12-2.104-.417-3.036z" fill="#965b27"/><path d="m146.793 163.632-11.508-8.545c-2.45-1.82-5.421-2.802-8.473-2.802h-78.834c-3.052 0-6.023.982-8.474 2.802l-11.507 8.545c-2.034 1.51-3.14 3.538-3.346 5.695l62.744 1.207 62.744-1.207c-.206-2.157-1.313-4.185-3.346-5.695z" fill="#c7874e"/><path d="m86.369 152.285h-38.391c-3.052 0-6.023.982-8.474 2.802l-11.507 8.545c-2.034 1.51-3.141 3.538-3.346 5.695l61.275 1.179c.399-1.202.222-2.543-.526-3.632-3.651-5.313-1.568-10.008.241-12.56.43-.608.669-1.312.728-2.029z" fill="#af713b"/><path d="m150.129 169.245c-21.029 0-91.901 0-125.469 0-.212 1.993.319 4.502 2.611 7.403 7.833 9.226 19.984 26.052 23.024 44.586.234-.022.471-.036.71-.036h72.778c.24 0 .476.015.71.036 3.04-18.534 15.191-35.36 23.024-44.586 2.293-2.901 2.824-5.41 2.612-7.403z" fill="#af713b"/><path d="m27.271 176.648c7.833 9.226 19.984 26.052 23.024 44.586.234-.022.471-.036.71-.036h35.126c.18-.969.018-1.984-.527-2.844-2.282-3.601-1.21-6.76.03-8.726.843-1.337.787-3.022-.073-4.348-2.346-3.614-1.344-6.682-.094-8.617.938-1.452.924-3.304-.064-4.723-6.311-9.057-2.699-16.654-.043-20.326.514-.71.771-1.538.775-2.369-22.731 0-46.043 0-61.474 0-.213 1.993.319 4.502 2.61 7.403z" fill="#965b27"/><path d="m132.235 207.509h-89.681c-3.602 0-6.522-2.92-6.522-6.523 0-3.602 2.92-6.522 6.522-6.522h89.681c3.602 0 6.523 2.92 6.523 6.522 0 3.603-2.92 6.523-6.523 6.523z" fill="#c7874e"/><path d="m86.146 194.464h-43.592c-3.602 0-6.522 2.92-6.522 6.522s2.92 6.523 6.522 6.523h43.679c-.005-.774-.231-1.549-.673-2.229-2.346-3.614-1.344-6.682-.094-8.617.436-.674.657-1.435.68-2.199z" fill="#af713b"/><path d="m123.784 220.554h-72.778c-4.251 0-7.729 3.478-7.729 7.729v6.87h88.235v-6.87c0-4.251-3.478-7.729-7.728-7.729z" fill="#c7874e"/><path d="m85.55 231.614c-2.388-3.708-1.305-6.9-.022-8.888.426-.661.656-1.415.676-2.172h-35.198c-4.251 0-7.729 3.478-7.729 7.729v6.87h42.638c.424-1.161.321-2.473-.365-3.539z" fill="#af713b"/><path d="m123.784 265.208h-72.778c-4.251 0-7.729-3.478-7.729-7.729v-6.87h88.235v6.87c0 4.252-3.478 7.729-7.728 7.729z" fill="#c7874e"/><path d="m43.277 257.48c0 4.251 3.478 7.729 7.729 7.729h36.073c-.15-.36-.349-.701-.6-1.006-3.33-4.051-2.197-7.792-.844-10.06.648-1.086.753-2.385.329-3.532h-42.687z" fill="#af713b"/><path d="m129.741 251.898h-84.693c-4.98 0-9.017-4.037-9.017-9.017 0-4.98 4.037-9.017 9.017-9.017h84.693c4.98 0 9.017 4.037 9.017 9.017 0 4.98-4.037 9.017-9.017 9.017z" fill="#e29b61"/><path d="m36.032 242.881c0 4.98 4.037 9.017 9.017 9.017h41.169c-.024-.797-.277-1.585-.765-2.259-4.148-5.729-1.999-10.746-.042-13.509.479-.676.735-1.469.758-2.265h-41.12c-4.98 0-9.017 4.036-9.017 9.016z" fill="#c7874e"/><ellipse cx="87.395" cy="105.054" fill="#c7874e" rx="19.214" ry="19.214" transform="matrix(.23 -.973 .973 .23 -34.929 165.975)"/><path d="m98.269 100.947c0 3.888-3.152 7.039-7.04 7.039s-7.04-3.152-7.04-7.039c0-3.888 3.152-7.04 7.04-7.04s7.04 3.152 7.04 7.04z" fill="#e29b61"/></g><path d="m482.516 360.478h-118.099c-9.047 13.212-8.594 28.479-1.201 40.466 1.03 1.67 2.006 3.49 2.902 5.449.365-.019.732-.03 1.102-.03h90.286c9.887-14.269 18.297-29.635 25.01-45.885z" fill="#ffd185"/><path d="m363.216 400.944c1.03 1.67 2.006 3.49 2.902 5.449.365-.019.732-.03 1.102-.03h62.799c-.108-1.068-.716-2.052-1.693-2.619-20.54-11.923-16.303-33.277-14.561-39.438.287-1.014.086-2.118-.566-2.945-.234-.297-.433-.591-.621-.883h-48.161c-9.047 13.212-8.595 28.479-1.201 40.466z" fill="#f4bc6a"/><path d="m480.681 351.189c-2.88-6.902-6.837-13.312-11.778-18.927-8.001-9.094-12.699-19.865-15.446-29.002-3.4-11.309-1.729-23.537 4.43-33.613l3.107-5.082h-72.778l3.107 5.082c6.159 10.076 7.829 22.304 4.43 33.613-2.747 9.137-7.445 19.908-15.446 29.002-4.94 5.615-8.897 12.025-11.778 18.927h56.076z" fill="#ffd185"/><path d="m414.005 349.838c.215-.215.399-.454.55-.717 9.343-16.232 12.094-33.34 12.69-45.376.446-9.01 7.837-16.1 16.858-16.1h7.808c.584-6.309 2.601-12.477 5.976-17.998l3.107-5.082h-72.778l3.107 5.082c6.159 10.076 7.83 22.304 4.43 33.613-2.747 9.137-7.445 19.908-15.446 29.002-4.94 5.615-8.897 12.025-11.778 18.927h44.349c.434-.613.857-1.08 1.127-1.351z" fill="#f4bc6a"/><path d="m486.645 349.782c-.54-.144-1.104-.229-1.689-.229-6.704 0-113.998 0-120.703 0-3.602 0-6.523 2.92-6.523 6.523 0 3.602 2.92 6.523 6.523 6.523h117.389c1.787-4.212 3.449-8.488 5.003-12.817z" fill="#ffe8c2"/><path d="m414.223 349.554c-24.695 0-47.026 0-49.969 0-3.602 0-6.523 2.92-6.523 6.522 0 3.603 2.92 6.523 6.523 6.523h49.529c-.109-.445-.294-.871-.584-1.238-4.416-5.599-.373-10.339.806-11.523.085-.086.143-.192.218-.284z" fill="#ffd185"/><path d="m458.399 405.075h-91.179c-11.341 0-20.62 9.279-20.62 20.62v25.751h70.646c15.589-13.639 29.431-29.222 41.153-46.371z" fill="#ffe8c2"/><path d="m346.6 425.695v25.751h70.646c7.579-6.631 14.735-13.729 21.446-21.235-12.101-5.591-10.292-17.368-8.781-22.572.258-.887.127-1.799-.293-2.564h-62.398c-11.341 0-20.62 9.279-20.62 20.62z" fill="#ffd185"/><g><path d="m435.291 120.38c-3.056 2.049-6.731 3.245-10.686 3.245s-7.63-1.196-10.686-3.245c-7.183 23.081-29.008 32.549-29.008 32.549h79.388s-21.825-9.468-29.008-32.549z" fill="#ffd185"/><path d="m423.055 149.892c-6.321-10.971-1.466-20.876.672-24.328.368-.594.575-1.264.613-1.95-3.853-.053-7.434-1.232-10.421-3.235-7.184 23.081-29.008 32.549-29.008 32.549h38.561c.25-1.012.12-2.104-.417-3.036z" fill="#f4bc6a"/><path d="m484.003 163.632-11.508-8.545c-2.45-1.82-5.421-2.802-8.473-2.802h-78.834c-3.052 0-6.023.982-8.474 2.802l-11.507 8.545c-2.034 1.51-3.141 3.538-3.346 5.695l62.744 1.207 62.744-1.207c-.205-2.157-1.312-4.185-3.346-5.695z" fill="#ffe8c2"/><path d="m423.58 152.285h-38.391c-3.052 0-6.023.982-8.474 2.802l-11.507 8.545c-2.034 1.51-3.141 3.538-3.346 5.695l61.275 1.179c.399-1.202.223-2.543-.526-3.632-3.651-5.313-1.568-10.008.241-12.56.43-.608.668-1.312.728-2.029z" fill="#ffd185"/><path d="m487.34 169.245c-21.029 0-91.901 0-125.469 0-.212 1.993.32 4.502 2.611 7.403 7.833 9.226 19.984 26.052 23.024 44.586.234-.022.471-.036.71-.036h72.778c.24 0 .476.015.711.036 3.04-18.534 15.191-35.36 23.024-44.586 2.291-2.901 2.823-5.41 2.611-7.403z" fill="#ffd185"/><path d="m364.482 176.648c7.833 9.226 19.984 26.052 23.024 44.586.234-.022.471-.036.71-.036h35.126c.18-.969.018-1.984-.527-2.844-2.282-3.601-1.21-6.76.03-8.726.843-1.337.787-3.022-.073-4.348-2.346-3.614-1.344-6.682-.094-8.617.938-1.452.924-3.304-.064-4.723-6.311-9.057-2.699-16.654-.043-20.326.514-.71.771-1.538.775-2.369-22.731 0-46.043 0-61.474 0-.213 1.993.318 4.502 2.61 7.403z" fill="#f4bc6a"/><path d="m469.446 207.509h-89.681c-3.602 0-6.522-2.92-6.522-6.523 0-3.602 2.92-6.522 6.522-6.522h89.681c3.602 0 6.522 2.92 6.522 6.522 0 3.603-2.92 6.523-6.522 6.523z" fill="#ffe8c2"/><path d="m423.356 194.464h-43.592c-3.602 0-6.523 2.92-6.523 6.522s2.92 6.523 6.523 6.523h43.679c-.005-.774-.231-1.549-.673-2.229-2.346-3.614-1.344-6.682-.094-8.617.437-.674.658-1.436.68-2.199z" fill="#ffd185"/><path d="m460.994 220.554h-72.778c-4.251 0-7.729 3.478-7.729 7.729v6.87h88.235v-6.87c.001-4.251-3.477-7.729-7.728-7.729z" fill="#ffe8c2"/><path d="m422.76 231.614c-2.388-3.708-1.305-6.9-.022-8.888.426-.661.656-1.415.676-2.172h-35.198c-4.251 0-7.729 3.478-7.729 7.729v6.87h42.638c.424-1.161.322-2.473-.365-3.539z" fill="#ffd185"/><path d="m460.994 265.208h-72.778c-4.251 0-7.729-3.478-7.729-7.729v-6.87h88.235v6.87c.001 4.252-3.477 7.729-7.728 7.729z" fill="#ffe8c2"/><path d="m380.488 257.48c0 4.251 3.478 7.729 7.729 7.729h36.073c-.15-.36-.349-.701-.6-1.006-3.331-4.051-2.197-7.792-.844-10.06.648-1.086.753-2.385.329-3.532h-42.686v6.869z" fill="#ffd185"/><path d="m466.951 251.898h-84.693c-4.98 0-9.017-4.037-9.017-9.017 0-4.98 4.037-9.017 9.017-9.017h84.693c4.98 0 9.017 4.037 9.017 9.017 0 4.98-4.037 9.017-9.017 9.017z" fill="#fff3e1"/><path d="m373.242 242.881c0 4.98 4.037 9.017 9.017 9.017h41.169c-.024-.797-.277-1.585-.765-2.259-4.148-5.729-1.999-10.746-.042-13.509.479-.676.735-1.469.758-2.265h-41.12c-4.98 0-9.017 4.036-9.017 9.016z" fill="#ffe8c2"/><ellipse cx="424.605" cy="105.054" fill="#ffe8c2" rx="19.214" ry="19.214" transform="matrix(.16 -.987 .987 .16 252.893 507.349)"/><path d="m435.48 100.947c0 3.888-3.152 7.039-7.039 7.039-3.888 0-7.04-3.152-7.04-7.039 0-3.888 3.152-7.04 7.04-7.04 3.887 0 7.039 3.152 7.039 7.04z" fill="#fff3e1"/></g><path d="m261.099 354.056h128.24c-15.266-12.681-23.409-30.248-27.727-44.613-4.288-14.265-2.181-29.689 5.588-42.398l3.918-6.41c-24.709 0-77.404 0-91.798 0l3.918 6.41c7.769 12.709 9.876 28.133 5.588 42.398-4.318 14.365-12.461 31.932-27.727 44.613z" fill="#ffd185"/><path d="m313.677 349.318c.256-.215.483-.457.669-.735 8.147-12.179 10.698-30.746 11.382-44.501.505-10.156 8.935-18.104 19.103-18.104h15.322c1.103-6.634 3.465-13.073 7.047-18.933l3.918-6.41c-24.709 0-77.404 0-91.798 0l3.918 6.41c7.769 12.709 9.876 28.133 5.588 42.398-4.318 14.365-12.461 31.932-27.727 44.613h48.748c1.206-2.382 3.048-4.083 3.83-4.738z" fill="#f4bc6a"/><path d="m256.315 438.68h137.813c1.637-9.046 4.832-16.484 8.528-22.477 9.138-14.814 10.083-34.107-1.514-51.042h-151.84c-11.412 16.665-10.841 35.922-1.514 51.042 3.695 5.992 6.89 13.43 8.527 22.477z" fill="#ffd185"/><path d="m247.787 416.203c3.696 5.992 6.891 13.43 8.528 22.477h63.288c.091-.938-.206-1.894-.881-2.611-27.682-29.435-11.96-57.795-6.385-65.921.883-1.286.799-3.026-.264-4.167-.256-.275-.492-.548-.715-.819h-62.057c-11.411 16.664-10.84 35.921-1.514 51.041z" fill="#f4bc6a"/><path d="m401.343 349.02c-8.457 0-143.791 0-152.248 0-4.544 0-8.227 4.212-8.227 9.408s3.684 9.408 8.227 9.408h152.248c4.544 0 8.227-4.212 8.227-9.408s-3.683-9.408-8.227-9.408z" fill="#ffe8c2"/><path d="m313.677 349.318c.111-.093.214-.194.313-.298-31.882 0-61.109 0-64.895 0-4.543 0-8.227 4.212-8.227 9.408s3.684 9.408 8.227 9.408h63.814c-.076-.677-.347-1.33-.837-1.855-7.584-8.135-.193-15.157 1.605-16.663z" fill="#ffd185"/><path d="m397.601 437.867h-144.764c-7.347 0-14.003 3.092-18.744 8.033l45.22 50.457h62.966c28.61-10.768 54.671-26.731 77.035-46.746-4.664-7.059-12.666-11.744-21.713-11.744z" fill="#ffe8c2"/><path d="m234.093 445.901 45.22 50.457h51.349c.038-.988-.351-1.97-1.13-2.657-24.848-21.915-14.271-46.522-10.315-53.74.359-.655.475-1.39.371-2.094h-66.751c-7.347 0-14.002 3.093-18.744 8.034z" fill="#ffd185"/><path d="m278.585 495.546 12.496 13.944v.007c18.527-2.661 36.386-7.389 53.334-13.951-22.169 0-45.683 0-65.83 0z" fill="#fff3e1"/><path d="m291.081 509.489v.007c13.108-1.883 25.873-4.82 38.227-8.69.185-1.166.585-2.221 1.012-3.073.348-.697.432-1.466.283-2.188-17.89 0-36.015 0-52.017 0z" fill="#ffe8c2"/><path d="m250.901 354.056h-128.24c15.266-12.681 23.409-30.248 27.727-44.613 4.288-14.265 2.181-29.689-5.587-42.398l-3.918-6.41h91.798l-3.918 6.41c-7.769 12.709-9.876 28.133-5.588 42.398 4.317 14.365 12.459 31.932 27.726 44.613z" fill="#af713b"/><path d="m174.765 349.318c.257-.215.483-.457.669-.735 8.147-12.179 10.697-30.746 11.382-44.501.505-10.156 8.934-18.104 19.103-18.104h15.795c1.103-6.634 3.465-13.073 7.047-18.933l3.919-6.41c-14.394 0-67.089 0-91.798 0l3.918 6.41c7.769 12.709 9.876 28.133 5.587 42.398-4.318 14.365-12.461 31.932-27.727 44.613h48.275c1.206-2.382 3.048-4.083 3.83-4.738z" fill="#965b27"/><path d="m255.685 438.68h-137.813c-1.637-9.046-4.832-16.484-8.528-22.477-9.138-14.814-10.083-34.107 1.514-51.042h151.84c11.411 16.665 10.84 35.922 1.514 51.042-3.695 5.992-6.89 13.43-8.527 22.477z" fill="#af713b"/><path d="m109.344 416.203c3.696 5.992 6.891 13.43 8.528 22.477h62.819c.091-.938-.206-1.894-.88-2.611-27.683-29.435-11.96-57.795-6.385-65.921.882-1.286.799-3.026-.265-4.167-.256-.275-.492-.548-.715-.819h-61.587c-11.597 16.935-10.652 36.227-1.515 51.041z" fill="#965b27"/><path d="m110.657 349.02h152.248c4.544 0 8.227 4.212 8.227 9.408s-3.684 9.408-8.227 9.408c-8.457 0-143.791 0-152.248 0-4.544 0-8.227-4.212-8.227-9.408s3.683-9.408 8.227-9.408z" fill="#c7874e"/><path d="m174.765 349.318c.111-.093.214-.194.313-.298-31.697 0-60.654 0-64.422 0-4.544 0-8.227 4.212-8.227 9.408s3.683 9.408 8.227 9.408h63.341c-.075-.677-.347-1.33-.837-1.855-7.584-8.135-.193-15.157 1.605-16.663z" fill="#af713b"/><path d="m259.163 437.867h-144.764c-9.047 0-17.049 4.684-21.713 11.744 22.364 20.015 48.425 35.979 77.035 46.746h115.451v-32.481c0-14.305-11.704-26.009-26.009-26.009z" fill="#c7874e"/><path d="m190.621 493.701c-24.848-21.915-14.271-46.522-10.315-53.74.359-.655.475-1.39.371-2.094h-66.277c-9.047 0-17.049 4.684-21.713 11.744 22.364 20.015 48.425 35.979 77.035 46.747h22.03c.036-.988-.352-1.97-1.131-2.657z" fill="#af713b"/><path d="m293.399 503.773c0-4.544-3.683-8.227-8.227-8.227-4.806 0-64.981 0-117.588 0 27.428 10.618 57.239 16.454 88.416 16.454 11.913 0 23.623-.868 35.081-2.511 1.433-1.48 2.318-3.494 2.318-5.716z" fill="#e29b61"/><path d="m190.351 503.079c-.263-2.06.367-3.966 1.057-5.346.348-.697.433-1.466.283-2.188-8.064 0-16.171 0-24.106 0 7.419 2.873 15.018 5.382 22.766 7.534z" fill="#c7874e"/><g><path d="m212.064 18.759-13.332 8.017c-1.698 1.021-3.63-.911-2.609-2.609l8.976-14.925c2.444-4.065-.484-9.242-5.228-9.242h-26.181c-4.744 0-7.671 5.177-5.227 9.242l8.976 14.926c1.021 1.698-.911 3.63-2.609 2.609l-13.333-8.018c-4.065-2.445-9.242.483-9.242 5.226v21.079c0 4.744 5.177 7.671 9.242 5.227l13.332-8.018c1.698-1.021 3.63.911 2.609 2.609l-8.976 14.926c-2.445 4.065.483 9.242 5.227 9.242h26.181c4.744 0 7.671-5.177 5.227-9.242l-8.975-14.925c-1.021-1.698.911-3.63 2.609-2.609l13.332 8.017c4.065 2.445 9.242-.483 9.242-5.227v-21.078c.001-4.744-5.176-7.671-9.241-5.227z" fill="#e29b61"/><path d="m196.123 44.884c-.54-.898-.25-1.858.391-2.416-19.45 2.883-19.288-16.058-19.288-16.058-.56.624-1.508.902-2.396.368l-13.333-8.018c-4.065-2.445-9.242.483-9.242 5.226v21.079c0 4.744 5.177 7.671 9.242 5.227l13.332-8.018c1.698-1.021 3.63.911 2.609 2.609l-8.976 14.926c-2.445 4.065.483 9.242 5.227 9.242h26.182c4.744 0 7.672-5.177 5.227-9.242z" fill="#c7874e"/><path d="m207.699 68.239h-41.837c-5.362 0-9.748 4.387-9.748 9.748v8.666h61.334v-8.666c0-5.362-4.387-9.748-9.749-9.748z" fill="#af713b"/><path d="m185.209 84.428c-5.029-5.243-2.237-11.089-.117-14.117.447-.638.503-1.412.251-2.072h-19.481c-5.362 0-9.748 4.387-9.748 9.748v8.666h29.634c.242-.758.045-1.616-.539-2.225z" fill="#965b27"/><path d="m255.535 102.359c-.556-1.488-1.66-2.701-3.022-3.52-8.065-4.85-23.681-12.999-37.57-12.999-13.317 0-43.011 0-56.324 0-13.889 0-29.505 8.149-37.57 12.999-1.362.819-2.465 2.031-3.022 3.52l-.021.056 68.775 1.569 68.775-1.569z" fill="#c7874e"/><path d="m121.048 98.839c-1.362.819-2.465 2.031-3.022 3.52l-.021.056 67.653 1.543c.02-.03.04-.062.059-.091.565-.856.464-1.987-.247-2.726-5.405-5.623-2.208-11.201-.097-13.796.358-.44.507-.977.468-1.505-10.436 0-20.76 0-27.224 0-13.888 0-29.504 8.149-37.569 12.999z" fill="#af713b"/><path d="m255.533 102.359c-4.079 0-133.41 0-137.504 0-.569 1.521-.782 3.62.328 6.25h-.002c18.432 42.512 26.737 87.587 28.517 98.139h79.819c1.78-10.552 10.085-55.627 28.517-98.139h-.002c1.108-2.63.896-4.729.327-6.25z" fill="#af713b"/><path d="m118.356 108.608h-.002c18.432 42.512 26.737 87.587 28.517 98.139h38.5c.063-.084.124-.166.185-.244.63-.816.631-1.959-.03-2.75-7.215-8.633-2.186-17.816.196-21.237.563-.809.534-1.895-.096-2.653-5.278-6.358-1.859-11.832.081-14.089.611-.711.672-1.734.188-2.538-17.542-29.195-4.218-53.248-.177-59.369.303-.458.408-.994.337-1.508-33.109 0-65.995 0-68.027 0-.569 1.521-.781 3.62.328 6.249z" fill="#965b27"/><path d="m234.302 181.126h-95.044c-4.544 0-8.227-3.683-8.227-8.227 0-4.544 3.683-8.227 8.227-8.227h95.044c4.544 0 8.227 3.683 8.227 8.227.001 4.544-3.683 8.227-8.227 8.227z" fill="#c7874e"/><path d="m186.191 164.672h-46.933c-4.544 0-8.227 3.683-8.227 8.227s3.683 8.227 8.227 8.227h46.857c-.024-.452-.185-.896-.49-1.264-5.278-6.358-1.859-11.832.081-14.089.275-.319.433-.703.485-1.101z" fill="#af713b"/><path d="m232.68 205.123h-91.798c-5.362 0-9.748 4.387-9.748 9.748v8.665h111.295v-8.665c-.001-5.361-4.388-9.748-9.749-9.748z" fill="#c7874e"/><path d="m185.516 220.508c-4.854-6.043-1.868-11.533.039-14.005.314-.407.471-.895.468-1.38h-45.142c-5.362 0-9.748 4.387-9.748 9.749v8.665h54.169c.069-.086.137-.17.203-.25.669-.805.666-1.963.011-2.779z" fill="#af713b"/><path d="m232.68 261.448h-91.798c-5.362 0-9.748-4.387-9.748-9.748v-8.666h111.295v8.666c-.001 5.361-4.388 9.748-9.749 9.748z" fill="#c7874e"/><path d="m131.133 251.699c0 5.362 4.387 9.748 9.748 9.748h44.983c.041-.543-.118-1.103-.482-1.563-4.824-6.102-1.808-11.454.134-13.866.654-.812.626-1.986-.051-2.779-.058-.069-.109-.137-.166-.205h-54.167v8.665z" fill="#af713b"/><path d="m240.194 244.659h-106.827c-6.281 0-11.373-5.092-11.373-11.373 0-6.281 5.092-11.373 11.373-11.373h106.827c6.281 0 11.373 5.092 11.373 11.373 0 6.281-5.092 11.373-11.373 11.373z" fill="#e29b61"/><path d="m186.006 221.912h-52.639c-6.281 0-11.373 5.092-11.373 11.373s5.092 11.373 11.373 11.373h52.62c-.001-.507-.175-1.013-.521-1.42-7.539-8.839-2.544-16.84.039-19.952.332-.398.498-.885.501-1.374z" fill="#c7874e"/></g><g><path d="m350.503 18.759-13.332 8.017c-1.698 1.021-3.63-.911-2.609-2.609l8.976-14.925c2.443-4.065-.484-9.242-5.228-9.242h-26.181c-4.744 0-7.671 5.177-5.227 9.242l8.976 14.926c1.021 1.698-.911 3.63-2.609 2.609l-13.333-8.018c-4.065-2.445-9.242.483-9.242 5.226v21.079c0 4.744 5.177 7.671 9.242 5.227l13.332-8.018c1.698-1.021 3.63.911 2.609 2.609l-8.976 14.926c-2.445 4.065.483 9.242 5.227 9.242h26.181c4.744 0 7.671-5.177 5.227-9.242l-8.975-14.925c-1.021-1.698.911-3.63 2.609-2.609l13.332 8.017c4.065 2.445 9.242-.483 9.242-5.227v-21.078c.001-4.744-5.176-7.671-9.241-5.227z" fill="#fff3e1"/><path d="m334.561 44.884c-.54-.898-.25-1.858.391-2.416-19.451 2.883-19.288-16.058-19.288-16.058-.56.624-1.508.902-2.396.368l-13.333-8.018c-4.065-2.445-9.242.483-9.242 5.226v21.079c0 4.744 5.177 7.671 9.242 5.227l13.332-8.018c1.698-1.021 3.63.911 2.609 2.609l-8.976 14.926c-2.445 4.065.483 9.242 5.227 9.242h26.181c4.744 0 7.672-5.177 5.227-9.242z" fill="#ffe8c2"/><path d="m346.138 68.239h-41.837c-5.362 0-9.748 4.387-9.748 9.748v8.666h61.334v-8.666c-.001-5.362-4.388-9.748-9.749-9.748z" fill="#ffd185"/><path d="m323.648 84.428c-5.029-5.243-2.237-11.089-.116-14.117.447-.638.503-1.412.251-2.072h-19.481c-5.362 0-9.748 4.387-9.748 9.748v8.666h29.634c.24-.758.043-1.616-.54-2.225z" fill="#f4bc6a"/><path d="m393.973 102.359c-.557-1.488-1.66-2.701-3.022-3.52-8.065-4.85-23.681-12.999-37.57-12.999-13.317 0-43.01 0-56.324 0-13.889 0-29.505 8.149-37.57 12.999-1.362.819-2.465 2.031-3.022 3.52l-.021.056 68.775 1.569 68.775-1.569z" fill="#ffe8c2"/><path d="m259.487 98.839c-1.362.819-2.465 2.031-3.022 3.52l-.021.056 67.653 1.543c.02-.03.04-.062.06-.091.565-.856.464-1.987-.247-2.726-5.405-5.623-2.208-11.201-.097-13.796.358-.44.507-.977.468-1.505-10.436 0-20.76 0-27.224 0-13.889 0-29.505 8.149-37.57 12.999z" fill="#ffd185"/><path d="m393.971 102.359c-4.079 0-133.41 0-137.504 0-.569 1.521-.782 3.62.328 6.25h-.002c18.432 42.512 26.737 87.587 28.517 98.139h79.819c1.78-10.552 10.085-55.627 28.517-98.139h-.002c1.109-2.63.897-4.729.327-6.25z" fill="#ffd185"/><path d="m256.795 108.608h-.002c18.432 42.512 26.737 87.587 28.517 98.139h38.5c.063-.084.124-.166.185-.244.63-.816.631-1.959-.03-2.75-7.215-8.633-2.186-17.816.196-21.237.563-.809.534-1.895-.096-2.653-5.278-6.358-1.859-11.832.081-14.089.611-.711.672-1.734.189-2.538-17.542-29.195-4.218-53.248-.177-59.369.302-.458.408-.994.337-1.508-33.109 0-65.995 0-68.027 0-.57 1.521-.783 3.62.327 6.249z" fill="#f4bc6a"/><path d="m372.741 181.126h-95.044c-4.544 0-8.227-3.683-8.227-8.227 0-4.544 3.683-8.227 8.227-8.227h95.044c4.544 0 8.227 3.683 8.227 8.227 0 4.544-3.683 8.227-8.227 8.227z" fill="#ffe8c2"/><path d="m324.63 164.672h-46.933c-4.544 0-8.227 3.683-8.227 8.227s3.683 8.227 8.227 8.227h46.857c-.024-.452-.185-.896-.49-1.264-5.278-6.358-1.859-11.832.081-14.089.275-.319.433-.703.485-1.101z" fill="#ffd185"/><path d="m371.118 205.123h-91.798c-5.362 0-9.749 4.387-9.749 9.748v8.665h111.295v-8.665c.001-5.361-4.386-9.748-9.748-9.748z" fill="#ffe8c2"/><path d="m323.955 220.508c-4.854-6.043-1.868-11.533.039-14.005.314-.407.471-.895.468-1.38h-45.142c-5.362 0-9.749 4.387-9.749 9.749v8.665h54.169c.069-.086.137-.17.203-.25.67-.805.667-1.963.012-2.779z" fill="#ffd185"/><path d="m371.118 261.448h-91.798c-5.362 0-9.749-4.387-9.749-9.748v-8.666h111.295v8.666c.001 5.361-4.386 9.748-9.748 9.748z" fill="#ffe8c2"/><path d="m269.572 251.699c0 5.362 4.387 9.748 9.749 9.748h44.983c.041-.543-.118-1.103-.482-1.563-4.824-6.102-1.808-11.454.134-13.866.654-.812.626-1.986-.051-2.779-.058-.069-.109-.137-.167-.205h-54.167v8.665z" fill="#ffd185"/><path d="m378.633 244.659h-106.827c-6.281 0-11.373-5.092-11.373-11.373 0-6.281 5.092-11.373 11.373-11.373h106.827c6.281 0 11.373 5.092 11.373 11.373 0 6.281-5.092 11.373-11.373 11.373z" fill="#fff3e1"/><path d="m324.445 221.912h-52.639c-6.281 0-11.373 5.092-11.373 11.373s5.092 11.373 11.373 11.373h52.621c-.002-.507-.175-1.013-.521-1.42-7.539-8.839-2.544-16.84.039-19.952.331-.398.497-.885.5-1.374z" fill="#ffe8c2"/></g></g></svg>