<svg id="Layer_1" enable-background="new 0 0 512 512" height="512" viewBox="0 0 512 512" width="512" xmlns="http://www.w3.org/2000/svg"><g><path d="m29.958 361.638c26.959 64.315 80.56 114.694 147.004 137.327l158.08-.002c66.442-22.634 120.042-73.012 147-137.325l13.524-43.177c3.548-16.595 5.431-33.806 5.431-51.46 0-135.309-109.689-244.998-244.998-244.998s-244.997 109.691-244.997 244.999c0 17.654 1.884 34.866 5.431 51.461z" fill="#73c3f9"/><path d="m338.841 363.562c29.623-16.013 54.085-40.347 70.26-69.869h-70.26z" fill="#c5ebfc"/><path d="m338.841 118.811v94.895h91.575c.026-1.237.047-2.475.047-3.718 0-33.421-9.404-64.643-25.702-91.177z" fill="#c5ebfc"/><path d="m372.916 118.811c-1.101 3.1-1.707 6.43-1.707 9.896v84.999h59.206c.026-1.237.047-2.475.047-3.718 0-33.421-9.405-64.643-25.702-91.176h-31.844z" fill="#e0f5fc"/><path d="m338.841 56.413v66.343h68.276c-16.16-27.935-39.841-50.972-68.276-66.343z" fill="#422953"/><path d="m407.117 122.756c-4.548-7.861-9.711-15.318-15.388-22.342-10.04 3.313-17.766 11.84-19.917 22.342z" fill="#543e5b"/><path d="m430.463 209.987h-91.622v87.231h68.276c14.845-25.661 23.346-55.452 23.346-87.231z" fill="#422953"/><path d="m371.21 236.531c0 16.382 13.403 29.785 29.785 29.785h20.165c6.027-17.672 9.303-36.616 9.303-56.328h-59.253z" fill="#543e5b"/><path d="m259.714 293.692h-96.233v64.218c26.82 16.81 58.531 26.539 92.519 26.539 1.242 0 2.478-.021 3.714-.047z" fill="#c5ebfc"/><path d="m163.481 118.811h96.233v94.895h-96.233z" fill="#c5ebfc"/><g fill="#422953"><path d="m163.481 122.756h96.233v-87.184c-1.236-.026-2.472-.047-3.714-.047-33.988 0-65.699 9.729-92.519 26.539z"/><path d="m163.481 209.987h96.233v87.231h-96.233z"/><path d="m168.769 361.105v-67.412h-65.87c15.369 28.05 38.219 51.416 65.87 67.412z"/><path d="m343.231 293.692h-87.231v90.758c31.779 0 61.57-8.501 87.231-23.346z"/><path d="m168.769 213.705v-94.895h-61.53c-16.297 26.533-25.702 57.755-25.702 91.177 0 1.243.021 2.481.047 3.718z"/><path d="m256 118.811h87.231v94.895h-87.231z"/></g><path d="m168.769 122.756v-63.886c-26.484 15.321-48.565 37.402-63.886 63.886z" fill="#c5ebfc"/><path d="m168.769 297.219v-87.231h-87.232c0 31.778 8.5 61.57 23.346 87.231z" fill="#c5ebfc"/><path d="m343.231 122.756v-63.886c-25.661-14.845-55.452-23.345-87.231-23.345v87.231z" fill="#c5ebfc"/><path d="m256 209.987h87.231v87.231h-87.231z" fill="#c5ebfc"/><path d="m182.801 404.186h146.397c-17.428-14.477-26.723-34.531-31.653-50.93-4.895-16.285-2.49-33.892 6.379-48.401l4.473-7.318c-28.207 0-88.364 0-104.795 0l4.473 7.318c8.869 14.509 11.274 32.116 6.379 48.401-4.93 16.399-14.225 36.453-31.653 50.93z" fill="#ffc839"/><path d="m268.976 327.398h26.756c1.186-7.901 3.937-15.58 8.192-22.542l4.473-7.318c-28.207 0-88.364 0-104.795 0l4.473 7.318c8.869 14.509 11.274 32.116 6.379 48.401-4.93 16.399-14.225 36.453-31.653 50.93h53.338c12.312-24.656 15.742-47.186 16.496-61.373.462-8.658 7.671-15.416 16.341-15.416z" fill="#ffb332"/><path d="m169.333 416.864c-13.027 19.024-12.375 41.008-1.729 58.269 3.965 6.429 7.405 14.336 9.359 23.833 24.797 8.447 51.381 13.034 79.037 13.034 27.658 0 54.243-4.588 79.042-13.036 1.953-9.497 5.393-17.403 9.358-23.832 10.431-16.912 11.51-38.935-1.729-58.269h-173.338z" fill="#ffc839"/><path d="m167.604 475.132c3.965 6.429 7.405 14.336 9.359 23.833 24.509 8.348 50.763 12.919 78.072 13.025-29.633-47.969-.087-68.923-.087-68.923l-21.113-26.203h-64.502c-13.028 19.024-12.376 41.007-1.729 58.268z" fill="#ffb332"/><path d="m488.191 314.77c-2.96-1.482-4.548-4.769-3.859-8.006 2.073-9.732 6.173-30.88 7.242-50.435.213-3.895-4.005-6.435-7.348-4.426-28.957 17.41-67.957 34.637-112.992 49.335-.01.021-.014.031-.024.053l.776 1.881s26.226 17.356 68.826 20.593c.44-.092.859-.18 1.299-.273 3.475-1.625 7.432.292 8.387 3.87l11.509 43.049c6.897-2.885 13.579-5.813 20.035-8.772 5.783-13.796 10.33-28.235 13.525-43.177z" fill="#ff4155"/><path d="m366.321 310.697 5.84 29.155c26.383-4.117 50.183-9.655 70.039-16.433v-1.724c-43.423-2.956-70.214-20.702-70.214-20.702-4.072 1.333-6.506 5.503-5.665 9.704z" fill="#e80054"/><path d="m27.773 251.904c-3.343-2.01-7.561.531-7.348 4.426 1.068 19.555 5.168 40.703 7.242 50.435.69 3.237-.899 6.525-3.859 8.006l-7.375 3.692c3.194 14.942 7.742 29.381 13.525 43.177 6.457 2.959 13.138 5.887 20.036 8.772l11.509-43.049c.955-3.578 4.912-5.495 8.387-3.87.44.092.859.18 1.299.273 42.599-3.236 68.826-20.593 68.826-20.593l.776-1.881c-.01-.021-.015-.031-.024-.053-45.036-14.699-84.037-31.925-112.994-49.335z" fill="#ff4155"/><path d="m145.679 310.697-5.84 29.155c-26.383-4.117-50.183-9.655-70.039-16.433v-1.724c43.424-2.956 70.215-20.702 70.215-20.702 4.071 1.333 6.505 5.503 5.664 9.704z" fill="#e80054"/><path d="m451.025 326.939c-1.146-4.287-5.68-6.688-9.877-5.245-44.414 15.266-111.339 24.983-186.2 24.983s-141.786-9.717-186.2-24.983c-4.197-1.442-8.731.958-9.877 5.245l-20.864 78.045c-1.035 3.87 1.098 7.864 4.877 9.194 50.076 17.626 126.472 28.888 212.064 28.888 85.593 0 161.988-11.262 212.064-28.888 3.779-1.33 5.912-5.324 4.877-9.194z" fill="#f995a9"/><path d="m253.313 428.532v-65.496c-10.536-8.292-.937-16.364-.937-16.364l-.007-.007c-73.816-.221-139.719-9.883-183.622-24.972-4.197-1.443-8.731.958-9.877 5.245l-20.864 78.045c-1.034 3.87 1.099 7.865 4.877 9.195 50.076 17.626 126.472 28.888 212.064 28.888-9.65-6.844-1.634-14.534-1.634-14.534z" fill="#ff7186"/><g><g><path d="m184.036 425.766c-.138 0-.276-.003-.415-.011-4.136-.226-7.306-3.761-7.08-7.897l2.777-50.885c.226-4.136 3.758-7.316 7.897-7.08 4.136.226 7.306 3.761 7.08 7.897l-2.777 50.885c-.218 3.997-3.527 7.091-7.482 7.091z" fill="#e0f5fc"/></g><g><path d="m219.249 427.688c-.138 0-.276-.003-.415-.011-4.136-.226-7.306-3.761-7.08-7.898l2.777-50.885c.226-4.136 3.763-7.311 7.898-7.08 4.136.226 7.306 3.761 7.08 7.898l-2.777 50.885c-.218 3.996-3.528 7.091-7.483 7.091z" fill="#e0f5fc"/></g><g><path d="m220.685 401.373c-.138 0-.276-.003-.415-.011l-35.213-1.921c-4.136-.226-7.306-3.761-7.08-7.897s3.759-7.317 7.897-7.08l35.213 1.921c4.136.226 7.306 3.761 7.08 7.897-.218 3.996-3.527 7.091-7.482 7.091z" fill="#e0f5fc"/></g></g><g><g><path d="m274.59 428.532h-21.277c-4.142 0-7.5-3.358-7.5-7.5v-50.496c0-4.142 3.358-7.5 7.5-7.5h21.277c4.142 0 7.5 3.358 7.5 7.5s-3.358 7.5-7.5 7.5h-13.777v35.496h13.777c4.142 0 7.5 3.358 7.5 7.5s-3.358 7.5-7.5 7.5z" fill="#e0f5fc"/></g><g><path d="m273.021 403.285h-19.708c-4.142 0-7.5-3.358-7.5-7.5s3.358-7.5 7.5-7.5h19.708c4.142 0 7.5 3.358 7.5 7.5s-3.358 7.5-7.5 7.5z" fill="#e0f5fc"/></g></g><g><g><path d="m136.227 419.401c-17.909-3.158-29.91-20.298-26.752-38.207 3.165-17.952 20.252-29.916 38.207-26.753 6.507 1.147 12.45 4.174 17.186 8.754 2.977 2.88 3.057 7.628.177 10.605s-7.628 3.056-10.605.177c-2.576-2.491-5.813-4.139-9.362-4.764-9.785-1.726-19.104 4.796-20.83 14.585-1.722 9.764 4.821 19.108 14.585 20.83 4.049.714 7.796-.02 10.932-2.654 3.172-2.664 7.903-2.251 10.566.921 2.664 3.172 2.251 7.903-.921 10.566-6.165 5.178-14.235 7.517-23.183 5.94z" fill="#e0f5fc"/></g></g><g><g><path d="m297.467 417.587c-3.039-2.815-3.22-7.56-.405-10.599 2.816-3.039 7.561-3.219 10.599-.404 3.156 2.924 7.87 4.428 12.599 4.007 6.283-.55 12.321-7.546.904-10.662-2.179-.594-14.872-4.257-16.854-5.317-13.261-7.08-12.227-26.78 3.197-32.938 14.065-5.615 26.792 3.135 27.327 3.51 3.391 2.379 4.212 7.056 1.833 10.447-2.367 3.375-7.01 4.203-10.397 1.867-.223-.147-6.829-4.437-13.201-1.894-3.446 1.376-3.568 4.407-2.05 5.549 2.004.674 7.854 2.603 14.089 4.303 27.27 7.433 20.021 38.014-3.541 40.077-9.109.796-17.861-2.166-24.1-7.946z" fill="#e0f5fc"/></g></g><g><g><path d="m359.106 413.354c-3.272-2.539-3.866-7.251-1.327-10.523s7.251-3.866 10.523-1.326c3.398 2.637 8.22 3.72 12.9 2.894 6.211-1.095 11.617-8.594-.029-10.699-2.237-.405-15.186-2.946-17.253-3.828-13.824-5.897-14.519-25.61.314-33.091 13.521-6.821 26.963.787 27.529 1.115 3.585 2.074 4.81 6.662 2.736 10.247-2.064 3.568-6.617 4.799-10.195 2.767-.23-.124-7.186-3.825-13.315-.736-3.319 1.674-3.167 4.702-1.559 5.707 2.055.497 8.051 1.909 14.411 3.059 27.814 5.027 23.258 36.125-.035 40.232-9.205 1.623-18.141-.727-24.7-5.818z" fill="#e0f5fc"/></g></g><g><path d="m284.863 21.415-15.22 9.153c-1.938 1.166-4.144-1.04-2.978-2.979l10.246-17.038c2.791-4.641-.552-10.551-5.967-10.551h-29.888c-5.415 0-8.757 5.91-5.967 10.551l10.247 17.039c1.166 1.938-1.04 4.144-2.979 2.979l-15.22-9.153c-4.641-2.791-10.551.552-10.551 5.966v24.063c0 5.415 5.91 8.758 10.551 5.967l15.22-9.153c1.938-1.166 4.144 1.04 2.979 2.979l-10.247 17.039c-2.791 4.641.552 10.551 5.967 10.551h29.888c5.415 0 8.757-5.91 5.967-10.551l-10.246-17.038c-1.166-1.938 1.04-4.144 2.979-2.978l15.22 9.152c4.641 2.791 10.551-.551 10.551-5.967v-24.064c-.001-5.415-5.911-8.757-10.552-5.967z" fill="#fce99a"/><path d="m266.665 51.238c-.617-1.026-.285-2.121.447-2.758-22.204 3.291-22.019-18.332-22.019-18.332-.64.713-1.722 1.029-2.735.42l-15.22-9.153c-4.641-2.791-10.551.552-10.551 5.966v24.063c0 5.415 5.91 8.758 10.551 5.967l15.22-9.153c1.938-1.166 4.144 1.04 2.979 2.979l-10.247 17.039c-2.791 4.641.552 10.551 5.967 10.551h29.888c5.415 0 8.758-5.91 5.967-10.551z" fill="#ffdd40"/><path d="m279.88 77.9h-47.76c-6.121 0-11.129 5.008-11.129 11.129v9.893h70.018v-9.893c0-6.121-5.008-11.129-11.129-11.129z" fill="#ffc839"/><path d="m254.206 96.382c-5.741-5.985-2.554-12.659-.133-16.116.51-.729.574-1.612.286-2.366h-22.239c-6.121 0-11.129 5.008-11.129 11.129v9.893h33.83c.276-.865.051-1.845-.615-2.54z" fill="#ffb332"/><path d="m334.489 116.851c-.635-1.699-1.895-3.083-3.449-4.018-9.207-5.536-27.034-14.839-42.89-14.839-15.202 0-49.1 0-64.299 0-15.855 0-33.683 9.303-42.89 14.839-1.555.935-2.814 2.319-3.45 4.018l-.024.064 78.513 1.791 78.512-1.791z" fill="#ffdd40"/><path d="m180.961 112.833c-1.555.935-2.814 2.319-3.45 4.018l-.024.064 77.232 1.762c.022-.034.046-.071.068-.104.645-.977.53-2.268-.282-3.112-6.17-6.419-2.521-12.787-.111-15.749.408-.502.579-1.115.534-1.718-11.914 0-23.7 0-31.078 0-15.855 0-33.682 9.303-42.889 14.839z" fill="#ffc839"/><path d="m334.486 116.851c-4.656 0-152.299 0-156.973 0-.65 1.736-.892 4.132.374 7.135h-.002c21.042 48.531 30.522 99.988 32.555 112.034h91.121c2.032-12.046 11.513-63.503 32.555-112.034h-.002c1.265-3.002 1.022-5.398.372-7.135z" fill="#ffc839"/><path d="m177.887 123.986h-.003c21.042 48.531 30.522 99.988 32.555 112.034h43.951c.071-.096.142-.19.211-.279.719-.931.72-2.237-.035-3.14-8.236-9.856-2.496-20.338.224-24.244.643-.923.609-2.163-.109-3.029-6.025-7.258-2.122-13.508.093-16.084.698-.812.767-1.98.215-2.898-20.025-33.328-4.815-60.787-.202-67.774.345-.523.466-1.135.385-1.722-37.797 0-75.339 0-77.659 0-.65 1.738-.892 4.134.374 7.136z" fill="#ffb332"/><path d="m310.25 206.771h-108.5c-5.187 0-9.392-4.205-9.392-9.392 0-5.187 4.205-9.392 9.392-9.392h108.5c5.187 0 9.392 4.205 9.392 9.392 0 5.188-4.205 9.392-9.392 9.392z" fill="#ffdd40"/><path d="m255.327 187.988h-53.578c-5.187 0-9.392 4.205-9.392 9.392s4.205 9.392 9.392 9.392h53.491c-.028-.516-.212-1.023-.559-1.442-6.025-7.258-2.122-13.508.093-16.084.314-.366.493-.804.553-1.258z" fill="#ffc839"/><path d="m308.398 234.166h-104.796c-6.121 0-11.129 5.008-11.129 11.129v9.892h127.053v-9.892c0-6.121-5.008-11.129-11.128-11.129z" fill="#ffdd40"/><path d="m254.557 251.729c-5.541-6.898-2.133-13.166.045-15.988.358-.464.538-1.022.535-1.576h-51.534c-6.121 0-11.129 5.008-11.129 11.129v9.893h61.839c.078-.098.157-.195.232-.285.762-.919.76-2.242.012-3.173z" fill="#ffc839"/><path d="m308.398 298.466h-104.796c-6.121 0-11.129-5.008-11.129-11.129v-9.892h127.053v9.892c0 6.121-5.008 11.129-11.128 11.129z" fill="#ffdd40"/><path d="m192.474 287.337c0 6.121 5.008 11.129 11.129 11.129h51.352c.047-.62-.135-1.26-.55-1.785-5.507-6.967-2.064-13.076.153-15.83.746-.927.715-2.267-.057-3.173-.067-.078-.125-.156-.19-.234h-61.836v9.893z" fill="#ffc839"/><path d="m316.976 279.299h-121.952c-7.171 0-12.984-5.813-12.984-12.983 0-7.171 5.813-12.984 12.984-12.984h121.952c7.171 0 12.984 5.813 12.984 12.984-.001 7.17-5.813 12.983-12.984 12.983z" fill="#fce99a"/><path d="m255.116 253.332h-60.092c-7.171 0-12.983 5.813-12.983 12.984s5.813 12.983 12.983 12.983h60.071c-.002-.578-.2-1.157-.595-1.621-8.606-10.09-2.904-19.225.045-22.777.378-.455.567-1.011.571-1.569z" fill="#ffdd40"/></g></g></svg>