<svg id="Layer_1" enable-background="new 0 0 512 512" height="512" viewBox="0 0 512 512" width="512" xmlns="http://www.w3.org/2000/svg"><g><path d="m244.998 22.004c-135.309 0-244.998 109.69-244.998 244.998 0 92.033 50.756 172.199 125.794 214.073l138.583 30.163c126.249-9.88 225.619-115.451 225.619-244.236 0-135.308-109.69-244.998-244.998-244.998z" fill="#73c3f9"/><path d="m500.828 287.352h-265.009c-6.144 0-11.172-5.027-11.172-11.172v-265.008c.001-6.145 5.028-11.172 11.172-11.172h265.009c6.145 0 11.172 5.027 11.172 11.172v265.009c0 6.144-5.027 11.171-11.172 11.171z" fill="#e29b61"/><path d="m305.291 0h-69.472c-6.145 0-11.172 5.027-11.172 11.172v265.009c0 6.145 5.027 11.172 11.172 11.172h69.472c-9.128-9.128 0-17.611 0-17.611v-252.131c-9.415-9.415 0-17.611 0-17.611z" fill="#c7874e"/><path d="m428.184 204.161h66.205v65.581h-66.205z" fill="#fff3e1"/><path d="m428.184 77.793h66.205v68.57h-66.205z" fill="#fff3e1"/><path d="m428.184 17.611h66.205v63.033h-66.205z" fill="#ffb332"/><path d="m428.184 143.676h66.205v63.033h-66.205z" fill="#543e5b"/><path d="m301.47 204.161h69.537v65.581h-69.537z" fill="#fff3e1"/><path d="m301.47 77.793h69.537v68.57h-69.537z" fill="#fff3e1"/><path d="m301.47 17.611h69.537v63.033h-69.537z" fill="#543e5b"/><path d="m301.47 143.676h69.537v63.033h-69.537z" fill="#ff4155"/><path d="m242.259 204.161h63.033v65.581h-63.033z" fill="#ffb332"/><path d="m368.324 204.161h63.033v65.581h-63.033z" fill="#ffb332"/><path d="m242.259 77.793h63.033v68.57h-63.033z" fill="#ffb332"/><path d="m368.324 77.793h63.033v68.57h-63.033z" fill="#ffb332"/><g fill="#fff3e1"><path d="m242.259 17.611h63.033v63.033h-63.033z"/><path d="m242.259 143.676h63.033v63.033h-63.033z"/><path d="m368.324 17.611h63.033v63.033h-63.033z"/><path d="m368.324 143.676h63.033v63.033h-63.033z"/></g><path d="m244.998 512c6.523 0 12.984-.261 19.379-.761-72.349-90.031-19.98-114.286-19.98-114.286-94.059 0-34.29 0-119.893 0 0 0 40.329 18.688 1.291 84.123 35.283 19.689 75.928 30.924 119.203 30.924z" fill="#af713b"/><path d="m244.396 396.953c-94.059 0-34.29 0-119.893 0 0 0 40.329 18.688 1.291 84.123 13.252 7.395 27.261 13.597 41.881 18.46 10.294-18.103 13.849-38.869 15.053-52.354.724-8.111 7.495-14.335 15.638-14.335h27.75c-.908-26.997 18.28-35.894 18.28-35.894z" fill="#965b27"/><path d="m137.22 126.179c39.78-27.947 48.447-69.436 49.254-97.122-107.046 26.241-186.474 122.809-186.474 237.945 0 39.14 9.185 76.131 25.509 108.946 99.577-68.197 11.803-179.58 111.711-249.769z" fill="#9bd8f9"/><path d="m479.786 337.188c-12.065-9.558-28.206-17.569-48.43-17.569-46.566 0-244.259 81.573-115.141 181.859 78.38-23.775 140.132-85.767 163.571-164.29z" fill="#9bd8f9"/><g><path d="m197.313 256.579c-3.955 3.955-10.367 3.955-14.322 0s-3.955-10.367 0-14.322l29.283-29.283c3.983-3.983 4.164-10.39.405-14.586l-10.842-12.102h-34.775l-27.162 30.32c-22.786 25.435-25.006 62.35-7.337 90.013h103.774c14.059-22.01 15.521-49.874 4.054-73.155-3.229-6.556-11.9-8.063-17.067-2.896-13.866 13.866-24.012 24.012-26.011 26.011z" fill="#af713b"/><path d="m240.438 299.298c-45.313 3.234-43.125-42.719-43.125-42.719-3.955 3.955-10.367 3.955-14.322 0s-3.955-10.367 0-14.322c-32.151 3.506-34.735-34.978-34.735-34.978l-8.356 9.328c-22.786 25.435-25.006 62.35-7.337 90.013h103.774c1.517-2.376 2.878-4.823 4.101-7.322z" fill="#965b27"/><path d="m198.51 152.952h-28.125c-10.026 0-18.229 8.203-18.229 18.229 0 10.026 8.203 18.229 18.229 18.229h28.125c10.026 0 18.229-8.203 18.229-18.229 0-10.026-8.203-18.229-18.229-18.229z" fill="#e29b61"/><path d="m184.448 171.181c0-9.321 7.092-17.063 16.146-18.105-.684-.079-1.379-.124-2.083-.124h-28.125c-10.026 0-18.229 8.203-18.229 18.229s8.203 18.229 18.229 18.229h28.125c.705 0 1.399-.045 2.083-.124-9.054-1.042-16.146-8.783-16.146-18.105z" fill="#c7874e"/><path d="m251.17 319.619c0-7.732-6.268-14-14-14h-105.441c-7.732 0-14 6.268-14 14s6.268 14 14 14h105.441c7.732 0 14-6.268 14-14z" fill="#e29b61"/><path d="m182.42 305.619h-50.691c-7.732 0-14 6.268-14 14s6.268 14 14 14h48.332c.527-.919 1.13-1.736 1.718-2.428 1.274-1.502 1.198-3.689-.161-5.114-7.057-7.405-3.35-14.097-.16-17.689.706-.795 1.018-1.796.962-2.769z" fill="#c7874e"/><path d="m257.186 328.619h-145.473c-6.6 0-12 5.4-12 12v10.667h169.474v-10.667c-.001-6.601-5.401-12-12.001-12z" fill="#c7874e"/><path d="m181.85 346.848c-5.891-6.535-2.805-12.434-.071-15.657.634-.747.932-1.664.906-2.572h-70.973c-6.6 0-12 5.4-12 12v10.667h82.523c.843-1.392.734-3.196-.385-4.438z" fill="#af713b"/><path d="m245.389 397.953h-121.88c-6.6 0-12-5.4-12-12v-10.667h145.88v10.667c0 6.6-5.4 12-12 12z" fill="#c7874e"/><path d="m111.509 385.953c0 6.6 5.4 12 12 12h60.237c-.117-.58-.362-1.136-.742-1.616-5.328-6.718-2.452-13.404-.273-16.784.849-1.317.741-3.009-.167-4.267h-71.055z" fill="#af713b"/><path d="m266.436 377.286h-163.973c-7.732 0-14-6.268-14-14 0-7.732 6.268-14 14-14h163.974c7.732 0 14 6.268 14 14-.001 7.732-6.269 14-14.001 14z" fill="#e29b61"/><path d="m88.463 363.286c0 7.732 6.268 14 14 14h80.841c-.057-.8-.364-1.587-.905-2.231-8.872-10.584-4.035-19.186-.539-23.244.625-.725.936-1.627.929-2.524h-80.327c-7.731-.001-13.999 6.267-13.999 13.999z" fill="#c7874e"/></g></g></svg>