<svg id="Layer_1" enable-background="new 0 0 512 512" height="512" viewBox="0 0 512 512" width="512" xmlns="http://www.w3.org/2000/svg"><g><path d="m45.723 392.776s223.256 16.607 420.554 0c22.039-36.768 34.721-79.788 34.721-125.774 0-135.309-109.69-244.998-244.998-244.998s-244.997 109.689-244.997 244.998c-.001 45.987 12.68 89.007 34.72 125.774z" fill="#73c3f9"/><g><path d="m352.451 173.048c-1.315-13.477-16.82-16.244-17.198-29.85-.006-.215 0-.426.003-.638h-159.662c.002.213.008.424.002.638-.377 13.607-15.883 16.374-17.198 29.85-.79 8.1 4.125 14.661 8.528 19.564 4.403 4.904 9.296 11.534 8.44 19.618-.962 9.092-8.458 13.057-11.483 21.086-3.128 8.303-.578 19.287 4.123 25.74 4.701 6.454 11.033 9.446 17.144 12.254h68.519 3.511 68.519c6.111-2.808 12.443-5.801 17.144-12.254s7.25-17.437 4.123-25.74c-3.024-8.029-10.52-11.994-11.483-21.086-.856-8.084 4.037-14.714 8.44-19.618 4.403-4.903 9.318-11.464 8.528-19.564z" fill="#543e5b"/></g><g><path d="m335.483 212.23c-.856-8.084 4.037-14.714 8.44-19.618 4.403-4.903 9.318-11.464 8.528-19.564-1.315-13.477-16.82-16.244-17.198-29.85-.006-.215 0-.426.003-.638h-159.662c.002.213.008.424.002.638-.377 13.607-15.883 16.374-17.198 29.85-.79 8.1 4.125 14.661 8.528 19.564 4.403 4.904 9.296 11.534 8.44 19.618 0 0 8.08-20.73 31.995-10.914h97.226s21.175-2.368 31.776 14.816l.015-.008c-.424-1.201-.745-2.48-.895-3.894z" fill="#422953"/></g><path d="m188.596 109.001c.984-3.217 2.306-5.969 4.064-7.95 1.591-1.793 2.466-3.886 2.531-6.056 0 0 6.99-31.851 33.492-33.502 0 0 17.975-3.428 33.838 22.615 13.159 21.603 44.291 28.926 60.63 25.015 3.574-2.271 9.605-3.568 13.775-2.074 0-18.978.001-26.71.001-29.543 0-1.03 0-1.415 0-1.455 0-41.115-32.932-76.051-80.952-76.051-47.736 0-80.953 34.821-80.953 76.051v30.999c4.094-1.466 9.979-.243 13.574 1.951z" fill="#543e5b"/><path d="m175.022 76.051v30.999c4.093-1.466 9.979-.243 13.574 1.951.984-3.217 2.306-5.969 4.064-7.95 1.591-1.793 2.466-3.886 2.531-6.056 0 0 6.99-31.851 33.492-33.502 0 0 10.579-2.001 22.667 8.816-.406-1.112-.852-2.237-1.37-3.381-20.576-45.378 30.797-63.572 30.797-63.572-7.686-2.175-15.989-3.356-24.802-3.356-47.736 0-80.953 34.821-80.953 76.051z" fill="#422953"/><path d="m335.12 105.087c-3.772-2.627-10.253-.168-12.893 2.106-.151.151-.288.297-.432.446 4.14 15.164 1.503 38.749 1.061 41.574-.022.096-.046.191-.068.287 7.794.532 13.508-4.116 13.508-10.963 0-2.248.201-4.49.596-6.704 1.286-7.214 7.678-20.165-1.772-26.746z" fill="#fcad6d"/><g><path d="m331.185 131.298c-2.828 0-5.359-1.241-7.101-3.201.086 10.303-.963 19.425-1.227 21.115-.022.096-.046.191-.068.287 7.794.532 13.508-4.116 13.508-10.963 0-2.248.201-4.49.596-6.704.165-.925.415-1.946.703-3.035-1.691 1.548-3.937 2.501-6.411 2.501z" fill="#fd995b"/></g><path d="m189.105 149.272c-1.611-9.359-2.957-28.159.264-40.568-.443-.493-.911-.994-1.43-1.511-2.639-2.273-9.12-4.732-12.892-2.106-9.451 6.582-3.059 19.532-1.773 26.745.395 2.215.596 4.456.596 6.704 0 7.342 6.568 12.162 15.229 10.77 0 0 .007-.018.008-.027z" fill="#fcad6d"/><g><path d="m187.404 127.299c-1.724 2.417-4.545 3.999-7.74 3.999-2.968 0-5.618-1.361-7.361-3.493.4 1.463.757 2.826.971 4.027.395 2.215.596 4.456.596 6.704 0 7.342 6.568 12.162 15.229 10.77 0 0 .007-.018.008-.027l-.002-.007c-.908-5.272-1.731-13.539-1.701-21.973z" fill="#fd995b"/></g><path d="m262.522 81.909c-15.864-26.043-33.838-22.615-33.838-22.615-26.502 1.651-33.492 33.501-33.492 33.501-.064 2.17-.939 4.263-2.531 6.056-8.769 9.881-6.848 38.751-4.803 50.636 4.531 19.998 11.093 37.435 19.504 51.829 8.538 14.612 21.468 25.976 37.392 32.866 7.133 3.084 15.31 3.085 22.442 0 15.924-6.89 28.854-18.254 37.392-32.866 8.409-14.39 14.972-31.828 19.512-51.865 1.568-9.967 3.21-29.866-.69-42.585-16.269 4.048-47.661-3.243-60.888-24.957z" fill="#f9ba8f"/><path d="m247.186 201.316c-8.41-14.394-14.973-31.831-19.504-51.829-2.046-11.886-3.966-40.755 4.803-50.636 1.591-1.793 2.466-3.886 2.531-6.056 0 0 3.514-15.956 14.964-25.866-11.505-9.488-21.296-7.636-21.296-7.636-26.502 1.651-33.492 33.501-33.492 33.501-.064 2.17-.939 4.263-2.531 6.056-8.769 9.881-6.849 38.751-4.803 50.636 4.531 19.998 11.093 37.435 19.504 51.829 8.538 14.612 21.468 25.976 37.392 32.866 7.133 3.084 15.31 3.085 22.442 0 3.007-1.301 5.907-2.763 8.692-4.375-11.96-6.924-21.776-16.638-28.702-28.49z" fill="#fcad6d"/><path d="m414.096 302.489c-11.292-26.297-35.262-32.746-45.498-34.711-.109-.018-25.151-1.248-45.221-9.021-2.638-1.022-5.041-2.105-7.204-3.169-19.653 34.525-60.173 52.081-60.173 52.081-29.771-11.855-46.428-38.725-54.21-55.267-3.337 1.919-7.769 4.261-13.167 6.353-20.07 7.774-45.112 9.003-45.221 9.021-10.235 1.966-33.583 8.69-45.498 34.711-6.852 14.965-9.672 70.915-11.05 92.287h56.66c.136-3.159.271-7.546.404-8.859 2.424-24.002 6.037-26.66 7.022-26.93-.554 7.798 1.689 21.216 4.575 35.788h200.921c2.887-14.581 5.132-28.006 4.574-35.803.906.194 4.607 2.513 7.074 26.944.133 1.313.268 5.7.404 8.859h56.658c-1.4-21.328-4.419-76.844-11.05-92.284z" fill="#ff7186"/><path d="m201.929 392.776s-15.455-42.672-15.455-66.338c0-18.382 16.901-27.121 24.449-30.108 2.024-.801 3.807-2.161 4.949-4.014 2.146-3.481 5.184-5.505 8.268-6.664-10.77-11.341-17.969-23.933-22.352-33.249-3.337 1.919-7.769 4.261-13.167 6.353-20.07 7.773-45.112 9.003-45.221 9.021-10.235 1.965-33.583 8.69-45.498 34.711-6.852 14.965-9.672 70.915-11.05 92.287h56.66c.136-3.159.271-7.546.404-8.859 2.424-24.002 6.037-26.66 7.022-26.93-.554 7.798 1.689 21.216 4.575 35.788h45.185z" fill="#ff4155"/><path d="m250.031 305.054c1.942.925 3.928 1.803 5.969 2.615 0 0 2.378-.963 6.236-2.885l45.379-53.911c-.999-.6-1.858-1.123-2.532-1.516-15.249-11.103-14.829-22.337-14.829-33.225-8.304 7.424-22.448 16.843-34.255 17.417-11.806-.574-25.951-9.994-34.255-17.417 0 10.888.421 22.122-14.828 33.225-.668.389-1.517.907-2.505 1.5z" fill="#fcad6d"/><path d="m256 233.549c-11.806-.574-25.951-9.994-34.255-17.417 0 10.888.421 22.122-14.828 33.225-.668.389-1.517.907-2.505 1.5l29.893 35.513c.722-.572 1.44-1.205 2.153-1.918 16.438-16.438 19.677-38.15 19.992-50.945-.15.01-.302.035-.45.042z" fill="#fd995b"/><path d="m80.424 437.849 5.093-11.256s-7.017-1.43-17.438-2.411c3.945 4.71 8.064 9.268 12.345 13.667z" fill="#7e471c"/><path d="m198.434 426.593s-28.667-5.828-59.43 0l-10.268 33.817s27.245 7.209 64.564 0z" fill="#7e471c"/><path d="m186.967 502.122 1.198-7.895s-13.786-2.654-31.487-3.211c9.777 4.341 19.89 8.058 30.289 11.106z" fill="#7e471c"/><path d="m139.004 426.593 10.268-33.817h54.296l-5.134 33.817z" fill="#ffe8c2"/><path d="m124.656 473.845c12.478 7.94 25.726 14.774 39.603 20.382h23.907l5.134-33.817h-64.564z" fill="#ffe8c2"/><path d="m70.118 426.593h15.399l15.3-33.817h-55.094c7.177 11.974 15.345 23.285 24.395 33.817z" fill="#ffe8c2"/><path d="m83.059 426.593-4.314 9.536c8.942 9.369 18.628 18.018 28.948 25.878 7.472-.158 15.263-.623 22.683-1.597l10.269-33.817c-.002 0-31.208-4.708-57.586 0z" fill="#ffe8c2"/><path d="m83.059 426.593 15.3-33.817h52.552l-10.268 33.817z" fill="#7e471c"/><path d="m126.034 474.705 4.34-14.295h-24.766c6.55 5.1 13.369 9.869 20.426 14.295z" fill="#7e471c"/><path d="m186.527 494.227-1.128 7.429c22.359 6.717 46.054 10.344 70.601 10.344.548 0 1.092-.017 1.639-.021v-17.752s-45.342-6.134-71.112 0z" fill="#fff3e1"/><path d="m218.958 491.514c-11.327-.114-23.149.504-32.431 2.713l-1.128 7.429c11.736 3.526 23.844 6.191 36.247 7.936-3.551-7.335-2.839-15.365-2.839-15.365s.054-.975.151-2.713z" fill="#ffe8c2"/><path d="m257.639 426.593s-32.591-4.097-60.844 0l-5.134 33.817s40.55 4.663 65.978 0z" fill="#fff3e1"/><path d="m223.513 424.778c-8.574.052-17.859.531-26.718 1.816l-5.134 33.817s13.09 1.504 29.058 1.949c.826-12.795 1.825-26.984 2.794-37.582z" fill="#ffe8c2"/><path d="m196.795 426.593 5.134-33.817h55.71v33.817z" fill="#965b27"/><path d="m196.795 426.593h26.555c.443-5.008.883-9.332 1.3-12.488 2.509-19 31.35-21.328 31.35-21.328h-54.071z" fill="#7e471c"/><path d="m257.639 460.41v33.817h-71.112l5.134-33.817z" fill="#965b27"/><path d="m191.661 460.41-5.134 33.817h32.281s.861-15.793 2.038-33.817z" fill="#7e471c"/><path d="m431.575 437.849c4.282-4.399 8.401-8.957 12.345-13.667-10.42.982-17.438 2.411-17.438 2.411z" fill="#fff3e1"/><path d="m313.565 426.593s28.667-5.828 59.43 0l10.268 33.817s-27.245 7.209-64.564 0z" fill="#fff3e1"/><path d="m323.834 494.227 1.198 7.895c10.4-3.049 20.513-6.766 30.289-11.107-17.701.558-31.487 3.212-31.487 3.212z" fill="#fff3e1"/><g fill="#965b27"><path d="m372.995 426.593-10.268-33.817h-54.296l5.134 33.817z"/><path d="m383.263 460.41h-64.564l5.134 33.817h23.907c13.876-5.608 27.124-12.442 39.602-20.382z"/><path d="m426.482 426.593h15.399c9.051-10.532 17.218-21.843 24.396-33.817h-55.095z"/><path d="m256 512c24.546 0 48.243-3.626 70.601-10.344l-1.128-7.429c-25.77-6.134-69.473 0-69.473 0z"/><path d="m256 426.593s30.952-4.097 59.205 0l5.134 33.817s-38.911 4.663-64.339 0z"/><path d="m433.255 436.129-4.314-9.536c-26.378-4.708-57.585 0-57.585 0l10.269 33.817c7.419.974 15.21 1.439 22.683 1.597 10.319-7.86 20.005-16.509 28.947-25.878z"/></g><path d="m428.941 426.593-15.3-33.817h-52.553l10.268 33.817z" fill="#fff3e1"/><path d="m315.204 426.593-5.134-33.817h-54.07v33.817z" fill="#fff3e1"/><path d="m381.625 460.41 4.34 14.295c7.057-4.425 13.876-9.194 20.426-14.295z" fill="#fff3e1"/><path d="m256 460.41v33.817h69.473l-5.135-33.817z" fill="#fff3e1"/><path d="m256 307.669 49.083-58.313 25.806 11.96-41.685 42.666c-2.304 2.358-5.461 3.687-8.757 3.687z" fill="#f995a9"/><path d="m256 307.669-49.083-58.313-26.325 12.116 43.055 42.694c2.289 2.245 5.367 3.503 8.573 3.503z" fill="#f995a9"/><path d="m236.457 284.452-29.541-35.095-26.325 12.116 33.345 33.065c.753-.635 1.414-1.375 1.937-2.222 6.367-10.329 20.584-7.864 20.584-7.864z" fill="#ff7186"/><circle cx="334.075" cy="151.003" fill="#fff3e1" r="10.167"/><circle cx="177.835" cy="151.003" fill="#fff3e1" r="10.167"/><path d="m379.63 198.89c10.41 67.893 57.162 31.782 66.804 91.657 5.369 33.34 25.683 46.769 42.636 52.128 7.736-23.832 11.927-49.262 11.927-75.673 0-66.523-26.525-126.841-69.56-170.988-24.805 21.325-58.518 59.105-51.807 102.876z" fill="#9bd8f9"/><path d="m132.369 198.89c-10.41 67.893-57.162 31.782-66.804 91.657-5.369 33.34-25.683 46.769-42.636 52.128-7.736-23.832-11.927-49.262-11.927-75.673 0-66.523 26.525-126.841 69.56-170.988 24.806 21.325 58.519 59.105 51.807 102.876z" fill="#9bd8f9"/></g></svg>