<svg width="525" height="470" viewBox="0 0 525 470" fill="none" xmlns="http://www.w3.org/2000/svg">
<path d="M525 270.473C525 432.473 289 488.473 262.5 464.473C89 464.473 0 419.59 0 270.473C0 121.356 49 0.472757 262.5 0.47276C407.475 0.47276 525 -23.5272 525 270.473Z" fill="#F7B32B"/>
<g clip-path="url(#clip0)">
<path d="M263 82.2168C196.932 82.2168 143.372 135.776 143.372 201.845C143.372 251.167 173.224 293.512 215.842 311.812H310.157C352.776 293.512 382.627 251.167 382.627 201.845C382.628 135.776 329.068 82.2168 263 82.2168Z" fill="#4B3F72"/>
<path d="M273.13 104.214C270.233 106.157 266.75 107.291 263 107.291C259.251 107.291 255.767 106.157 252.871 104.214C246.061 126.094 225.373 135.069 225.373 135.069H300.628C300.628 135.069 279.939 126.094 273.13 104.214Z" fill="#FFD185"/>
<path d="M261.53 132.191C255.538 121.791 260.14 112.401 262.167 109.129C262.516 108.566 262.712 107.931 262.749 107.281C259.096 107.231 255.701 106.113 252.87 104.214C246.061 126.094 225.372 135.069 225.372 135.069H261.926C262.163 134.109 262.04 133.074 261.53 132.191Z" fill="#F4BC6A"/>
<path d="M319.307 145.215L308.398 137.115C306.075 135.39 303.259 134.458 300.366 134.458H225.635C222.741 134.458 219.925 135.39 217.602 137.115L206.693 145.215C204.766 146.646 203.716 148.569 203.521 150.613L263 151.758L322.479 150.614C322.284 148.569 321.234 146.647 319.307 145.215Z" fill="#FFE8C2"/>
<path d="M262.028 134.459H225.634C222.741 134.459 219.924 135.39 217.602 137.115L206.693 145.215C204.765 146.647 203.716 148.57 203.521 150.613L261.607 151.73C261.985 150.591 261.818 149.319 261.109 148.288C257.648 143.25 259.623 138.8 261.337 136.382C261.745 135.806 261.972 135.139 262.028 134.459Z" fill="#FFD185"/>
<path d="M322.469 150.537C302.535 150.537 235.352 150.537 203.531 150.537C203.33 152.426 203.834 154.804 206.005 157.555C213.431 166.3 224.949 182.251 227.832 199.82C228.054 199.799 228.278 199.786 228.505 199.786H297.495C297.722 199.786 297.946 199.799 298.168 199.82C301.05 182.251 312.569 166.3 319.994 157.555C322.167 154.804 322.671 152.426 322.469 150.537Z" fill="#FFD185"/>
<path d="M206.005 157.555C213.431 166.3 224.949 182.251 227.832 199.82C228.054 199.799 228.278 199.786 228.505 199.786H261.802C261.973 198.867 261.819 197.905 261.303 197.089C259.139 193.676 260.155 190.682 261.331 188.818C262.13 187.55 262.077 185.953 261.261 184.696C259.037 181.27 259.987 178.362 261.172 176.528C262.062 175.151 262.048 173.396 261.111 172.05C255.129 163.465 258.552 156.263 261.07 152.782C261.557 152.109 261.801 151.324 261.805 150.537C240.257 150.537 218.158 150.537 203.531 150.537C203.33 152.426 203.834 154.804 206.005 157.555Z" fill="#F4BC6A"/>
<path d="M221.007 305.068C219.132 307.2 217.414 309.458 215.843 311.812C230.313 318.026 246.253 321.473 263 321.473C279.747 321.473 295.687 318.026 310.158 311.813C308.587 309.458 306.868 307.201 304.993 305.069C297.409 296.448 292.955 286.238 290.351 277.577C287.128 266.856 288.712 255.264 294.55 245.713L297.495 240.896H228.505L231.45 245.713C237.288 255.264 238.872 266.856 235.649 277.577C233.045 286.238 228.591 296.448 221.007 305.068Z" fill="#FFD185"/>
<path d="M273.41 264.504H288.756C289.073 257.925 291.043 251.45 294.55 245.712L297.495 240.895H228.505L231.45 245.712C237.288 255.264 238.872 266.855 235.649 277.576C233.045 286.238 228.591 296.448 221.007 305.068C219.131 307.2 217.413 309.458 215.842 311.812C225.123 315.797 235.009 318.637 245.324 320.166C257.758 306.398 261.352 286.533 262.354 274.63C262.836 268.898 267.657 264.504 273.41 264.504Z" fill="#F4BC6A"/>
<path d="M305.507 186.809H220.493C217.079 186.809 214.31 184.041 214.31 180.626C214.31 177.211 217.078 174.443 220.493 174.443H305.507C308.922 174.443 311.69 177.211 311.69 180.626C311.69 184.041 308.921 186.809 305.507 186.809Z" fill="#FFE8C2"/>
<path d="M261.816 174.443H220.493C217.079 174.443 214.31 177.211 214.31 180.626C214.31 184.041 217.078 186.809 220.493 186.809H261.899C261.894 186.075 261.68 185.341 261.261 184.696C259.037 181.27 259.987 178.362 261.172 176.528C261.585 175.888 261.794 175.167 261.816 174.443Z" fill="#FFD185"/>
<path d="M297.495 199.175H228.505C224.475 199.175 221.179 202.472 221.179 206.501V213.014H304.821V206.501C304.821 202.472 301.525 199.175 297.495 199.175Z" fill="#FFE8C2"/>
<path d="M261.251 209.659C258.987 206.144 260.014 203.119 261.23 201.234C261.634 200.608 261.852 199.892 261.871 199.175H228.505C224.475 199.175 221.179 202.472 221.179 206.502V213.014H261.598C261.999 211.914 261.902 210.67 261.251 209.659Z" fill="#FFD185"/>
<path d="M297.495 241.505H228.505C224.475 241.505 221.179 238.209 221.179 234.179V227.667H304.821V234.179C304.821 238.209 301.525 241.505 297.495 241.505Z" fill="#FFE8C2"/>
<path d="M221.179 234.179C221.179 238.209 224.476 241.505 228.505 241.505H262.7C262.558 241.164 262.37 240.841 262.132 240.552C258.975 236.712 260.049 233.166 261.332 231.015C261.945 229.986 262.046 228.754 261.643 227.667H221.179V234.179Z" fill="#FFD185"/>
<path d="M303.143 228.888H222.857C218.137 228.888 214.31 225.061 214.31 220.34C214.31 215.62 218.137 211.793 222.857 211.793H303.142C307.863 211.793 311.689 215.62 311.689 220.34C311.69 225.061 307.863 228.888 303.143 228.888Z" fill="#FFF3E1"/>
<path d="M214.31 220.34C214.31 225.061 218.137 228.888 222.857 228.888H261.884C261.861 228.132 261.621 227.385 261.158 226.747C257.226 221.315 259.264 216.56 261.119 213.94C261.573 213.299 261.815 212.548 261.837 211.793H222.857C218.137 211.793 214.31 215.62 214.31 220.34Z" fill="#FFE8C2"/>
<path d="M281.097 91.8505C282.324 81.8614 275.222 72.7688 265.233 71.5415C255.244 70.3143 246.152 77.4172 244.924 87.4063C243.697 97.3954 250.8 106.488 260.789 107.715C270.777 108.942 279.87 101.84 281.097 91.8505Z" fill="#FFE8C2"/>
<path d="M197.906 205.606C208.098 173.172 179.097 151.502 159.926 141.108C149.412 158.912 143.372 179.671 143.372 201.845C143.372 241.98 163.139 277.493 193.466 299.192C230.624 265.369 184.583 248.007 197.906 205.606Z" fill="#7255CE"/>
<path d="M366.074 141.108C346.903 151.502 317.902 173.172 328.094 205.606C341.418 248.006 295.377 265.369 332.533 299.192C362.861 277.493 382.628 241.98 382.628 201.845C382.628 179.671 376.588 158.912 366.074 141.108Z" fill="#7255CE"/>
<path d="M267.086 92.3965C270.768 92.1901 273.586 89.038 273.379 85.3561C273.173 81.6742 270.021 78.8568 266.339 79.0632C262.657 79.2696 259.839 82.4217 260.046 86.1036C260.252 89.7855 263.404 92.6029 267.086 92.3965Z" fill="#FFF3E1"/>
</g>
<defs>
<clipPath id="clip0">
<rect width="250" height="250" fill="white" transform="translate(138 71.4727)"/>
</clipPath>
</defs>
</svg>
