<svg xmlns="http://www.w3.org/2000/svg" viewBox="0 0 1430 320"><path fill="#4B3F72" fill-opacity="1" d="M0,64L30,80C60,96,120,128,180,160C240,192,300,224,360,218.7C420,213,480,171,540,154.7C600,139,660,149,720,176C780,203,840,245,900,224C960,203,1020,117,1080,117.3C1140,117,1200,203,1260,224C1320,245,1380,203,1410,181.3L1440,160L1440,0L1410,0C1380,0,1320,0,1260,0C1200,0,1140,0,1080,0C1020,0,960,0,900,0C840,0,780,0,720,0C660,0,600,0,540,0C480,0,420,0,360,0C300,0,240,0,180,0C120,0,60,0,30,0L0,0Z"></path></svg>