<svg viewBox="0 0 484 595" fill="none" xmlns="http://www.w3.org/2000/svg">
<rect width="200" height="200" fill="#4B3F72"/>
<path d="M484 268C484 395 383.264 493 259 493C30 493 10 360.264 10 236C10 51 110.736 11 235 11C359.264 11 484 87 484 268Z" fill="#F7B32B"/>
<path d="M476 491C466 591 440 571 376 591C312 611 276 546.228 276 491C276 435.772 320.772 391 376 391C431.228 391 500 415 476 491Z" fill="#4B3F72"/>
<g clip-path="url(#clip0)">
<path d="M179.017 331.853H306.983C326.455 314.334 338.702 288.943 338.702 260.688C338.702 207.833 298.855 260.688 246 260.688C193.145 260.688 147.298 207.833 147.298 260.688C147.298 288.943 159.545 314.334 179.017 331.853Z" fill="#4B3F72"/>
<path d="M263.055 238.152C262.657 238.23 262.248 238.274 261.828 238.274H224.172C223.752 238.274 223.342 238.23 222.944 238.152C222.537 250.87 218.441 258.758 215.005 263.17H270.995C267.559 258.758 263.463 250.869 263.055 238.152Z" fill="#FFD185"/>
<path d="M237.637 262.738C237.711 262.667 237.775 262.589 237.83 262.502C242.546 255.084 242.967 242.445 242.999 239.452C243.003 239.059 242.826 238.686 242.518 238.444C242.446 238.387 242.381 238.33 242.313 238.274H224.173C223.753 238.274 223.342 238.23 222.945 238.152C222.538 250.87 218.442 258.758 215.005 263.17H237.227C237.401 262.972 237.546 262.826 237.637 262.738Z" fill="#F4BC6A"/>
<path d="M201.531 309.264C201.831 309.248 202.132 309.239 202.435 309.239H283.592C283.896 309.239 284.198 309.248 284.499 309.264C285.233 307.657 286.034 306.164 286.879 304.795C292.821 295.161 288.153 282.615 280.611 271.602H205.419C197.998 282.439 193.086 294.962 199.151 304.795C199.996 306.164 200.797 307.657 201.531 309.264Z" fill="#FFD185"/>
<path d="M237.017 307.351C224.279 292.236 234.209 277.727 237.044 274.169C237.418 273.7 237.416 273.03 237.032 272.569C236.76 272.243 236.526 271.921 236.322 271.603H205.419C197.998 282.44 193.087 294.962 199.151 304.795C199.996 306.164 200.797 307.657 201.532 309.264C201.831 309.248 202.132 309.239 202.436 309.239H236.81C236.88 309.155 236.948 309.075 237.011 309C237.414 308.525 237.419 307.828 237.017 307.351Z" fill="#F4BC6A"/>
<path d="M280.325 262.642C274.826 262.642 211.174 262.642 205.675 262.642C202.72 262.642 200.325 265.037 200.325 267.992C200.325 270.946 202.72 273.342 205.675 273.342H280.325C283.28 273.342 285.675 270.946 285.675 267.992C285.675 265.037 283.28 262.642 280.325 262.642Z" fill="#FFE8C2"/>
<path d="M205.675 262.642C202.72 262.642 200.325 265.037 200.325 267.992C200.325 270.946 202.72 273.342 205.675 273.342H237.32C237.313 273.066 237.218 272.792 237.031 272.568C232.928 267.654 236.927 263.422 237.637 262.738C237.667 262.709 237.689 262.673 237.716 262.641C222.331 262.642 208.143 262.642 205.675 262.642Z" fill="#FFD185"/>
<path d="M290.07 308.182H195.931C186.628 308.182 179.017 315.793 179.017 325.096V331.853C185.321 337.524 192.382 342.368 200.031 346.219H285.969C293.618 342.369 300.679 337.524 306.983 331.853V325.096C306.983 315.794 299.372 308.182 290.07 308.182Z" fill="#FFE8C2"/>
<path d="M237.315 308.182H195.931C186.628 308.182 179.017 315.793 179.017 325.096V331.853C185.321 337.524 192.382 342.368 200.031 346.219H237.114C237.324 345.756 237.253 345.2 236.889 344.811C221.929 328.845 233.822 312.754 237.011 309C237.211 308.764 237.313 308.473 237.315 308.182Z" fill="#FFD185"/>
<path d="M198.995 345.69C212.17 352.525 227.132 356.391 243 356.391C258.868 356.391 273.83 352.525 287.005 345.691C262.963 345.69 223.037 345.69 198.995 345.69Z" fill="#FFF3E1"/>
<path d="M237.233 345.69C223.216 345.69 209.569 345.69 198.995 345.69C210.327 351.569 222.984 355.248 236.4 356.163C232.854 352.175 235.446 348.221 236.915 346.537C237.127 346.293 237.232 345.992 237.233 345.69Z" fill="#FFE8C2"/>
<path d="M270.231 213.621C275.146 207.582 278.096 199.88 278.096 191.487C278.096 172.104 262.383 156.391 243 156.391C223.617 156.391 207.904 172.104 207.904 191.486C207.904 199.879 210.854 207.581 215.769 213.62H270.231V213.621Z" fill="#FFE8C2"/>
<path d="M239.227 212.757C216.14 204.121 214.954 176.466 214.979 170.354C210.538 176.232 207.904 183.552 207.904 191.486C207.904 199.879 210.854 207.581 215.768 213.62H240.005C239.907 213.242 239.637 212.91 239.227 212.757Z" fill="#FFD185"/>
<path d="M261.828 238.802H224.172C220.685 238.802 217.832 235.949 217.832 232.462V226.827H268.167V232.462C268.167 235.949 265.314 238.802 261.828 238.802Z" fill="#FFE8C2"/>
<path d="M217.833 232.462C217.833 235.949 220.685 238.802 224.172 238.802H242.819C242.741 238.667 242.643 238.543 242.518 238.444C238.079 234.949 239.717 230.425 240.622 228.648C240.862 228.177 240.779 227.608 240.425 227.214C240.309 227.085 240.201 226.956 240.093 226.828H217.833V232.462H217.833Z" fill="#FFD185"/>
<path d="M272.947 227.884H213.054C208.969 227.884 205.657 224.573 205.657 220.488C205.657 216.403 208.969 213.092 213.054 213.092H272.947C277.031 213.092 280.343 216.404 280.343 220.488C280.342 224.573 277.031 227.884 272.947 227.884Z" fill="#FFF3E1"/>
<path d="M205.658 220.488C205.658 224.573 208.969 227.884 213.054 227.884H240.742C240.705 227.641 240.598 227.407 240.425 227.214C235.5 221.734 237.975 216.996 239.762 214.759C240.174 214.244 240.123 213.538 239.72 213.093H213.053C208.969 213.092 205.658 216.404 205.658 220.488Z" fill="#FFE8C2"/>
<path d="M164.371 315.252C162.327 288.872 178.136 278.831 194.202 256.557C210.07 234.559 186.92 203.954 176.398 191.972C158.454 209.367 147.298 233.723 147.298 260.688C147.298 280.97 153.609 299.775 164.371 315.252Z" fill="#7D66C5"/>
<path d="M321.628 315.252C332.391 299.775 338.702 280.969 338.702 260.688C338.702 233.723 327.546 209.367 309.602 191.972C299.08 203.954 275.93 234.559 291.798 256.557C307.864 278.831 323.673 288.873 321.628 315.252Z" fill="#7D66C5"/>
<path d="M263.398 181.644C264.499 174.935 259.953 168.604 253.243 167.502C246.534 166.401 240.203 170.947 239.101 177.657C238 184.366 242.546 190.698 249.256 191.799C255.965 192.9 262.297 188.354 263.398 181.644Z" fill="#FFF3E1"/>
</g>
<defs>
<clipPath id="clip0">
<rect width="200" height="200" fill="white" transform="translate(143 156)"/>
</clipPath>
</defs>
</svg>
